InriaSerif-Light.ufo
<glyph name="exclam" format="1">
  <advance width="261"/>
  <unicode hex="0021"/>
  <outline>
    <contour>
      <point x="145" y="172" type="line"/>
      <point x="145" y="413"/>
      <point x="161" y="465"/>
      <point x="161" y="680" type="curve"/>
      <point x="101" y="680" type="line"/>
      <point x="101" y="465"/>
      <point x="117" y="413"/>
      <point x="117" y="172" type="curve"/>
    </contour>
    <contour>
      <point x="130" y="-10" type="curve" smooth="yes"/>
      <point x="158" y="-10"/>
      <point x="178" y="10"/>
      <point x="178" y="38" type="curve" smooth="yes"/>
      <point x="178" y="65"/>
      <point x="158" y="85"/>
      <point x="130" y="85" type="curve" smooth="yes"/>
      <point x="103" y="85"/>
      <point x="83" y="65"/>
      <point x="83" y="38" type="curve" smooth="yes"/>
      <point x="83" y="10"/>
      <point x="103" y="-10"/>
    </contour>
  </outline>
</glyph>
<glyph name="quotedbl" format="1">
  <advance width="411"/>
  <unicode hex="0022"/>
  <outline>
    <contour>
      <point x="144" y="459" type="line"/>
      <point x="144" y="603"/>
      <point x="169" y="603"/>
      <point x="169" y="643" type="curve" smooth="yes"/>
      <point x="169" y="674"/>
      <point x="153" y="690"/>
      <point x="130" y="690" type="curve" smooth="yes"/>
      <point x="107" y="690"/>
      <point x="91" y="674"/>
      <point x="91" y="643" type="curve" smooth="yes"/>
      <point x="91" y="603"/>
      <point x="116" y="603"/>
      <point x="116" y="459" type="curve"/>
    </contour>
    <contour>
      <point x="295" y="459" type="line"/>
      <point x="295" y="603"/>
      <point x="320" y="603"/>
      <point x="320" y="643" type="curve" smooth="yes"/>
      <point x="320" y="674"/>
      <point x="304" y="690"/>
      <point x="281" y="690" type="curve" smooth="yes"/>
      <point x="258" y="690"/>
      <point x="242" y="674"/>
      <point x="242" y="643" type="curve" smooth="yes"/>
      <point x="242" y="603"/>
      <point x="267" y="603"/>
      <point x="267" y="459" type="curve"/>
    </contour>
  </outline>
</glyph>
<glyph name="numbersign" format="1">
  <advance width="651"/>
  <unicode hex="0023"/>
  <outline>
    <contour>
      <point x="553" y="213" type="line"/>
      <point x="553" y="243" type="line"/>
      <point x="444" y="243" type="line"/>
      <point x="504" y="437" type="line"/>
      <point x="622" y="437" type="line"/>
      <point x="622" y="467" type="line"/>
      <point x="513" y="467" type="line"/>
      <point x="579" y="680" type="line"/>
      <point x="547" y="690" type="line"/>
      <point x="478" y="467" type="line"/>
      <point x="251" y="467" type="line"/>
      <point x="317" y="680" type="line"/>
      <point x="285" y="690" type="line"/>
      <point x="216" y="467" type="line"/>
      <point x="98" y="467" type="line"/>
      <point x="98" y="437" type="line"/>
      <point x="207" y="437" type="line"/>
      <point x="147" y="243" type="line"/>
      <point x="29" y="243" type="line"/>
      <point x="29" y="213" type="line"/>
      <point x="138" y="213" type="line"/>
      <point x="72" y="0" type="line"/>
      <point x="104" y="-10" type="line"/>
      <point x="173" y="213" type="line"/>
      <point x="400" y="213" type="line"/>
      <point x="334" y="0" type="line"/>
      <point x="366" y="-10" type="line"/>
      <point x="435" y="213" type="line"/>
    </contour>
    <contour>
      <point x="182" y="243" type="line"/>
      <point x="242" y="437" type="line"/>
      <point x="469" y="437" type="line"/>
      <point x="409" y="243" type="line"/>
    </contour>
  </outline>
</glyph>
<glyph name="dollar" format="1">
  <advance width="540"/>
  <unicode hex="0024"/>
  <outline>
    <contour>
      <point x="484" y="174" type="curve" smooth="yes"/>
      <point x="484" y="272"/>
      <point x="424" y="341"/>
      <point x="308" y="372" type="curve" smooth="yes"/>
      <point x="286" y="378" type="line"/>
      <point x="286" y="660" type="line"/>
      <point x="379" y="650"/>
      <point x="414" y="582"/>
      <point x="401" y="467" type="curve"/>
      <point x="464" y="483" type="line"/>
      <point x="482" y="584"/>
      <point x="426" y="680"/>
      <point x="286" y="689" type="curve"/>
      <point x="286" y="805" type="line"/>
      <point x="251" y="805" type="line"/>
      <point x="251" y="690" type="line"/>
      <point x="117" y="685"/>
      <point x="58" y="602"/>
      <point x="58" y="512" type="curve" smooth="yes"/>
      <point x="58" y="421"/>
      <point x="112" y="354"/>
      <point x="221" y="325" type="curve" smooth="yes"/>
      <point x="251" y="317" type="line"/>
      <point x="251" y="21" type="line"/>
      <point x="178" y="25"/>
      <point x="111" y="65"/>
      <point x="101" y="191" type="curve"/>
      <point x="46" y="173" type="line"/>
      <point x="69" y="36"/>
      <point x="157" y="-6"/>
      <point x="251" y="-10" type="curve"/>
      <point x="251" y="-125" type="line"/>
      <point x="286" y="-125" type="line"/>
      <point x="286" y="-10" type="line"/>
      <point x="420" y="-3"/>
      <point x="484" y="76"/>
    </contour>
    <contour>
      <point x="118" y="527" type="curve" smooth="yes"/>
      <point x="118" y="610"/>
      <point x="168" y="657"/>
      <point x="251" y="661" type="curve"/>
      <point x="251" y="387" type="line"/>
      <point x="150" y="414"/>
      <point x="118" y="459"/>
    </contour>
    <contour>
      <point x="424" y="159" type="curve" smooth="yes"/>
      <point x="424" y="75"/>
      <point x="370" y="27"/>
      <point x="286" y="21" type="curve"/>
      <point x="286" y="308" type="line"/>
      <point x="388" y="278"/>
      <point x="424" y="230"/>
    </contour>
  </outline>
</glyph>
<glyph name="ampersand" format="1">
  <advance width="616"/>
  <unicode hex="0026"/>
  <outline>
    <contour>
      <point x="248" y="20" type="curve" smooth="yes"/>
      <point x="185" y="20"/>
      <point x="124" y="53"/>
      <point x="124" y="146" type="curve" smooth="yes"/>
      <point x="124" y="231"/>
      <point x="172" y="286"/>
      <point x="232" y="327" type="curve" smooth="yes"/>
      <point x="303" y="375" type="line" smooth="yes"/>
      <point x="369" y="420"/>
      <point x="429" y="459"/>
      <point x="429" y="538" type="curve" smooth="yes"/>
      <point x="429" y="618"/>
      <point x="367" y="690"/>
      <point x="264" y="690" type="curve" smooth="yes"/>
      <point x="163" y="690"/>
      <point x="100" y="616"/>
      <point x="100" y="541" type="curve" smooth="yes"/>
      <point x="100" y="478"/>
      <point x="140" y="422"/>
      <point x="230" y="362" type="curve"/>
      <point x="211" y="349" type="line" smooth="yes"/>
      <point x="136" y="297"/>
      <point x="59" y="243"/>
      <point x="59" y="146" type="curve" smooth="yes"/>
      <point x="59" y="46"/>
      <point x="139" y="-10"/>
      <point x="246" y="-10" type="curve" smooth="yes"/>
      <point x="349" y="-10"/>
      <point x="411" y="62"/>
      <point x="410" y="148" type="curve"/>
      <point x="500" y="0" type="line"/>
      <point x="624" y="0" type="line"/>
      <point x="624" y="25" type="line"/>
      <point x="575" y="30" type="line" smooth="yes"/>
      <point x="554" y="32"/>
      <point x="551" y="33"/>
      <point x="529" y="69" type="curve" smooth="yes"/>
      <point x="405" y="266" type="line"/>
      <point x="356" y="236" type="line"/>
      <point x="415" y="125"/>
      <point x="356" y="20"/>
    </contour>
    <contour>
      <point x="165" y="545" type="curve" smooth="yes"/>
      <point x="165" y="624"/>
      <point x="208" y="660"/>
      <point x="265" y="660" type="curve" smooth="yes"/>
      <point x="324" y="660"/>
      <point x="364" y="619"/>
      <point x="364" y="544" type="curve" smooth="yes"/>
      <point x="364" y="474"/>
      <point x="331" y="432"/>
      <point x="283" y="399" type="curve" smooth="yes"/>
      <point x="255" y="380" type="line"/>
      <point x="181" y="438"/>
      <point x="165" y="496"/>
    </contour>
  </outline>
</glyph>
<glyph name="quotesingle" format="1">
  <advance width="260"/>
  <unicode hex="0027"/>
  <outline>
    <contour>
      <point x="144" y="459" type="line"/>
      <point x="144" y="603"/>
      <point x="169" y="603"/>
      <point x="169" y="643" type="curve" smooth="yes"/>
      <point x="169" y="674"/>
      <point x="153" y="690"/>
      <point x="130" y="690" type="curve" smooth="yes"/>
      <point x="107" y="690"/>
      <point x="91" y="674"/>
      <point x="91" y="643" type="curve" smooth="yes"/>
      <point x="91" y="603"/>
      <point x="116" y="603"/>
      <point x="116" y="459" type="curve"/>
    </contour>
  </outline>
</glyph>
<glyph name="parenleft" format="1">
  <advance width="339"/>
  <unicode hex="0028"/>
  <outline>
    <contour>
      <point x="82" y="280" type="line" smooth="yes"/>
      <point x="82" y="114"/>
      <point x="151" y="-33"/>
      <point x="289" y="-153" type="curve"/>
      <point x="312" y="-129" type="line"/>
      <point x="196" y="-19"/>
      <point x="147" y="126"/>
      <point x="147" y="280" type="curve" smooth="yes"/>
      <point x="147" y="317" type="line" smooth="yes"/>
      <point x="147" y="471"/>
      <point x="196" y="616"/>
      <point x="312" y="726" type="curve"/>
      <point x="289" y="750" type="line"/>
      <point x="151" y="630"/>
      <point x="82" y="483"/>
      <point x="82" y="317" type="curve" smooth="yes"/>
    </contour>
  </outline>
</glyph>
<glyph name="parenright" format="1">
  <advance width="339"/>
  <unicode hex="0029"/>
  <outline>
    <contour>
      <point x="257" y="317" type="line" smooth="yes"/>
      <point x="257" y="483"/>
      <point x="188" y="630"/>
      <point x="50" y="750" type="curve"/>
      <point x="27" y="726" type="line"/>
      <point x="143" y="616"/>
      <point x="192" y="471"/>
      <point x="192" y="317" type="curve" smooth="yes"/>
      <point x="192" y="280" type="line" smooth="yes"/>
      <point x="192" y="126"/>
      <point x="143" y="-19"/>
      <point x="27" y="-129" type="curve"/>
      <point x="50" y="-153" type="line"/>
      <point x="188" y="-33"/>
      <point x="257" y="114"/>
      <point x="257" y="280" type="curve" smooth="yes"/>
    </contour>
  </outline>
</glyph>
<glyph name="asterisk" format="1">
  <advance width="440"/>
  <unicode hex="002A"/>
  <outline>
    <contour>
      <point x="50" y="578" type="curve"/>
      <point x="32" y="523" type="line"/>
      <point x="101" y="500"/>
      <point x="123" y="511"/>
      <point x="201" y="486" type="curve"/>
      <point x="152" y="420"/>
      <point x="129" y="416"/>
      <point x="86" y="357" type="curve"/>
      <point x="133" y="323" type="line"/>
      <point x="176" y="382"/>
      <point x="172" y="406"/>
      <point x="220" y="471" type="curve"/>
      <point x="268" y="406"/>
      <point x="264" y="382"/>
      <point x="307" y="323" type="curve"/>
      <point x="354" y="357" type="line"/>
      <point x="311" y="416"/>
      <point x="287" y="420"/>
      <point x="239" y="486" type="curve"/>
      <point x="317" y="511"/>
      <point x="338" y="500"/>
      <point x="408" y="523" type="curve"/>
      <point x="390" y="578" type="line"/>
      <point x="320" y="555"/>
      <point x="309" y="534"/>
      <point x="232" y="508" type="curve"/>
      <point x="232" y="590"/>
      <point x="249" y="607"/>
      <point x="249" y="680" type="curve"/>
      <point x="191" y="680" type="line"/>
      <point x="191" y="607"/>
      <point x="208" y="590"/>
      <point x="208" y="508" type="curve"/>
      <point x="130" y="534"/>
      <point x="119" y="555"/>
    </contour>
  </outline>
</glyph>
<glyph name="plus" format="1">
  <advance width="588"/>
  <unicode hex="002B"/>
  <outline>
    <contour>
      <point x="501" y="318" type="line"/>
      <point x="501" y="350" type="line"/>
      <point x="311" y="350" type="line"/>
      <point x="311" y="544" type="line"/>
      <point x="277" y="544" type="line"/>
      <point x="277" y="350" type="line"/>
      <point x="87" y="350" type="line"/>
      <point x="87" y="318" type="line"/>
      <point x="277" y="318" type="line"/>
      <point x="277" y="124" type="line"/>
      <point x="311" y="124" type="line"/>
      <point x="311" y="318" type="line"/>
    </contour>
  </outline>
</glyph>
<glyph name="comma" format="1">
  <advance width="261"/>
  <unicode hex="002C"/>
  <outline>
    <contour>
      <point x="176" y="27" type="curve" smooth="yes"/>
      <point x="176" y="62"/>
      <point x="157" y="81"/>
      <point x="130" y="81" type="curve" smooth="yes"/>
      <point x="104" y="81"/>
      <point x="85" y="62"/>
      <point x="85" y="36" type="curve" smooth="yes"/>
      <point x="85" y="9"/>
      <point x="104" y="-10"/>
      <point x="130" y="-10" type="curve" smooth="yes"/>
      <point x="126" y="-54"/>
      <point x="104" y="-114"/>
      <point x="49" y="-181" type="curve"/>
      <point x="70" y="-199" type="line"/>
      <point x="136" y="-123"/>
      <point x="176" y="-36"/>
    </contour>
  </outline>
</glyph>
<glyph name="hyphen" format="1">
  <advance width="418"/>
  <unicode hex="002D"/>
  <outline>
    <contour>
      <point x="77" y="318" type="line"/>
      <point x="341" y="318" type="line"/>
      <point x="341" y="352" type="line"/>
      <point x="77" y="352" type="line"/>
    </contour>
  </outline>
</glyph>
<glyph name="period" format="1">
  <advance width="261"/>
  <unicode hex="002E"/>
  <outline>
    <contour>
      <point x="130" y="-10" type="curve" smooth="yes"/>
      <point x="158" y="-10"/>
      <point x="178" y="10"/>
      <point x="178" y="38" type="curve" smooth="yes"/>
      <point x="178" y="65"/>
      <point x="158" y="85"/>
      <point x="130" y="85" type="curve" smooth="yes"/>
      <point x="103" y="85"/>
      <point x="83" y="65"/>
      <point x="83" y="38" type="curve" smooth="yes"/>
      <point x="83" y="10"/>
      <point x="103" y="-10"/>
    </contour>
  </outline>
</glyph>
<glyph name="slash" format="1">
  <advance width="383"/>
  <unicode hex="002F"/>
  <outline>
    <contour>
      <point x="331" y="740" type="line"/>
      <point x="-15" y="-128" type="line"/>
      <point x="19" y="-143" type="line"/>
      <point x="365" y="725" type="line"/>
    </contour>
  </outline>
</glyph>
<glyph name="zero" format="1">
  <advance width="614"/>
  <unicode hex="0030"/>
  <outline>
    <contour>
      <point x="531" y="372" type="line" smooth="yes"/>
      <point x="531" y="564"/>
      <point x="449" y="690"/>
      <point x="307" y="690" type="curve" smooth="yes"/>
      <point x="164" y="690"/>
      <point x="83" y="564"/>
      <point x="83" y="372" type="curve" smooth="yes"/>
      <point x="83" y="309" type="line" smooth="yes"/>
      <point x="83" y="116"/>
      <point x="164" y="-10"/>
      <point x="307" y="-10" type="curve" smooth="yes"/>
      <point x="449" y="-10"/>
      <point x="531" y="116"/>
      <point x="531" y="309" type="curve" smooth="yes"/>
    </contour>
    <contour>
      <point x="458" y="442" type="curve" smooth="yes"/>
      <point x="458" y="239" type="line" smooth="yes"/>
      <point x="458" y="82"/>
      <point x="404" y="20"/>
      <point x="307" y="20" type="curve" smooth="yes"/>
      <point x="210" y="20"/>
      <point x="156" y="82"/>
      <point x="156" y="239" type="curve" smooth="yes"/>
      <point x="156" y="442" type="line" smooth="yes"/>
      <point x="156" y="598"/>
      <point x="210" y="660"/>
      <point x="307" y="660" type="curve" smooth="yes"/>
      <point x="404" y="660"/>
      <point x="458" y="598"/>
    </contour>
  </outline>
</glyph>
<glyph name="one" format="1">
  <advance width="345"/>
  <unicode hex="0031"/>
  <outline>
    <contour>
      <point x="38" y="601" type="line"/>
      <point x="54" y="576" type="line"/>
      <point x="155" y="638" type="line"/>
      <point x="155" y="79" type="line"/>
      <point x="155" y="32"/>
      <point x="154" y="31"/>
      <point x="133" y="30" type="curve" smooth="yes"/>
      <point x="58" y="25" type="line"/>
      <point x="58" y="0" type="line"/>
      <point x="297" y="0" type="line"/>
      <point x="297" y="25" type="line"/>
      <point x="242" y="30" type="line" smooth="yes"/>
      <point x="221" y="32"/>
      <point x="220" y="32"/>
      <point x="220" y="79" type="curve"/>
      <point x="220" y="680" type="line"/>
      <point x="165" y="680" type="line"/>
    </contour>
  </outline>
</glyph>
<glyph name="two" format="1">
  <advance width="543"/>
  <unicode hex="0032"/>
  <outline>
    <contour>
      <point x="434" y="184" type="line"/>
      <point x="407" y="83" type="line" smooth="yes"/>
      <point x="401" y="60"/>
      <point x="400" y="57"/>
      <point x="353" y="57" type="curve"/>
      <point x="104" y="57" type="line"/>
      <point x="109" y="173"/>
      <point x="175" y="230"/>
      <point x="253" y="274" type="curve" smooth="yes"/>
      <point x="348" y="327"/>
      <point x="460" y="365"/>
      <point x="460" y="505" type="curve" smooth="yes"/>
      <point x="460" y="601"/>
      <point x="403" y="690"/>
      <point x="260" y="690" type="curve" smooth="yes"/>
      <point x="113" y="690"/>
      <point x="49" y="590"/>
      <point x="68" y="483" type="curve"/>
      <point x="133" y="467" type="line"/>
      <point x="120" y="591"/>
      <point x="156" y="660"/>
      <point x="259" y="660" type="curve" smooth="yes"/>
      <point x="340" y="660"/>
      <point x="385" y="611"/>
      <point x="385" y="502" type="curve" smooth="yes"/>
      <point x="385" y="397"/>
      <point x="312" y="355"/>
      <point x="243" y="308" type="curve" smooth="yes"/>
      <point x="155" y="250"/>
      <point x="69" y="190"/>
      <point x="69" y="43" type="curve" smooth="yes"/>
      <point x="69" y="0" type="line"/>
      <point x="459" y="0" type="line"/>
      <point x="459" y="184" type="line"/>
    </contour>
  </outline>
</glyph>
<glyph name="three" format="1">
  <advance width="531"/>
  <unicode hex="0033"/>
  <outline>
    <contour>
      <point x="211" y="336" type="line" smooth="yes"/>
      <point x="341" y="336"/>
      <point x="389" y="268"/>
      <point x="389" y="170" type="curve" smooth="yes"/>
      <point x="389" y="71"/>
      <point x="341" y="20"/>
      <point x="253" y="20" type="curve" smooth="yes"/>
      <point x="191" y="20"/>
      <point x="125" y="48"/>
      <point x="107" y="163" type="curve"/>
      <point x="50" y="146" type="line"/>
      <point x="88" y="26"/>
      <point x="163" y="-10"/>
      <point x="255" y="-10" type="curve" smooth="yes"/>
      <point x="404" y="-10"/>
      <point x="464" y="75"/>
      <point x="464" y="170" type="curve" smooth="yes"/>
      <point x="464" y="272"/>
      <point x="405" y="332"/>
      <point x="297" y="351" type="curve"/>
      <point x="396" y="369"/>
      <point x="450" y="423"/>
      <point x="450" y="516" type="curve" smooth="yes"/>
      <point x="450" y="607"/>
      <point x="393" y="690"/>
      <point x="251" y="690" type="curve" smooth="yes"/>
      <point x="104" y="690"/>
      <point x="41" y="590"/>
      <point x="60" y="483" type="curve"/>
      <point x="125" y="467" type="line"/>
      <point x="112" y="591"/>
      <point x="147" y="660"/>
      <point x="250" y="660" type="curve" smooth="yes"/>
      <point x="330" y="660"/>
      <point x="375" y="611"/>
      <point x="375" y="516" type="curve" smooth="yes"/>
      <point x="375" y="428"/>
      <point x="331" y="366"/>
      <point x="211" y="366" type="curve" smooth="yes"/>
      <point x="184" y="366" type="line"/>
      <point x="184" y="336" type="line"/>
    </contour>
  </outline>
</glyph>
<glyph name="four" format="1">
  <advance width="490"/>
  <unicode hex="0034"/>
  <outline>
    <contour>
      <point x="314" y="79" type="line"/>
      <point x="314" y="32"/>
      <point x="313" y="31"/>
      <point x="292" y="30" type="curve" smooth="yes"/>
      <point x="217" y="25" type="line"/>
      <point x="217" y="0" type="line"/>
      <point x="456" y="0" type="line"/>
      <point x="456" y="25" type="line"/>
      <point x="401" y="30" type="line" smooth="yes"/>
      <point x="380" y="32"/>
      <point x="379" y="32"/>
      <point x="379" y="79" type="curve"/>
      <point x="379" y="176" type="line"/>
      <point x="456" y="176" type="line"/>
      <point x="456" y="206" type="line"/>
      <point x="379" y="206" type="line"/>
      <point x="379" y="377" type="line"/>
      <point x="314" y="367" type="line"/>
      <point x="314" y="206" type="line"/>
      <point x="56" y="206" type="line"/>
      <point x="193" y="347"/>
      <point x="296" y="493"/>
      <point x="345" y="680" type="curve"/>
      <point x="265" y="680" type="line"/>
      <point x="222" y="471"/>
      <point x="157" y="354"/>
      <point x="20" y="206" type="curve"/>
      <point x="20" y="176" type="line"/>
      <point x="314" y="176" type="line"/>
    </contour>
  </outline>
</glyph>
<glyph name="five" format="1">
  <advance width="509"/>
  <unicode hex="0035"/>
  <outline>
    <contour>
      <point x="403" y="760" type="line"/>
      <point x="395" y="706" type="line" smooth="yes"/>
      <point x="391" y="681"/>
      <point x="390" y="680"/>
      <point x="341" y="680" type="curve"/>
      <point x="97" y="680" type="line"/>
      <point x="79" y="349" type="line"/>
      <point x="96" y="344" type="line"/>
      <point x="143" y="385"/>
      <point x="192" y="400"/>
      <point x="242" y="400" type="curve" smooth="yes"/>
      <point x="343" y="400"/>
      <point x="381" y="320"/>
      <point x="381" y="205" type="curve" smooth="yes"/>
      <point x="381" y="83"/>
      <point x="332" y="20"/>
      <point x="245" y="20" type="curve" smooth="yes"/>
      <point x="187" y="20"/>
      <point x="129" y="48"/>
      <point x="111" y="163" type="curve"/>
      <point x="54" y="146" type="line"/>
      <point x="92" y="27"/>
      <point x="160" y="-10"/>
      <point x="246" y="-10" type="curve" smooth="yes"/>
      <point x="395" y="-10"/>
      <point x="456" y="91"/>
      <point x="456" y="205" type="curve" smooth="yes"/>
      <point x="456" y="344"/>
      <point x="378" y="433"/>
      <point x="248" y="433" type="curve" smooth="yes"/>
      <point x="203" y="433"/>
      <point x="157" y="422"/>
      <point x="116" y="394" type="curve"/>
      <point x="128" y="621" type="line"/>
      <point x="428" y="621" type="line"/>
      <point x="428" y="760" type="line"/>
    </contour>
  </outline>
</glyph>
<glyph name="six" format="1">
  <advance width="572"/>
  <unicode hex="0036"/>
  <outline>
    <contour>
      <point x="508" y="189" type="curve" smooth="yes"/>
      <point x="508" y="199" type="line" smooth="yes"/>
      <point x="508" y="320"/>
      <point x="432" y="399"/>
      <point x="311" y="399" type="curve" smooth="yes"/>
      <point x="247" y="399"/>
      <point x="193" y="374"/>
      <point x="155" y="325" type="curve"/>
      <point x="155" y="427" type="line" smooth="yes"/>
      <point x="155" y="617"/>
      <point x="218" y="660"/>
      <point x="299" y="660" type="curve" smooth="yes"/>
      <point x="399" y="660"/>
      <point x="442" y="591"/>
      <point x="428" y="467" type="curve"/>
      <point x="493" y="483" type="line"/>
      <point x="512" y="591"/>
      <point x="433" y="690"/>
      <point x="300" y="690" type="curve" smooth="yes"/>
      <point x="169" y="690"/>
      <point x="82" y="588"/>
      <point x="82" y="368" type="curve" smooth="yes"/>
      <point x="82" y="305" type="line" smooth="yes"/>
      <point x="82" y="96"/>
      <point x="161" y="-10"/>
      <point x="303" y="-10" type="curve" smooth="yes"/>
      <point x="424" y="-10"/>
      <point x="508" y="68"/>
    </contour>
    <contour>
      <point x="155" y="246" type="curve" smooth="yes"/>
      <point x="155" y="276" type="line"/>
      <point x="192" y="343"/>
      <point x="248" y="367"/>
      <point x="302" y="367" type="curve" smooth="yes"/>
      <point x="389" y="367"/>
      <point x="435" y="303"/>
      <point x="435" y="199" type="curve" smooth="yes"/>
      <point x="435" y="189" type="line" smooth="yes"/>
      <point x="435" y="65"/>
      <point x="383" y="20"/>
      <point x="303" y="20" type="curve" smooth="yes"/>
      <point x="208" y="20"/>
      <point x="155" y="74"/>
    </contour>
  </outline>
</glyph>
<glyph name="seven" format="1">
  <advance width="452"/>
  <unicode hex="0037"/>
  <outline>
    <contour>
      <point x="49" y="494" type="line"/>
      <point x="76" y="595" type="line" smooth="yes"/>
      <point x="82" y="618"/>
      <point x="83" y="621"/>
      <point x="130" y="621" type="curve"/>
      <point x="401" y="621" type="line"/>
      <point x="261" y="446"/>
      <point x="195" y="284"/>
      <point x="163" y="0" type="curve"/>
      <point x="243" y="0" type="line"/>
      <point x="255" y="339"/>
      <point x="313" y="469"/>
      <point x="436" y="629" type="curve"/>
      <point x="436" y="680" type="line"/>
      <point x="24" y="680" type="line"/>
      <point x="24" y="494" type="line"/>
    </contour>
  </outline>
</glyph>
<glyph name="eight" format="1">
  <advance width="538"/>
  <unicode hex="0038"/>
  <outline>
    <contour>
      <point x="478" y="166" type="curve" smooth="yes"/>
      <point x="478" y="260"/>
      <point x="431" y="322"/>
      <point x="330" y="361" type="curve"/>
      <point x="423" y="399"/>
      <point x="463" y="454"/>
      <point x="463" y="523" type="curve" smooth="yes"/>
      <point x="463" y="613"/>
      <point x="388" y="690"/>
      <point x="265" y="690" type="curve" smooth="yes"/>
      <point x="139" y="690"/>
      <point x="74" y="608"/>
      <point x="74" y="511" type="curve" smooth="yes"/>
      <point x="74" y="429"/>
      <point x="122" y="373"/>
      <point x="204" y="338" type="curve"/>
      <point x="110" y="297"/>
      <point x="60" y="228"/>
      <point x="60" y="156" type="curve" smooth="yes"/>
      <point x="60" y="70"/>
      <point x="131" y="-10"/>
      <point x="274" y="-10" type="curve" smooth="yes"/>
      <point x="409" y="-10"/>
      <point x="478" y="62"/>
    </contour>
    <contour>
      <point x="260" y="389" type="line" smooth="yes"/>
      <point x="174" y="423"/>
      <point x="129" y="461"/>
      <point x="129" y="532" type="curve" smooth="yes"/>
      <point x="129" y="619"/>
      <point x="192" y="660"/>
      <point x="266" y="660" type="curve" smooth="yes"/>
      <point x="345" y="660"/>
      <point x="398" y="615"/>
      <point x="398" y="524" type="curve" smooth="yes"/>
      <point x="398" y="459"/>
      <point x="374" y="408"/>
      <point x="297" y="374" type="curve"/>
    </contour>
    <contour>
      <point x="125" y="157" type="curve" smooth="yes"/>
      <point x="125" y="230"/>
      <point x="165" y="294"/>
      <point x="235" y="325" type="curve"/>
      <point x="289" y="304" type="line" smooth="yes"/>
      <point x="385" y="266"/>
      <point x="423" y="223"/>
      <point x="423" y="149" type="curve" smooth="yes"/>
      <point x="423" y="66"/>
      <point x="368" y="20"/>
      <point x="274" y="20" type="curve" smooth="yes"/>
      <point x="177" y="20"/>
      <point x="125" y="73"/>
    </contour>
  </outline>
</glyph>
<glyph name="nine" format="1">
  <advance width="572"/>
  <unicode hex="0039"/>
  <outline>
    <contour>
      <point x="490" y="312" type="curve" smooth="yes"/>
      <point x="490" y="375" type="line" smooth="yes"/>
      <point x="490" y="584"/>
      <point x="411" y="690"/>
      <point x="269" y="690" type="curve" smooth="yes"/>
      <point x="148" y="690"/>
      <point x="64" y="612"/>
      <point x="64" y="491" type="curve" smooth="yes"/>
      <point x="64" y="466" type="line" smooth="yes"/>
      <point x="64" y="345"/>
      <point x="140" y="266"/>
      <point x="261" y="266" type="curve" smooth="yes"/>
      <point x="325" y="266"/>
      <point x="379" y="291"/>
      <point x="417" y="340" type="curve"/>
      <point x="417" y="253" type="line" smooth="yes"/>
      <point x="417" y="63"/>
      <point x="343" y="20"/>
      <point x="263" y="20" type="curve" smooth="yes"/>
      <point x="205" y="20"/>
      <point x="144" y="48"/>
      <point x="126" y="163" type="curve"/>
      <point x="69" y="146" type="line"/>
      <point x="107" y="26"/>
      <point x="176" y="-10"/>
      <point x="263" y="-10" type="curve" smooth="yes"/>
      <point x="400" y="-10"/>
      <point x="490" y="92"/>
    </contour>
    <contour>
      <point x="137" y="466" type="curve" smooth="yes"/>
      <point x="137" y="491" type="line" smooth="yes"/>
      <point x="137" y="615"/>
      <point x="189" y="660"/>
      <point x="269" y="660" type="curve" smooth="yes"/>
      <point x="364" y="660"/>
      <point x="417" y="606"/>
      <point x="417" y="434" type="curve" smooth="yes"/>
      <point x="417" y="389" type="line"/>
      <point x="380" y="322"/>
      <point x="324" y="298"/>
      <point x="270" y="298" type="curve" smooth="yes"/>
      <point x="183" y="298"/>
      <point x="137" y="362"/>
    </contour>
  </outline>
</glyph>
<glyph name="colon" format="1">
  <advance width="261"/>
  <unicode hex="003A"/>
  <outline>
    <contour>
      <point x="130" y="402" type="curve" smooth="yes"/>
      <point x="158" y="402"/>
      <point x="178" y="422"/>
      <point x="178" y="450" type="curve" smooth="yes"/>
      <point x="178" y="477"/>
      <point x="158" y="497"/>
      <point x="130" y="497" type="curve" smooth="yes"/>
      <point x="103" y="497"/>
      <point x="83" y="477"/>
      <point x="83" y="450" type="curve" smooth="yes"/>
      <point x="83" y="422"/>
      <point x="103" y="402"/>
    </contour>
    <contour>
      <point x="130" y="-10" type="curve" smooth="yes"/>
      <point x="158" y="-10"/>
      <point x="178" y="10"/>
      <point x="178" y="38" type="curve" smooth="yes"/>
      <point x="178" y="65"/>
      <point x="158" y="85"/>
      <point x="130" y="85" type="curve" smooth="yes"/>
      <point x="103" y="85"/>
      <point x="83" y="65"/>
      <point x="83" y="38" type="curve" smooth="yes"/>
      <point x="83" y="10"/>
      <point x="103" y="-10"/>
    </contour>
  </outline>
</glyph>
<glyph name="semicolon" format="1">
  <advance width="261"/>
  <unicode hex="003B"/>
  <outline>
    <contour>
      <point x="130" y="402" type="curve" smooth="yes"/>
      <point x="158" y="402"/>
      <point x="178" y="422"/>
      <point x="178" y="450" type="curve" smooth="yes"/>
      <point x="178" y="477"/>
      <point x="158" y="497"/>
      <point x="130" y="497" type="curve" smooth="yes"/>
      <point x="103" y="497"/>
      <point x="83" y="477"/>
      <point x="83" y="450" type="curve" smooth="yes"/>
      <point x="83" y="422"/>
      <point x="103" y="402"/>
    </contour>
    <contour>
      <point x="176" y="27" type="curve" smooth="yes"/>
      <point x="176" y="62"/>
      <point x="157" y="81"/>
      <point x="130" y="81" type="curve" smooth="yes"/>
      <point x="104" y="81"/>
      <point x="85" y="62"/>
      <point x="85" y="36" type="curve" smooth="yes"/>
      <point x="85" y="9"/>
      <point x="104" y="-10"/>
      <point x="130" y="-10" type="curve" smooth="yes"/>
      <point x="126" y="-54"/>
      <point x="104" y="-114"/>
      <point x="49" y="-181" type="curve"/>
      <point x="70" y="-199" type="line"/>
      <point x="136" y="-123"/>
      <point x="176" y="-36"/>
    </contour>
  </outline>
</glyph>
<glyph name="less" format="1">
  <advance width="588"/>
  <unicode hex="003C"/>
  <outline>
    <contour>
      <point x="501" y="188" type="line"/>
      <point x="135" y="334" type="line"/>
      <point x="501" y="479" type="line"/>
      <point x="489" y="508" type="line"/>
      <point x="87" y="347" type="line"/>
      <point x="87" y="319" type="line"/>
      <point x="489" y="158" type="line"/>
    </contour>
  </outline>
</glyph>
<glyph name="equal" format="1">
  <advance width="588"/>
  <unicode hex="003D"/>
  <outline>
    <contour>
      <point x="87" y="418" type="line"/>
      <point x="501" y="418" type="line"/>
      <point x="501" y="450" type="line"/>
      <point x="87" y="450" type="line"/>
    </contour>
    <contour>
      <point x="87" y="218" type="line"/>
      <point x="501" y="218" type="line"/>
      <point x="501" y="250" type="line"/>
      <point x="87" y="250" type="line"/>
    </contour>
  </outline>
</glyph>
<glyph name="greater" format="1">
  <advance width="588"/>
  <unicode hex="003E"/>
  <outline>
    <contour>
      <point x="501" y="319" type="line"/>
      <point x="501" y="347" type="line"/>
      <point x="99" y="508" type="line"/>
      <point x="87" y="478" type="line"/>
      <point x="453" y="333" type="line"/>
      <point x="87" y="187" type="line"/>
      <point x="99" y="158" type="line"/>
    </contour>
  </outline>
</glyph>
<glyph name="question" format="1">
  <advance width="471"/>
  <unicode hex="003F"/>
  <outline>
    <contour>
      <point x="252" y="172" type="line"/>
      <point x="249" y="199" type="line" smooth="yes"/>
      <point x="232" y="354"/>
      <point x="423" y="323"/>
      <point x="423" y="514" type="curve" smooth="yes"/>
      <point x="423" y="605"/>
      <point x="369" y="690"/>
      <point x="233" y="690" type="curve" smooth="yes"/>
      <point x="92" y="690"/>
      <point x="30" y="590"/>
      <point x="49" y="483" type="curve"/>
      <point x="109" y="467" type="line"/>
      <point x="96" y="591"/>
      <point x="133" y="660"/>
      <point x="232" y="660" type="curve" smooth="yes"/>
      <point x="309" y="660"/>
      <point x="353" y="610"/>
      <point x="353" y="503" type="curve" smooth="yes"/>
      <point x="353" y="333"/>
      <point x="209" y="352"/>
      <point x="209" y="198" type="curve" smooth="yes"/>
      <point x="209" y="172" type="line"/>
    </contour>
    <contour>
      <point x="229" y="-10" type="curve" smooth="yes"/>
      <point x="257" y="-10"/>
      <point x="277" y="10"/>
      <point x="277" y="38" type="curve" smooth="yes"/>
      <point x="277" y="65"/>
      <point x="257" y="85"/>
      <point x="229" y="85" type="curve" smooth="yes"/>
      <point x="202" y="85"/>
      <point x="182" y="65"/>
      <point x="182" y="38" type="curve" smooth="yes"/>
      <point x="182" y="10"/>
      <point x="202" y="-10"/>
    </contour>
  </outline>
</glyph>
<glyph name="A" format="1">
  <advance width="622"/>
  <unicode hex="0041"/>
  <outline>
    <contour>
      <point x="189" y="25" type="line"/>
      <point x="134" y="30" type="line" smooth="yes"/>
      <point x="112" y="32"/>
      <point x="111" y="33"/>
      <point x="126" y="79" type="curve" smooth="yes"/>
      <point x="168" y="210" type="line"/>
      <point x="421" y="210" type="line"/>
      <point x="464" y="79" type="line" smooth="yes"/>
      <point x="479" y="34"/>
      <point x="478" y="32"/>
      <point x="456" y="30" type="curve" smooth="yes"/>
      <point x="401" y="25" type="line"/>
      <point x="401" y="0" type="line"/>
      <point x="622" y="0" type="line"/>
      <point x="622" y="25" type="line"/>
      <point x="567" y="30" type="line" smooth="yes"/>
      <point x="547" y="32"/>
      <point x="546" y="32"/>
      <point x="531" y="79" type="curve" smooth="yes"/>
      <point x="334" y="680" type="line"/>
      <point x="287" y="680" type="line"/>
      <point x="92" y="79" type="line" smooth="yes"/>
      <point x="77" y="32"/>
      <point x="76" y="32"/>
      <point x="55" y="30" type="curve" smooth="yes"/>
      <point x="0" y="25" type="line"/>
      <point x="0" y="0" type="line"/>
      <point x="189" y="0" type="line"/>
    </contour>
    <contour>
      <point x="178" y="240" type="line"/>
      <point x="295" y="600" type="line"/>
      <point x="412" y="240" type="line"/>
    </contour>
  </outline>
</glyph>
<glyph name="B" format="1">
  <advance width="598"/>
  <unicode hex="0042"/>
  <outline>
    <contour>
      <point x="52" y="655" type="line"/>
      <point x="107" y="650" type="line" smooth="yes"/>
      <point x="128" y="648"/>
      <point x="129" y="648"/>
      <point x="129" y="601" type="curve"/>
      <point x="129" y="79" type="line"/>
      <point x="129" y="32"/>
      <point x="128" y="32"/>
      <point x="107" y="30" type="curve" smooth="yes"/>
      <point x="52" y="25" type="line"/>
      <point x="52" y="0" type="line"/>
      <point x="347" y="0" type="line" smooth="yes"/>
      <point x="460" y="0"/>
      <point x="535" y="67"/>
      <point x="535" y="169" type="curve" smooth="yes"/>
      <point x="535" y="195" type="line" smooth="yes"/>
      <point x="535" y="278"/>
      <point x="481" y="335"/>
      <point x="394" y="350" type="curve"/>
      <point x="463" y="371"/>
      <point x="505" y="422"/>
      <point x="505" y="491" type="curve" smooth="yes"/>
      <point x="505" y="517" type="line" smooth="yes"/>
      <point x="505" y="616"/>
      <point x="432" y="680"/>
      <point x="322" y="680" type="curve" smooth="yes"/>
      <point x="52" y="680" type="line"/>
    </contour>
    <contour>
      <point x="322" y="650" type="line" smooth="yes"/>
      <point x="398" y="650"/>
      <point x="437" y="604"/>
      <point x="437" y="527" type="curve" smooth="yes"/>
      <point x="437" y="481" type="line" smooth="yes"/>
      <point x="437" y="404"/>
      <point x="398" y="360"/>
      <point x="322" y="360" type="curve" smooth="yes"/>
      <point x="194" y="360" type="line"/>
      <point x="194" y="650" type="line"/>
    </contour>
    <contour>
      <point x="347" y="330" type="line" smooth="yes"/>
      <point x="426" y="330"/>
      <point x="467" y="282"/>
      <point x="467" y="205" type="curve" smooth="yes"/>
      <point x="467" y="159" type="line" smooth="yes"/>
      <point x="467" y="78"/>
      <point x="426" y="30"/>
      <point x="347" y="30" type="curve" smooth="yes"/>
      <point x="194" y="30" type="line"/>
      <point x="194" y="330" type="line"/>
    </contour>
  </outline>
</glyph>
<glyph name="C" format="1">
  <advance width="579"/>
  <unicode hex="0043"/>
  <outline>
    <contour>
      <point x="323" y="-10" type="curve" smooth="yes"/>
      <point x="416" y="-10"/>
      <point x="496" y="28"/>
      <point x="526" y="131" type="curve"/>
      <point x="470" y="144" type="line"/>
      <point x="459" y="50"/>
      <point x="392" y="20"/>
      <point x="326" y="20" type="curve" smooth="yes"/>
      <point x="212" y="20"/>
      <point x="153" y="87"/>
      <point x="153" y="249" type="curve" smooth="yes"/>
      <point x="153" y="432" type="line" smooth="yes"/>
      <point x="153" y="594"/>
      <point x="211" y="660"/>
      <point x="322" y="660" type="curve" smooth="yes"/>
      <point x="420" y="660"/>
      <point x="468" y="591"/>
      <point x="454" y="467" type="curve"/>
      <point x="519" y="483" type="line"/>
      <point x="538" y="591"/>
      <point x="468" y="690"/>
      <point x="320" y="690" type="curve" smooth="yes"/>
      <point x="166" y="690"/>
      <point x="80" y="568"/>
      <point x="80" y="382" type="curve" smooth="yes"/>
      <point x="80" y="299" type="line" smooth="yes"/>
      <point x="80" y="110"/>
      <point x="162" y="-10"/>
    </contour>
  </outline>
</glyph>
<glyph name="D" format="1">
  <advance width="652"/>
  <unicode hex="0044"/>
  <outline>
    <contour>
      <point x="52" y="655" type="line"/>
      <point x="107" y="650" type="line" smooth="yes"/>
      <point x="128" y="648"/>
      <point x="129" y="648"/>
      <point x="129" y="601" type="curve"/>
      <point x="129" y="79" type="line"/>
      <point x="129" y="32"/>
      <point x="128" y="32"/>
      <point x="107" y="30" type="curve" smooth="yes"/>
      <point x="52" y="25" type="line"/>
      <point x="52" y="0" type="line"/>
      <point x="329" y="0" type="line" smooth="yes"/>
      <point x="484" y="0"/>
      <point x="572" y="118"/>
      <point x="572" y="299" type="curve" smooth="yes"/>
      <point x="572" y="382" type="line" smooth="yes"/>
      <point x="572" y="562"/>
      <point x="484" y="680"/>
      <point x="329" y="680" type="curve" smooth="yes"/>
      <point x="52" y="680" type="line"/>
    </contour>
    <contour>
      <point x="329" y="650" type="line" smooth="yes"/>
      <point x="440" y="650"/>
      <point x="499" y="588"/>
      <point x="499" y="432" type="curve" smooth="yes"/>
      <point x="499" y="249" type="line" smooth="yes"/>
      <point x="499" y="93"/>
      <point x="440" y="30"/>
      <point x="329" y="30" type="curve" smooth="yes"/>
      <point x="194" y="30" type="line"/>
      <point x="194" y="650" type="line"/>
    </contour>
  </outline>
</glyph>
<glyph name="E" format="1">
  <advance width="565"/>
  <unicode hex="0045"/>
  <outline>
    <contour>
      <point x="496" y="157" type="line"/>
      <point x="469" y="56" type="line" smooth="yes"/>
      <point x="463" y="33"/>
      <point x="462" y="30"/>
      <point x="415" y="30" type="curve"/>
      <point x="194" y="30" type="line"/>
      <point x="194" y="329" type="line"/>
      <point x="342" y="329" type="line"/>
      <point x="389" y="329"/>
      <point x="390" y="327"/>
      <point x="396" y="303" type="curve" smooth="yes"/>
      <point x="413" y="232" type="line"/>
      <point x="437" y="232" type="line"/>
      <point x="437" y="456" type="line"/>
      <point x="413" y="456" type="line"/>
      <point x="396" y="385" type="line" smooth="yes"/>
      <point x="390" y="361"/>
      <point x="389" y="359"/>
      <point x="342" y="359" type="curve"/>
      <point x="194" y="359" type="line"/>
      <point x="194" y="650" type="line"/>
      <point x="401" y="650" type="line"/>
      <point x="448" y="650"/>
      <point x="449" y="647"/>
      <point x="455" y="624" type="curve" smooth="yes"/>
      <point x="482" y="523" type="line"/>
      <point x="506" y="523" type="line"/>
      <point x="506" y="680" type="line"/>
      <point x="52" y="680" type="line"/>
      <point x="52" y="655" type="line"/>
      <point x="107" y="650" type="line" smooth="yes"/>
      <point x="128" y="648"/>
      <point x="129" y="648"/>
      <point x="129" y="601" type="curve"/>
      <point x="129" y="79" type="line"/>
      <point x="129" y="32"/>
      <point x="128" y="32"/>
      <point x="107" y="30" type="curve" smooth="yes"/>
      <point x="52" y="25" type="line"/>
      <point x="52" y="0" type="line"/>
      <point x="520" y="0" type="line"/>
      <point x="520" y="157" type="line"/>
    </contour>
  </outline>
</glyph>
<glyph name="F" format="1">
  <advance width="537"/>
  <unicode hex="0046"/>
  <outline>
    <contour>
      <point x="403" y="445" type="line"/>
      <point x="386" y="374" type="line" smooth="yes"/>
      <point x="380" y="350"/>
      <point x="379" y="348"/>
      <point x="332" y="348" type="curve"/>
      <point x="194" y="348" type="line"/>
      <point x="194" y="650" type="line"/>
      <point x="392" y="650" type="line"/>
      <point x="439" y="650"/>
      <point x="440" y="647"/>
      <point x="446" y="624" type="curve" smooth="yes"/>
      <point x="473" y="523" type="line"/>
      <point x="498" y="523" type="line"/>
      <point x="498" y="680" type="line"/>
      <point x="52" y="680" type="line"/>
      <point x="52" y="655" type="line"/>
      <point x="107" y="650" type="line" smooth="yes"/>
      <point x="128" y="648"/>
      <point x="129" y="648"/>
      <point x="129" y="601" type="curve"/>
      <point x="129" y="79" type="line"/>
      <point x="129" y="32"/>
      <point x="128" y="32"/>
      <point x="107" y="30" type="curve" smooth="yes"/>
      <point x="52" y="25" type="line"/>
      <point x="52" y="0" type="line"/>
      <point x="291" y="0" type="line"/>
      <point x="291" y="25" type="line"/>
      <point x="216" y="30" type="line" smooth="yes"/>
      <point x="195" y="31"/>
      <point x="194" y="32"/>
      <point x="194" y="79" type="curve"/>
      <point x="194" y="318" type="line"/>
      <point x="332" y="318" type="line"/>
      <point x="379" y="318"/>
      <point x="380" y="316"/>
      <point x="386" y="292" type="curve" smooth="yes"/>
      <point x="403" y="221" type="line"/>
      <point x="428" y="221" type="line"/>
      <point x="428" y="445" type="line"/>
    </contour>
  </outline>
</glyph>
<glyph name="G" format="1">
  <advance width="640"/>
  <unicode hex="0047"/>
  <outline>
    <contour>
      <point x="380" y="283" type="line"/>
      <point x="455" y="278" type="line" smooth="yes"/>
      <point x="476" y="277"/>
      <point x="477" y="276"/>
      <point x="477" y="229" type="curve"/>
      <point x="477" y="91" type="line"/>
      <point x="441" y="40"/>
      <point x="392" y="20"/>
      <point x="329" y="20" type="curve" smooth="yes"/>
      <point x="213" y="20"/>
      <point x="153" y="87"/>
      <point x="153" y="249" type="curve" smooth="yes"/>
      <point x="153" y="432" type="line" smooth="yes"/>
      <point x="153" y="596"/>
      <point x="214" y="661"/>
      <point x="330" y="661" type="curve" smooth="yes"/>
      <point x="437" y="661"/>
      <point x="486" y="591"/>
      <point x="472" y="467" type="curve"/>
      <point x="537" y="483" type="line"/>
      <point x="556" y="591"/>
      <point x="482" y="690"/>
      <point x="328" y="690" type="curve" smooth="yes"/>
      <point x="169" y="690"/>
      <point x="80" y="568"/>
      <point x="80" y="382" type="curve" smooth="yes"/>
      <point x="80" y="299" type="line" smooth="yes"/>
      <point x="80" y="112"/>
      <point x="168" y="-10"/>
      <point x="324" y="-10" type="curve" smooth="yes"/>
      <point x="389" y="-10"/>
      <point x="441" y="8"/>
      <point x="482" y="47" type="curve"/>
      <point x="497" y="34"/>
      <point x="509" y="19"/>
      <point x="517" y="0" type="curve"/>
      <point x="539" y="0" type="line"/>
      <point x="539" y="229" type="line"/>
      <point x="539" y="276"/>
      <point x="540" y="276"/>
      <point x="561" y="278" type="curve" smooth="yes"/>
      <point x="616" y="283" type="line"/>
      <point x="616" y="308" type="line"/>
      <point x="380" y="308" type="line"/>
    </contour>
  </outline>
</glyph>
<glyph name="H" format="1">
  <advance width="716"/>
  <unicode hex="0048"/>
  <outline>
    <contour>
      <point x="664" y="25" type="line"/>
      <point x="609" y="30" type="line" smooth="yes"/>
      <point x="588" y="32"/>
      <point x="587" y="32"/>
      <point x="587" y="79" type="curve"/>
      <point x="587" y="601" type="line"/>
      <point x="587" y="648"/>
      <point x="588" y="648"/>
      <point x="609" y="650" type="curve" smooth="yes"/>
      <point x="664" y="655" type="line"/>
      <point x="664" y="680" type="line"/>
      <point x="445" y="680" type="line"/>
      <point x="445" y="655" type="line"/>
      <point x="500" y="650" type="line" smooth="yes"/>
      <point x="521" y="648"/>
      <point x="522" y="648"/>
      <point x="522" y="601" type="curve"/>
      <point x="522" y="359" type="line"/>
      <point x="194" y="359" type="line"/>
      <point x="194" y="601" type="line"/>
      <point x="194" y="648"/>
      <point x="195" y="648"/>
      <point x="216" y="650" type="curve" smooth="yes"/>
      <point x="271" y="655" type="line"/>
      <point x="271" y="680" type="line"/>
      <point x="52" y="680" type="line"/>
      <point x="52" y="655" type="line"/>
      <point x="107" y="650" type="line" smooth="yes"/>
      <point x="128" y="648"/>
      <point x="129" y="648"/>
      <point x="129" y="601" type="curve"/>
      <point x="129" y="79" type="line"/>
      <point x="129" y="32"/>
      <point x="128" y="32"/>
      <point x="107" y="30" type="curve" smooth="yes"/>
      <point x="52" y="25" type="line"/>
      <point x="52" y="0" type="line"/>
      <point x="271" y="0" type="line"/>
      <point x="271" y="25" type="line"/>
      <point x="216" y="30" type="line" smooth="yes"/>
      <point x="195" y="32"/>
      <point x="194" y="32"/>
      <point x="194" y="79" type="curve"/>
      <point x="194" y="329" type="line"/>
      <point x="522" y="329" type="line"/>
      <point x="522" y="79" type="line"/>
      <point x="522" y="32"/>
      <point x="521" y="32"/>
      <point x="500" y="30" type="curve" smooth="yes"/>
      <point x="445" y="25" type="line"/>
      <point x="445" y="0" type="line"/>
      <point x="664" y="0" type="line"/>
    </contour>
  </outline>
</glyph>
<glyph name="I" format="1">
  <advance width="323"/>
  <unicode hex="0049"/>
  <outline>
    <contour>
      <point x="52" y="655" type="line"/>
      <point x="107" y="650" type="line" smooth="yes"/>
      <point x="128" y="648"/>
      <point x="129" y="648"/>
      <point x="129" y="601" type="curve"/>
      <point x="129" y="79" type="line"/>
      <point x="129" y="32"/>
      <point x="128" y="32"/>
      <point x="107" y="30" type="curve" smooth="yes"/>
      <point x="52" y="25" type="line"/>
      <point x="52" y="0" type="line"/>
      <point x="271" y="0" type="line"/>
      <point x="271" y="25" type="line"/>
      <point x="216" y="30" type="line" smooth="yes"/>
      <point x="195" y="32"/>
      <point x="194" y="32"/>
      <point x="194" y="79" type="curve"/>
      <point x="194" y="601" type="line"/>
      <point x="194" y="648"/>
      <point x="195" y="648"/>
      <point x="216" y="650" type="curve" smooth="yes"/>
      <point x="271" y="655" type="line"/>
      <point x="271" y="680" type="line"/>
      <point x="52" y="680" type="line"/>
    </contour>
  </outline>
</glyph>
<glyph name="J" format="1">
  <advance width="452"/>
  <unicode hex="004A"/>
  <outline>
    <contour>
      <point x="193" y="655" type="line"/>
      <point x="248" y="650" type="line" smooth="yes"/>
      <point x="269" y="648"/>
      <point x="270" y="648"/>
      <point x="270" y="601" type="curve"/>
      <point x="270" y="202" type="line" smooth="yes"/>
      <point x="270" y="61"/>
      <point x="228" y="20"/>
      <point x="165" y="20" type="curve" smooth="yes"/>
      <point x="121" y="20"/>
      <point x="71" y="40"/>
      <point x="67" y="144" type="curve"/>
      <point x="17" y="129" type="line"/>
      <point x="27" y="20"/>
      <point x="100" y="-10"/>
      <point x="167" y="-10" type="curve" smooth="yes"/>
      <point x="297" y="-10"/>
      <point x="335" y="95"/>
      <point x="335" y="202" type="curve" smooth="yes"/>
      <point x="335" y="601" type="line"/>
      <point x="335" y="648"/>
      <point x="336" y="648"/>
      <point x="357" y="650" type="curve" smooth="yes"/>
      <point x="412" y="655" type="line"/>
      <point x="412" y="680" type="line"/>
      <point x="193" y="680" type="line"/>
    </contour>
  </outline>
</glyph>
<glyph name="K" format="1">
  <advance width="636"/>
  <unicode hex="004B"/>
  <outline>
    <contour>
      <point x="52" y="656" type="line"/>
      <point x="107" y="651" type="line" smooth="yes"/>
      <point x="128" y="649"/>
      <point x="129" y="649"/>
      <point x="129" y="602" type="curve"/>
      <point x="129" y="79" type="line"/>
      <point x="129" y="32"/>
      <point x="128" y="32"/>
      <point x="107" y="30" type="curve" smooth="yes"/>
      <point x="52" y="25" type="line"/>
      <point x="52" y="0" type="line"/>
      <point x="271" y="0" type="line"/>
      <point x="271" y="25" type="line"/>
      <point x="216" y="30" type="line" smooth="yes"/>
      <point x="195" y="32"/>
      <point x="194" y="32"/>
      <point x="194" y="79" type="curve"/>
      <point x="194" y="242" type="line"/>
      <point x="282" y="351" type="line"/>
      <point x="495" y="0" type="line"/>
      <point x="627" y="0" type="line"/>
      <point x="627" y="25" type="line"/>
      <point x="577" y="30" type="line" smooth="yes"/>
      <point x="556" y="32"/>
      <point x="555" y="32"/>
      <point x="526" y="79" type="curve" smooth="yes"/>
      <point x="324" y="403" type="line"/>
      <point x="492" y="612" type="line" smooth="yes"/>
      <point x="521" y="648"/>
      <point x="522" y="649"/>
      <point x="541" y="651" type="curve" smooth="yes"/>
      <point x="590" y="656" type="line"/>
      <point x="590" y="680" type="line"/>
      <point x="408" y="680" type="line"/>
      <point x="408" y="656" type="line"/>
      <point x="457" y="651" type="line" smooth="yes"/>
      <point x="480" y="649"/>
      <point x="481" y="648"/>
      <point x="452" y="612" type="curve" smooth="yes"/>
      <point x="194" y="290" type="line"/>
      <point x="194" y="602" type="line"/>
      <point x="194" y="649"/>
      <point x="195" y="649"/>
      <point x="216" y="651" type="curve" smooth="yes"/>
      <point x="271" y="656" type="line"/>
      <point x="271" y="680" type="line"/>
      <point x="52" y="680" type="line"/>
    </contour>
  </outline>
</glyph>
<glyph name="L" format="1">
  <advance width="504"/>
  <unicode hex="004C"/>
  <outline>
    <contour>
      <point x="468" y="161" type="line"/>
      <point x="441" y="56" type="line" smooth="yes"/>
      <point x="435" y="33"/>
      <point x="434" y="30"/>
      <point x="387" y="30" type="curve"/>
      <point x="194" y="30" type="line"/>
      <point x="194" y="601" type="line"/>
      <point x="194" y="648"/>
      <point x="195" y="648"/>
      <point x="216" y="650" type="curve" smooth="yes"/>
      <point x="271" y="655" type="line"/>
      <point x="271" y="680" type="line"/>
      <point x="52" y="680" type="line"/>
      <point x="52" y="655" type="line"/>
      <point x="107" y="650" type="line" smooth="yes"/>
      <point x="128" y="648"/>
      <point x="129" y="648"/>
      <point x="129" y="601" type="curve"/>
      <point x="129" y="79" type="line"/>
      <point x="129" y="32"/>
      <point x="128" y="32"/>
      <point x="107" y="30" type="curve" smooth="yes"/>
      <point x="52" y="25" type="line"/>
      <point x="52" y="0" type="line"/>
      <point x="493" y="0" type="line"/>
      <point x="493" y="161" type="line"/>
    </contour>
  </outline>
</glyph>
<glyph name="M" format="1">
  <advance width="853"/>
  <unicode hex="004D"/>
  <outline>
    <contour>
      <point x="801" y="25" type="line"/>
      <point x="746" y="30" type="line" smooth="yes"/>
      <point x="725" y="32"/>
      <point x="724" y="33"/>
      <point x="724" y="79" type="curve"/>
      <point x="724" y="601" type="line"/>
      <point x="724" y="647"/>
      <point x="725" y="648"/>
      <point x="746" y="650" type="curve" smooth="yes"/>
      <point x="801" y="655" type="line"/>
      <point x="801" y="680" type="line"/>
      <point x="641" y="680" type="line"/>
      <point x="431" y="154" type="line"/>
      <point x="216" y="680" type="line"/>
      <point x="52" y="680" type="line"/>
      <point x="52" y="655" type="line"/>
      <point x="107" y="650" type="line" smooth="yes"/>
      <point x="128" y="648"/>
      <point x="129" y="647"/>
      <point x="129" y="601" type="curve"/>
      <point x="129" y="79" type="line"/>
      <point x="129" y="33"/>
      <point x="128" y="32"/>
      <point x="107" y="30" type="curve" smooth="yes"/>
      <point x="52" y="25" type="line"/>
      <point x="52" y="0" type="line"/>
      <point x="241" y="0" type="line"/>
      <point x="241" y="25" type="line"/>
      <point x="186" y="30" type="line" smooth="yes"/>
      <point x="165" y="32"/>
      <point x="164" y="33"/>
      <point x="164" y="79" type="curve"/>
      <point x="164" y="638" type="line"/>
      <point x="392" y="80" type="line"/>
      <point x="434" y="80" type="line"/>
      <point x="659" y="638" type="line"/>
      <point x="659" y="79" type="line"/>
      <point x="659" y="33"/>
      <point x="658" y="32"/>
      <point x="637" y="30" type="curve" smooth="yes"/>
      <point x="582" y="25" type="line"/>
      <point x="582" y="0" type="line"/>
      <point x="801" y="0" type="line"/>
    </contour>
  </outline>
</glyph>
<glyph name="N" format="1">
  <advance width="695"/>
  <unicode hex="004E"/>
  <outline>
    <contour>
      <point x="459" y="655" type="line"/>
      <point x="514" y="650" type="line" smooth="yes"/>
      <point x="535" y="648"/>
      <point x="536" y="647"/>
      <point x="536" y="601" type="curve"/>
      <point x="536" y="106" type="line"/>
      <point x="206" y="680" type="line"/>
      <point x="52" y="680" type="line"/>
      <point x="52" y="655" type="line"/>
      <point x="107" y="650" type="line" smooth="yes"/>
      <point x="128" y="648"/>
      <point x="129" y="647"/>
      <point x="129" y="601" type="curve"/>
      <point x="129" y="79" type="line"/>
      <point x="129" y="33"/>
      <point x="128" y="32"/>
      <point x="107" y="30" type="curve" smooth="yes"/>
      <point x="52" y="25" type="line"/>
      <point x="52" y="0" type="line"/>
      <point x="241" y="0" type="line"/>
      <point x="241" y="25" type="line"/>
      <point x="186" y="30" type="line" smooth="yes"/>
      <point x="165" y="32"/>
      <point x="164" y="33"/>
      <point x="164" y="79" type="curve"/>
      <point x="164" y="630" type="line"/>
      <point x="526" y="0" type="line"/>
      <point x="571" y="0" type="line"/>
      <point x="571" y="601" type="line"/>
      <point x="571" y="647"/>
      <point x="572" y="648"/>
      <point x="593" y="650" type="curve" smooth="yes"/>
      <point x="648" y="655" type="line"/>
      <point x="648" y="680" type="line"/>
      <point x="459" y="680" type="line"/>
    </contour>
  </outline>
</glyph>
<glyph name="O" format="1">
  <advance width="662"/>
  <unicode hex="004F"/>
  <outline>
    <contour>
      <point x="582" y="382" type="line" smooth="yes"/>
      <point x="582" y="568"/>
      <point x="491" y="690"/>
      <point x="331" y="690" type="curve" smooth="yes"/>
      <point x="170" y="690"/>
      <point x="80" y="568"/>
      <point x="80" y="382" type="curve" smooth="yes"/>
      <point x="80" y="299" type="line" smooth="yes"/>
      <point x="80" y="112"/>
      <point x="170" y="-10"/>
      <point x="331" y="-10" type="curve" smooth="yes"/>
      <point x="491" y="-10"/>
      <point x="582" y="112"/>
      <point x="582" y="299" type="curve" smooth="yes"/>
    </contour>
    <contour>
      <point x="509" y="432" type="curve" smooth="yes"/>
      <point x="509" y="249" type="line" smooth="yes"/>
      <point x="509" y="87"/>
      <point x="445" y="20"/>
      <point x="331" y="20" type="curve" smooth="yes"/>
      <point x="217" y="20"/>
      <point x="153" y="87"/>
      <point x="153" y="249" type="curve" smooth="yes"/>
      <point x="153" y="432" type="line" smooth="yes"/>
      <point x="153" y="595"/>
      <point x="217" y="660"/>
      <point x="331" y="660" type="curve" smooth="yes"/>
      <point x="445" y="660"/>
      <point x="509" y="595"/>
    </contour>
  </outline>
</glyph>
<glyph name="P" format="1">
  <advance width="558"/>
  <unicode hex="0050"/>
  <outline>
    <contour>
      <point x="52" y="655" type="line"/>
      <point x="107" y="650" type="line" smooth="yes"/>
      <point x="128" y="648"/>
      <point x="129" y="648"/>
      <point x="129" y="601" type="curve"/>
      <point x="129" y="79" type="line"/>
      <point x="129" y="32"/>
      <point x="128" y="32"/>
      <point x="107" y="30" type="curve" smooth="yes"/>
      <point x="52" y="25" type="line"/>
      <point x="52" y="0" type="line"/>
      <point x="291" y="0" type="line"/>
      <point x="291" y="25" type="line"/>
      <point x="216" y="30" type="line" smooth="yes"/>
      <point x="195" y="31"/>
      <point x="194" y="32"/>
      <point x="194" y="79" type="curve"/>
      <point x="194" y="290" type="line"/>
      <point x="324" y="290" type="line" smooth="yes"/>
      <point x="447" y="290"/>
      <point x="517" y="361"/>
      <point x="517" y="469" type="curve" smooth="yes"/>
      <point x="517" y="502" type="line" smooth="yes"/>
      <point x="517" y="610"/>
      <point x="447" y="680"/>
      <point x="324" y="680" type="curve" smooth="yes"/>
      <point x="52" y="680" type="line"/>
    </contour>
    <contour>
      <point x="324" y="650" type="line" smooth="yes"/>
      <point x="406" y="650"/>
      <point x="449" y="608"/>
      <point x="449" y="512" type="curve" smooth="yes"/>
      <point x="449" y="459" type="line" smooth="yes"/>
      <point x="449" y="362"/>
      <point x="406" y="320"/>
      <point x="324" y="320" type="curve" smooth="yes"/>
      <point x="194" y="320" type="line"/>
      <point x="194" y="650" type="line"/>
    </contour>
  </outline>
</glyph>
<glyph name="Q" format="1">
  <advance width="662"/>
  <unicode hex="0051"/>
  <outline>
    <contour>
      <point x="556" y="-109" type="line"/>
      <point x="459" y="-109"/>
      <point x="404" y="-90"/>
      <point x="369" y="-8" type="curve"/>
      <point x="505" y="10"/>
      <point x="582" y="127"/>
      <point x="582" y="299" type="curve" smooth="yes"/>
      <point x="582" y="382" type="line" smooth="yes"/>
      <point x="582" y="568"/>
      <point x="491" y="690"/>
      <point x="331" y="690" type="curve" smooth="yes"/>
      <point x="170" y="690"/>
      <point x="80" y="568"/>
      <point x="80" y="382" type="curve" smooth="yes"/>
      <point x="80" y="299" type="line" smooth="yes"/>
      <point x="80" y="112"/>
      <point x="170" y="-10"/>
      <point x="331" y="-10" type="curve" smooth="yes"/>
      <point x="336" y="-10" type="line"/>
      <point x="381" y="-134"/>
      <point x="466" y="-173"/>
      <point x="567" y="-173" type="curve"/>
    </contour>
    <contour>
      <point x="509" y="432" type="curve" smooth="yes"/>
      <point x="509" y="249" type="line" smooth="yes"/>
      <point x="509" y="87"/>
      <point x="445" y="20"/>
      <point x="331" y="20" type="curve" smooth="yes"/>
      <point x="217" y="20"/>
      <point x="153" y="87"/>
      <point x="153" y="249" type="curve" smooth="yes"/>
      <point x="153" y="432" type="line" smooth="yes"/>
      <point x="153" y="595"/>
      <point x="217" y="660"/>
      <point x="331" y="660" type="curve" smooth="yes"/>
      <point x="445" y="660"/>
      <point x="509" y="595"/>
    </contour>
  </outline>
</glyph>
<glyph name="R" format="1">
  <advance width="608"/>
  <unicode hex="0052"/>
  <outline>
    <contour>
      <point x="52" y="655" type="line"/>
      <point x="107" y="650" type="line" smooth="yes"/>
      <point x="128" y="648"/>
      <point x="129" y="648"/>
      <point x="129" y="601" type="curve"/>
      <point x="129" y="79" type="line"/>
      <point x="129" y="32"/>
      <point x="128" y="32"/>
      <point x="107" y="30" type="curve" smooth="yes"/>
      <point x="52" y="25" type="line"/>
      <point x="52" y="0" type="line"/>
      <point x="271" y="0" type="line"/>
      <point x="271" y="25" type="line"/>
      <point x="216" y="30" type="line" smooth="yes"/>
      <point x="195" y="32"/>
      <point x="194" y="32"/>
      <point x="194" y="79" type="curve"/>
      <point x="194" y="308" type="line"/>
      <point x="307" y="308" type="line"/>
      <point x="472" y="0" type="line"/>
      <point x="599" y="0" type="line"/>
      <point x="599" y="25" type="line"/>
      <point x="554" y="30" type="line" smooth="yes"/>
      <point x="533" y="32"/>
      <point x="532" y="32"/>
      <point x="506" y="79" type="curve" smooth="yes"/>
      <point x="375" y="314" type="line"/>
      <point x="460" y="333"/>
      <point x="507" y="393"/>
      <point x="507" y="477" type="curve" smooth="yes"/>
      <point x="507" y="512" type="line" smooth="yes"/>
      <point x="507" y="614"/>
      <point x="437" y="680"/>
      <point x="314" y="680" type="curve" smooth="yes"/>
      <point x="52" y="680" type="line"/>
    </contour>
    <contour>
      <point x="314" y="650" type="line" smooth="yes"/>
      <point x="389" y="650"/>
      <point x="439" y="599"/>
      <point x="439" y="512" type="curve" smooth="yes"/>
      <point x="439" y="477" type="line" smooth="yes"/>
      <point x="439" y="391"/>
      <point x="389" y="338"/>
      <point x="314" y="338" type="curve" smooth="yes"/>
      <point x="194" y="338" type="line"/>
      <point x="194" y="650" type="line"/>
    </contour>
  </outline>
</glyph>
<glyph name="S" format="1">
  <advance width="540"/>
  <unicode hex="0053"/>
  <outline>
    <contour>
      <point x="267" y="20" type="curve" smooth="yes"/>
      <point x="188" y="20"/>
      <point x="112" y="56"/>
      <point x="101" y="191" type="curve"/>
      <point x="46" y="173" type="line"/>
      <point x="70" y="28"/>
      <point x="167" y="-10"/>
      <point x="267" y="-10" type="curve" smooth="yes"/>
      <point x="414" y="-10"/>
      <point x="484" y="72"/>
      <point x="484" y="174" type="curve" smooth="yes"/>
      <point x="484" y="272"/>
      <point x="424" y="341"/>
      <point x="308" y="372" type="curve" smooth="yes"/>
      <point x="255" y="386" type="line" smooth="yes"/>
      <point x="150" y="414"/>
      <point x="118" y="459"/>
      <point x="118" y="527" type="curve" smooth="yes"/>
      <point x="118" y="614"/>
      <point x="173" y="661"/>
      <point x="263" y="661" type="curve" smooth="yes"/>
      <point x="373" y="661"/>
      <point x="415" y="591"/>
      <point x="401" y="467" type="curve"/>
      <point x="464" y="483" type="line"/>
      <point x="483" y="590"/>
      <point x="420" y="690"/>
      <point x="262" y="690" type="curve" smooth="yes"/>
      <point x="120" y="690"/>
      <point x="58" y="604"/>
      <point x="58" y="512" type="curve" smooth="yes"/>
      <point x="58" y="421"/>
      <point x="112" y="354"/>
      <point x="221" y="325" type="curve" smooth="yes"/>
      <point x="274" y="311" type="line" smooth="yes"/>
      <point x="385" y="282"/>
      <point x="424" y="233"/>
      <point x="424" y="159" type="curve" smooth="yes"/>
      <point x="424" y="69"/>
      <point x="362" y="20"/>
    </contour>
  </outline>
</glyph>
<glyph name="U" format="1">
  <advance width="673"/>
  <unicode hex="0055"/>
  <outline>
    <contour>
      <point x="446" y="655" type="line"/>
      <point x="501" y="650" type="line" smooth="yes"/>
      <point x="522" y="648"/>
      <point x="523" y="648"/>
      <point x="523" y="601" type="curve"/>
      <point x="523" y="231" type="line" smooth="yes"/>
      <point x="523" y="103"/>
      <point x="469" y="21"/>
      <point x="347" y="21" type="curve" smooth="yes"/>
      <point x="230" y="21"/>
      <point x="180" y="92"/>
      <point x="180" y="231" type="curve" smooth="yes"/>
      <point x="180" y="601" type="line"/>
      <point x="180" y="648"/>
      <point x="181" y="648"/>
      <point x="202" y="650" type="curve" smooth="yes"/>
      <point x="257" y="655" type="line"/>
      <point x="257" y="680" type="line"/>
      <point x="38" y="680" type="line"/>
      <point x="38" y="655" type="line"/>
      <point x="93" y="650" type="line" smooth="yes"/>
      <point x="114" y="648"/>
      <point x="115" y="648"/>
      <point x="115" y="601" type="curve"/>
      <point x="115" y="251" type="line" smooth="yes"/>
      <point x="115" y="93"/>
      <point x="187" y="-10"/>
      <point x="341" y="-10" type="curve" smooth="yes"/>
      <point x="488" y="-10"/>
      <point x="558" y="85"/>
      <point x="558" y="231" type="curve" smooth="yes"/>
      <point x="558" y="601" type="line"/>
      <point x="558" y="648"/>
      <point x="559" y="648"/>
      <point x="580" y="650" type="curve" smooth="yes"/>
      <point x="635" y="655" type="line"/>
      <point x="635" y="680" type="line"/>
      <point x="446" y="680" type="line"/>
    </contour>
  </outline>
</glyph>
<glyph name="V" format="1">
  <advance width="612"/>
  <unicode hex="0056"/>
  <outline>
    <contour>
      <point x="531" y="611" type="line" smooth="yes"/>
      <point x="543" y="648"/>
      <point x="544" y="648"/>
      <point x="563" y="650" type="curve" smooth="yes"/>
      <point x="612" y="655" type="line"/>
      <point x="612" y="680" type="line"/>
      <point x="437" y="680" type="line"/>
      <point x="437" y="655" type="line"/>
      <point x="486" y="650" type="line" smooth="yes"/>
      <point x="508" y="648"/>
      <point x="509" y="647"/>
      <point x="497" y="611" type="curve" smooth="yes"/>
      <point x="323" y="66" type="line"/>
      <point x="149" y="611" type="line" smooth="yes"/>
      <point x="138" y="647"/>
      <point x="139" y="648"/>
      <point x="160" y="650" type="curve" smooth="yes"/>
      <point x="209" y="655" type="line"/>
      <point x="209" y="680" type="line"/>
      <point x="0" y="680" type="line"/>
      <point x="0" y="655" type="line"/>
      <point x="49" y="650" type="line" smooth="yes"/>
      <point x="70" y="648"/>
      <point x="70" y="648"/>
      <point x="82" y="611" type="curve" smooth="yes"/>
      <point x="279" y="0" type="line"/>
      <point x="334" y="0" type="line"/>
    </contour>
  </outline>
</glyph>
<glyph name="W" format="1">
  <advance width="911.0"/>
  <unicode hex="0057"/>
  <outline>
    <contour>
      <point x="632" y="0" type="line"/>
      <point x="682" y="0" type="line"/>
      <point x="833" y="611" type="line" smooth="yes"/>
      <point x="842" y="648"/>
      <point x="844" y="648"/>
      <point x="862" y="650" type="curve" smooth="yes"/>
      <point x="911" y="655" type="line"/>
      <point x="911" y="680" type="line"/>
      <point x="737" y="680" type="line"/>
      <point x="737" y="655" type="line"/>
      <point x="786" y="650" type="line" smooth="yes"/>
      <point x="807" y="648"/>
      <point x="808" y="647"/>
      <point x="799" y="611" type="curve" smooth="yes"/>
      <point x="671" y="90" type="line"/>
      <point x="497" y="680" type="line"/>
      <point x="449" y="680" type="line"/>
      <point x="272" y="86" type="line"/>
      <point x="143" y="611" type="line" smooth="yes"/>
      <point x="134" y="647"/>
      <point x="135" y="648"/>
      <point x="156" y="650" type="curve" smooth="yes"/>
      <point x="205" y="655" type="line"/>
      <point x="205" y="680" type="line"/>
      <point x="0" y="680" type="line"/>
      <point x="0" y="655" type="line"/>
      <point x="49" y="650" type="line" smooth="yes"/>
      <point x="69" y="648"/>
      <point x="70" y="647"/>
      <point x="79" y="611" type="curve" smooth="yes"/>
      <point x="230" y="0" type="line"/>
      <point x="281" y="0" type="line"/>
      <point x="458" y="591" type="line"/>
    </contour>
  </outline>
</glyph>
<glyph name="X" format="1">
  <advance width="583"/>
  <unicode hex="0058"/>
  <outline>
    <contour>
      <point x="182" y="25" type="line"/>
      <point x="133" y="30" type="line" smooth="yes"/>
      <point x="112" y="32"/>
      <point x="112" y="34"/>
      <point x="133" y="69" type="curve" smooth="yes"/>
      <point x="278" y="308" type="line"/>
      <point x="417" y="69" type="line" smooth="yes"/>
      <point x="438" y="33"/>
      <point x="436" y="32"/>
      <point x="415" y="30" type="curve" smooth="yes"/>
      <point x="366" y="25" type="line"/>
      <point x="366" y="0" type="line"/>
      <point x="580" y="0" type="line"/>
      <point x="580" y="25" type="line"/>
      <point x="531" y="30" type="line" smooth="yes"/>
      <point x="511" y="32"/>
      <point x="510" y="33"/>
      <point x="489" y="69" type="curve" smooth="yes"/>
      <point x="322" y="358" type="line"/>
      <point x="477" y="611" type="line" smooth="yes"/>
      <point x="499" y="648"/>
      <point x="501" y="648"/>
      <point x="520" y="650" type="curve" smooth="yes"/>
      <point x="569" y="655" type="line"/>
      <point x="569" y="680" type="line"/>
      <point x="390" y="680" type="line"/>
      <point x="390" y="655" type="line"/>
      <point x="439" y="650" type="line" smooth="yes"/>
      <point x="460" y="648"/>
      <point x="461" y="646"/>
      <point x="439" y="611" type="curve" smooth="yes"/>
      <point x="304" y="389" type="line"/>
      <point x="175" y="611" type="line" smooth="yes"/>
      <point x="154" y="647"/>
      <point x="156" y="648"/>
      <point x="177" y="650" type="curve" smooth="yes"/>
      <point x="226" y="655" type="line"/>
      <point x="226" y="680" type="line"/>
      <point x="12" y="680" type="line"/>
      <point x="12" y="655" type="line"/>
      <point x="61" y="650" type="line" smooth="yes"/>
      <point x="80" y="648"/>
      <point x="81" y="648"/>
      <point x="102" y="611" type="curve"/>
      <point x="260" y="339" type="line"/>
      <point x="95" y="69" type="line" smooth="yes"/>
      <point x="73" y="32"/>
      <point x="71" y="32"/>
      <point x="52" y="30" type="curve" smooth="yes"/>
      <point x="3" y="25" type="line"/>
      <point x="3" y="0" type="line"/>
      <point x="182" y="0" type="line"/>
    </contour>
  </outline>
</glyph>
<glyph name="Y" format="1">
  <advance width="570"/>
  <unicode hex="0059"/>
  <outline>
    <contour>
      <point x="395" y="25" type="line"/>
      <point x="340" y="30" type="line" smooth="yes"/>
      <point x="319" y="32"/>
      <point x="318" y="32"/>
      <point x="318" y="79" type="curve"/>
      <point x="318" y="290" type="line"/>
      <point x="480" y="611" type="line" smooth="yes"/>
      <point x="498" y="647"/>
      <point x="499" y="648"/>
      <point x="521" y="650" type="curve" smooth="yes"/>
      <point x="570" y="655" type="line"/>
      <point x="570" y="680" type="line"/>
      <point x="392" y="680" type="line"/>
      <point x="392" y="655" type="line"/>
      <point x="441" y="650" type="line" smooth="yes"/>
      <point x="461" y="648"/>
      <point x="462" y="647"/>
      <point x="444" y="611" type="curve" smooth="yes"/>
      <point x="303" y="328" type="line"/>
      <point x="162" y="611" type="line" smooth="yes"/>
      <point x="144" y="647"/>
      <point x="145" y="648"/>
      <point x="165" y="650" type="curve" smooth="yes"/>
      <point x="214" y="655" type="line"/>
      <point x="214" y="680" type="line"/>
      <point x="0" y="680" type="line"/>
      <point x="0" y="655" type="line"/>
      <point x="49" y="650" type="line" smooth="yes"/>
      <point x="70" y="648"/>
      <point x="72" y="647"/>
      <point x="90" y="611" type="curve" smooth="yes"/>
      <point x="253" y="290" type="line"/>
      <point x="253" y="79" type="line"/>
      <point x="253" y="32"/>
      <point x="252" y="32"/>
      <point x="231" y="30" type="curve" smooth="yes"/>
      <point x="176" y="25" type="line"/>
      <point x="176" y="0" type="line"/>
      <point x="395" y="0" type="line"/>
    </contour>
  </outline>
</glyph>
<glyph name="Z" format="1">
  <advance width="522"/>
  <unicode hex="005A"/>
  <outline>
    <contour>
      <point x="456" y="157" type="line"/>
      <point x="429" y="56" type="line" smooth="yes"/>
      <point x="423" y="33"/>
      <point x="422" y="30"/>
      <point x="375" y="30" type="curve"/>
      <point x="117" y="30" type="line"/>
      <point x="471" y="660" type="line"/>
      <point x="471" y="680" type="line"/>
      <point x="51" y="680" type="line"/>
      <point x="51" y="523" type="line"/>
      <point x="76" y="523" type="line"/>
      <point x="103" y="624" type="line" smooth="yes"/>
      <point x="109" y="647"/>
      <point x="110" y="650"/>
      <point x="157" y="650" type="curve"/>
      <point x="395" y="650" type="line"/>
      <point x="41" y="20" type="line"/>
      <point x="41" y="0" type="line"/>
      <point x="481" y="0" type="line"/>
      <point x="481" y="157" type="line"/>
    </contour>
  </outline>
</glyph>
<glyph name="bracketleft" format="1">
  <advance width="360"/>
  <unicode hex="005B"/>
  <outline>
    <contour>
      <point x="333" y="710" type="line"/>
      <point x="333" y="740" type="line"/>
      <point x="108" y="740" type="line"/>
      <point x="108" y="-143" type="line"/>
      <point x="333" y="-143" type="line"/>
      <point x="333" y="-113" type="line"/>
      <point x="168" y="-113" type="line"/>
      <point x="168" y="710" type="line"/>
    </contour>
  </outline>
</glyph>
<glyph name="backslash" format="1">
  <advance width="383"/>
  <unicode hex="005C"/>
  <outline>
    <contour>
      <point x="52" y="740" type="line"/>
      <point x="18" y="725" type="line"/>
      <point x="364" y="-143" type="line"/>
      <point x="398" y="-128" type="line"/>
    </contour>
  </outline>
</glyph>
<glyph name="bracketright" format="1">
  <advance width="360"/>
  <unicode hex="005D"/>
  <outline>
    <contour>
      <point x="27" y="740" type="line"/>
      <point x="27" y="710" type="line"/>
      <point x="192" y="710" type="line"/>
      <point x="192" y="-113" type="line"/>
      <point x="27" y="-113" type="line"/>
      <point x="27" y="-143" type="line"/>
      <point x="252" y="-143" type="line"/>
      <point x="252" y="740" type="line"/>
    </contour>
  </outline>
</glyph>
<glyph name="underscore" format="1">
  <advance width="404"/>
  <unicode hex="005F"/>
  <outline>
    <contour>
      <point x="20" y="-143" type="line"/>
      <point x="384" y="-143" type="line"/>
      <point x="384" y="-109" type="line"/>
      <point x="20" y="-109" type="line"/>
    </contour>
  </outline>
</glyph>
<glyph name="grave" format="1">
  <advance width="500"/>
  <unicode hex="0060"/>
  <outline>
    <contour>
      <point x="251" y="579" type="curve"/>
      <point x="270" y="598" type="line"/>
      <point x="234" y="643"/>
      <point x="216" y="678"/>
      <point x="199" y="740" type="curve"/>
      <point x="123" y="740" type="line"/>
      <point x="159" y="681"/>
      <point x="200" y="629"/>
    </contour>
  </outline>
</glyph>
<glyph name="a" format="1">
  <advance width="542"/>
  <unicode hex="0061"/>
  <outline>
    <contour>
      <point x="452" y="-5" type="curve" smooth="yes"/>
      <point x="486" y="-5"/>
      <point x="511" y="7"/>
      <point x="530" y="24" type="curve"/>
      <point x="512" y="48" type="line"/>
      <point x="497" y="35"/>
      <point x="482" y="30"/>
      <point x="471" y="30" type="curve" smooth="yes"/>
      <point x="449" y="30"/>
      <point x="428" y="39"/>
      <point x="428" y="107" type="curve" smooth="yes"/>
      <point x="428" y="328" type="line" smooth="yes"/>
      <point x="428" y="417"/>
      <point x="393" y="497"/>
      <point x="255" y="497" type="curve" smooth="yes"/>
      <point x="140" y="497"/>
      <point x="83" y="429"/>
      <point x="91" y="336" type="curve"/>
      <point x="149" y="326" type="line"/>
      <point x="136" y="440"/>
      <point x="184" y="467"/>
      <point x="253" y="467" type="curve" smooth="yes"/>
      <point x="324" y="467"/>
      <point x="368" y="434"/>
      <point x="368" y="328" type="curve" smooth="yes"/>
      <point x="368" y="247" type="line"/>
      <point x="241" y="247" type="line" smooth="yes"/>
      <point x="116" y="247"/>
      <point x="69" y="201"/>
      <point x="69" y="122" type="curve" smooth="yes"/>
      <point x="69" y="51"/>
      <point x="110" y="-10"/>
      <point x="204" y="-10" type="curve" smooth="yes"/>
      <point x="260" y="-10"/>
      <point x="320" y="13"/>
      <point x="369" y="69" type="curve"/>
      <point x="376" y="22"/>
      <point x="406" y="-5"/>
    </contour>
    <contour>
      <point x="221" y="25" type="curve" smooth="yes"/>
      <point x="161" y="25"/>
      <point x="132" y="63"/>
      <point x="132" y="127" type="curve" smooth="yes"/>
      <point x="132" y="189"/>
      <point x="167" y="217"/>
      <point x="249" y="217" type="curve" smooth="yes"/>
      <point x="368" y="217" type="line"/>
      <point x="368" y="112" type="line"/>
      <point x="311" y="39"/>
      <point x="260" y="25"/>
    </contour>
  </outline>
</glyph>
<glyph name="b" format="1">
  <advance width="571"/>
  <unicode hex="0062"/>
  <outline>
    <contour>
      <point x="30" y="715" type="line"/>
      <point x="85" y="710" type="line" smooth="yes"/>
      <point x="106" y="708"/>
      <point x="107" y="708"/>
      <point x="107" y="661" type="curve"/>
      <point x="107" y="-5" type="line"/>
      <point x="129" y="-5" type="line"/>
      <point x="140" y="15"/>
      <point x="150" y="33"/>
      <point x="166" y="46" type="curve"/>
      <point x="200" y="8"/>
      <point x="245" y="-10"/>
      <point x="296" y="-10" type="curve" smooth="yes"/>
      <point x="424" y="-10"/>
      <point x="499" y="85"/>
      <point x="499" y="234" type="curve" smooth="yes"/>
      <point x="499" y="254" type="line" smooth="yes"/>
      <point x="499" y="408"/>
      <point x="436" y="497"/>
      <point x="319" y="497" type="curve" smooth="yes"/>
      <point x="261" y="497"/>
      <point x="209" y="475"/>
      <point x="167" y="417" type="curve"/>
      <point x="167" y="740" type="line"/>
      <point x="30" y="740" type="line"/>
    </contour>
    <contour>
      <point x="315" y="467" type="curve" smooth="yes"/>
      <point x="389" y="467"/>
      <point x="431" y="411"/>
      <point x="431" y="284" type="curve" smooth="yes"/>
      <point x="431" y="204" type="line" smooth="yes"/>
      <point x="431" y="89"/>
      <point x="390" y="20"/>
      <point x="296" y="20" type="curve" smooth="yes"/>
      <point x="241" y="20"/>
      <point x="199" y="44"/>
      <point x="167" y="96" type="curve"/>
      <point x="167" y="367" type="line"/>
      <point x="215" y="447"/>
      <point x="268" y="467"/>
    </contour>
  </outline>
</glyph>
<glyph name="c" format="1">
  <advance width="502.0"/>
  <unicode hex="0063"/>
  <outline>
    <contour>
      <point x="269" y="467" type="curve" smooth="yes"/>
      <point x="355" y="467"/>
      <point x="395" y="411"/>
      <point x="381" y="309" type="curve"/>
      <point x="438" y="318" type="line"/>
      <point x="454" y="420"/>
      <point x="389" y="497"/>
      <point x="269" y="497" type="curve" smooth="yes"/>
      <point x="140" y="497"/>
      <point x="71" y="401"/>
      <point x="71" y="254" type="curve" smooth="yes"/>
      <point x="71" y="234" type="line" smooth="yes"/>
      <point x="71" y="86"/>
      <point x="138" y="-10"/>
      <point x="274" y="-10" type="curve" smooth="yes"/>
      <point x="349" y="-10"/>
      <point x="421" y="22"/>
      <point x="445" y="111" type="curve"/>
      <point x="399" y="124" type="line"/>
      <point x="382" y="47"/>
      <point x="343" y="20"/>
      <point x="279" y="20" type="curve" smooth="yes"/>
      <point x="179" y="20"/>
      <point x="139" y="76"/>
      <point x="139" y="214" type="curve" smooth="yes"/>
      <point x="139" y="274" type="line" smooth="yes"/>
      <point x="139" y="412"/>
      <point x="187" y="467"/>
    </contour>
  </outline>
</glyph>
<glyph name="e" format="1">
  <advance width="523"/>
  <unicode hex="0065"/>
  <outline>
    <contour>
      <point x="453" y="111" type="curve"/>
      <point x="407" y="124" type="line"/>
      <point x="390" y="47"/>
      <point x="348" y="20"/>
      <point x="283" y="20" type="curve" smooth="yes"/>
      <point x="180" y="20"/>
      <point x="139" y="76"/>
      <point x="139" y="214" type="curve" smooth="yes"/>
      <point x="139" y="245" type="line"/>
      <point x="452" y="245" type="line"/>
      <point x="456" y="267"/>
      <point x="458" y="287"/>
      <point x="458" y="306" type="curve" smooth="yes"/>
      <point x="458" y="435"/>
      <point x="370" y="497"/>
      <point x="269" y="497" type="curve" smooth="yes"/>
      <point x="139" y="497"/>
      <point x="71" y="401"/>
      <point x="71" y="254" type="curve" smooth="yes"/>
      <point x="71" y="234" type="line" smooth="yes"/>
      <point x="71" y="86"/>
      <point x="139" y="-10"/>
      <point x="278" y="-10" type="curve" smooth="yes"/>
      <point x="355" y="-10"/>
      <point x="429" y="22"/>
    </contour>
    <contour>
      <point x="269" y="467" type="curve" smooth="yes"/>
      <point x="344" y="467"/>
      <point x="395" y="423"/>
      <point x="395" y="314" type="curve" smooth="yes"/>
      <point x="395" y="303"/>
      <point x="394" y="291"/>
      <point x="393" y="275" type="curve"/>
      <point x="139" y="275" type="line"/>
      <point x="139" y="412"/>
      <point x="181" y="467"/>
    </contour>
  </outline>
</glyph>
<glyph name="f" format="1">
  <advance width="355.2442639119973"/>
  <unicode hex="0066"/>
  <outline>
    <contour>
      <point x="278" y="25" type="line"/>
      <point x="203" y="30" type="line" smooth="yes"/>
      <point x="182" y="31"/>
      <point x="181" y="32"/>
      <point x="181" y="79" type="curve"/>
      <point x="181" y="457" type="line"/>
      <point x="346" y="457" type="line"/>
      <point x="346" y="487" type="line"/>
      <point x="181" y="487" type="line"/>
      <point x="181" y="581" type="line" smooth="yes"/>
      <point x="181" y="693"/>
      <point x="214" y="720"/>
      <point x="274" y="720" type="curve" smooth="yes"/>
      <point x="343" y="720"/>
      <point x="371" y="673"/>
      <point x="359" y="586" type="curve"/>
      <point x="416" y="595" type="line"/>
      <point x="430" y="684"/>
      <point x="378" y="750"/>
      <point x="274" y="750" type="curve" smooth="yes"/>
      <point x="153" y="750"/>
      <point x="121" y="665"/>
      <point x="121" y="571" type="curve" smooth="yes"/>
      <point x="121" y="487" type="line"/>
      <point x="44" y="487" type="line"/>
      <point x="44" y="462" type="line"/>
      <point x="99" y="457" type="line" smooth="yes"/>
      <point x="121" y="455"/>
      <point x="121" y="455"/>
      <point x="121" y="408" type="curve"/>
      <point x="121" y="79" type="line"/>
      <point x="121" y="32"/>
      <point x="120" y="32"/>
      <point x="99" y="30" type="curve" smooth="yes"/>
      <point x="44" y="25" type="line"/>
      <point x="44" y="0" type="line"/>
      <point x="278" y="0" type="line"/>
    </contour>
  </outline>
</glyph>
<glyph name="g" format="1">
  <advance width="546"/>
  <unicode hex="0067"/>
  <outline>
    <contour>
      <point x="495" y="-63" type="curve" smooth="yes"/>
      <point x="495" y="21"/>
      <point x="441" y="63"/>
      <point x="342" y="63" type="curve" smooth="yes"/>
      <point x="212" y="63" type="line" smooth="yes"/>
      <point x="169" y="63"/>
      <point x="151" y="84"/>
      <point x="151" y="114" type="curve" smooth="yes"/>
      <point x="151" y="139"/>
      <point x="165" y="162"/>
      <point x="191" y="180" type="curve"/>
      <point x="211" y="174"/>
      <point x="234" y="171"/>
      <point x="258" y="171" type="curve" smooth="yes"/>
      <point x="275" y="171" type="line" smooth="yes"/>
      <point x="376" y="171"/>
      <point x="458" y="228"/>
      <point x="458" y="333" type="curve" smooth="yes"/>
      <point x="458" y="386"/>
      <point x="439" y="427"/>
      <point x="407" y="454" type="curve"/>
      <point x="528" y="454" type="line"/>
      <point x="518" y="513" type="line"/>
      <point x="373" y="476" type="line"/>
      <point x="345" y="490"/>
      <point x="311" y="497"/>
      <point x="275" y="497" type="curve" smooth="yes"/>
      <point x="258" y="497" type="line" smooth="yes"/>
      <point x="156" y="497"/>
      <point x="74" y="443"/>
      <point x="74" y="333" type="curve" smooth="yes"/>
      <point x="74" y="265"/>
      <point x="108" y="218"/>
      <point x="159" y="192" type="curve"/>
      <point x="122" y="162"/>
      <point x="105" y="131"/>
      <point x="105" y="93" type="curve" smooth="yes"/>
      <point x="105" y="46"/>
      <point x="137" y="4"/>
      <point x="215" y="4" type="curve" smooth="yes"/>
      <point x="337" y="4" type="line" smooth="yes"/>
      <point x="420" y="4"/>
      <point x="454" y="-25"/>
      <point x="454" y="-80" type="curve" smooth="yes"/>
      <point x="454" y="-155"/>
      <point x="384" y="-193"/>
      <point x="280" y="-193" type="curve" smooth="yes"/>
      <point x="160" y="-193"/>
      <point x="118" y="-143"/>
      <point x="122" y="-67" type="curve"/>
      <point x="70" y="-82" type="line"/>
      <point x="69" y="-164"/>
      <point x="131" y="-223"/>
      <point x="280" y="-223" type="curve" smooth="yes"/>
      <point x="415" y="-223"/>
      <point x="495" y="-168"/>
    </contour>
    <contour>
      <point x="275" y="201" type="curve" smooth="yes"/>
      <point x="258" y="201" type="line" smooth="yes"/>
      <point x="196" y="201"/>
      <point x="142" y="229"/>
      <point x="142" y="333" type="curve" smooth="yes"/>
      <point x="142" y="438"/>
      <point x="196" y="467"/>
      <point x="258" y="467" type="curve" smooth="yes"/>
      <point x="275" y="467" type="line" smooth="yes"/>
      <point x="336" y="467"/>
      <point x="390" y="438"/>
      <point x="390" y="333" type="curve" smooth="yes"/>
      <point x="390" y="229"/>
      <point x="336" y="201"/>
    </contour>
  </outline>
</glyph>
<glyph name="i" format="1">
  <advance width="294"/>
  <unicode hex="0069"/>
  <outline>
    <contour>
      <point x="149" y="617" type="curve" smooth="yes"/>
      <point x="176" y="617"/>
      <point x="195" y="636"/>
      <point x="195" y="663" type="curve" smooth="yes"/>
      <point x="195" y="689"/>
      <point x="176" y="708"/>
      <point x="149" y="708" type="curve" smooth="yes"/>
      <point x="123" y="708"/>
      <point x="104" y="689"/>
      <point x="104" y="663" type="curve" smooth="yes"/>
      <point x="104" y="636"/>
      <point x="123" y="617"/>
    </contour>
    <contour>
      <point x="43" y="462" type="line"/>
      <point x="98" y="457" type="line" smooth="yes"/>
      <point x="119" y="455"/>
      <point x="120" y="455"/>
      <point x="120" y="408" type="curve"/>
      <point x="120" y="79" type="line"/>
      <point x="120" y="32"/>
      <point x="119" y="32"/>
      <point x="98" y="30" type="curve" smooth="yes"/>
      <point x="43" y="25" type="line"/>
      <point x="43" y="0" type="line"/>
      <point x="257" y="0" type="line"/>
      <point x="257" y="25" type="line"/>
      <point x="202" y="30" type="line" smooth="yes"/>
      <point x="181" y="32"/>
      <point x="180" y="32"/>
      <point x="180" y="79" type="curve"/>
      <point x="180" y="487" type="line"/>
      <point x="43" y="487" type="line"/>
    </contour>
  </outline>
</glyph>
<glyph name="j" format="1">
  <advance width="280"/>
  <unicode hex="006A"/>
  <outline>
    <contour>
      <point x="142" y="617" type="curve" smooth="yes"/>
      <point x="169" y="617"/>
      <point x="188" y="636"/>
      <point x="188" y="663" type="curve" smooth="yes"/>
      <point x="188" y="689"/>
      <point x="169" y="708"/>
      <point x="142" y="708" type="curve" smooth="yes"/>
      <point x="116" y="708"/>
      <point x="97" y="689"/>
      <point x="97" y="663" type="curve" smooth="yes"/>
      <point x="97" y="636"/>
      <point x="116" y="617"/>
    </contour>
    <contour>
      <point x="36" y="462" type="line"/>
      <point x="91" y="457" type="line" smooth="yes"/>
      <point x="112" y="455"/>
      <point x="113" y="455"/>
      <point x="113" y="408" type="curve"/>
      <point x="113" y="-64" type="line" smooth="yes"/>
      <point x="113" y="-167"/>
      <point x="87" y="-193"/>
      <point x="38" y="-193" type="curve" smooth="yes"/>
      <point x="-2" y="-193"/>
      <point x="-26" y="-170"/>
      <point x="-31" y="-99" type="curve"/>
      <point x="-80" y="-111" type="line"/>
      <point x="-67" y="-192"/>
      <point x="-21" y="-223"/>
      <point x="41" y="-223" type="curve" smooth="yes"/>
      <point x="137" y="-223"/>
      <point x="173" y="-148"/>
      <point x="173" y="-64" type="curve" smooth="yes"/>
      <point x="173" y="487" type="line"/>
      <point x="36" y="487" type="line"/>
    </contour>
  </outline>
</glyph>
<glyph name="k" format="1">
  <advance width="546"/>
  <unicode hex="006B"/>
  <outline>
    <contour>
      <point x="37" y="715" type="line"/>
      <point x="92" y="710" type="line" smooth="yes"/>
      <point x="113" y="708"/>
      <point x="114" y="708"/>
      <point x="114" y="661" type="curve"/>
      <point x="114" y="79" type="line"/>
      <point x="114" y="32"/>
      <point x="113" y="32"/>
      <point x="92" y="30" type="curve" smooth="yes"/>
      <point x="37" y="25" type="line"/>
      <point x="37" y="0" type="line"/>
      <point x="251" y="0" type="line"/>
      <point x="251" y="25" type="line"/>
      <point x="196" y="30" type="line" smooth="yes"/>
      <point x="175" y="32"/>
      <point x="174" y="32"/>
      <point x="174" y="79" type="curve"/>
      <point x="174" y="165" type="line"/>
      <point x="256" y="251" type="line"/>
      <point x="419" y="0" type="line"/>
      <point x="542" y="0" type="line"/>
      <point x="542" y="25" type="line"/>
      <point x="493" y="30" type="line" smooth="yes"/>
      <point x="472" y="32"/>
      <point x="471" y="33"/>
      <point x="447" y="69" type="curve" smooth="yes"/>
      <point x="297" y="294" type="line"/>
      <point x="416" y="418" type="line" smooth="yes"/>
      <point x="451" y="454"/>
      <point x="452" y="455"/>
      <point x="471" y="457" type="curve" smooth="yes"/>
      <point x="520" y="462" type="line"/>
      <point x="520" y="487" type="line"/>
      <point x="334" y="487" type="line"/>
      <point x="334" y="462" type="line"/>
      <point x="383" y="457" type="line" smooth="yes"/>
      <point x="405" y="455"/>
      <point x="406" y="454"/>
      <point x="372" y="418" type="curve" smooth="yes"/>
      <point x="174" y="210" type="line"/>
      <point x="174" y="740" type="line"/>
      <point x="37" y="740" type="line"/>
    </contour>
  </outline>
</glyph>
<glyph name="l" format="1">
  <advance width="288"/>
  <unicode hex="006C"/>
  <outline>
    <contour>
      <point x="37" y="715" type="line"/>
      <point x="92" y="710" type="line" smooth="yes"/>
      <point x="113" y="708"/>
      <point x="114" y="708"/>
      <point x="114" y="661" type="curve"/>
      <point x="114" y="79" type="line"/>
      <point x="114" y="32"/>
      <point x="113" y="32"/>
      <point x="92" y="30" type="curve" smooth="yes"/>
      <point x="37" y="25" type="line"/>
      <point x="37" y="0" type="line"/>
      <point x="251" y="0" type="line"/>
      <point x="251" y="25" type="line"/>
      <point x="196" y="30" type="line" smooth="yes"/>
      <point x="175" y="32"/>
      <point x="174" y="32"/>
      <point x="174" y="79" type="curve"/>
      <point x="174" y="740" type="line"/>
      <point x="37" y="740" type="line"/>
    </contour>
  </outline>
</glyph>
<glyph name="m" format="1">
  <advance width="918"/>
  <unicode hex="006D"/>
  <outline>
    <contour>
      <point x="572" y="25" type="line"/>
      <point x="517" y="30" type="line" smooth="yes"/>
      <point x="496" y="32"/>
      <point x="495" y="32"/>
      <point x="495" y="79" type="curve"/>
      <point x="495" y="327" type="line" smooth="yes"/>
      <point x="495" y="342"/>
      <point x="494" y="356"/>
      <point x="492" y="369" type="curve"/>
      <point x="549" y="441"/>
      <point x="605" y="463"/>
      <point x="655" y="463" type="curve" smooth="yes"/>
      <point x="716" y="463"/>
      <point x="750" y="429"/>
      <point x="750" y="326" type="curve" smooth="yes"/>
      <point x="750" y="79" type="line"/>
      <point x="750" y="32"/>
      <point x="749" y="32"/>
      <point x="728" y="30" type="curve" smooth="yes"/>
      <point x="673" y="25" type="line"/>
      <point x="673" y="0" type="line"/>
      <point x="887" y="0" type="line"/>
      <point x="887" y="25" type="line"/>
      <point x="832" y="30" type="line" smooth="yes"/>
      <point x="811" y="32"/>
      <point x="810" y="32"/>
      <point x="810" y="79" type="curve"/>
      <point x="810" y="327" type="line" smooth="yes"/>
      <point x="810" y="435"/>
      <point x="759" y="497"/>
      <point x="664" y="497" type="curve" smooth="yes"/>
      <point x="603" y="497"/>
      <point x="539" y="469"/>
      <point x="485" y="402" type="curve"/>
      <point x="465" y="463"/>
      <point x="419" y="497"/>
      <point x="349" y="497" type="curve" smooth="yes"/>
      <point x="290" y="497"/>
      <point x="229" y="471"/>
      <point x="176" y="409" type="curve"/>
      <point x="176" y="487" type="line"/>
      <point x="43" y="487" type="line"/>
      <point x="43" y="462" type="line"/>
      <point x="98" y="457" type="line" smooth="yes"/>
      <point x="119" y="455"/>
      <point x="120" y="455"/>
      <point x="120" y="408" type="curve"/>
      <point x="120" y="79" type="line"/>
      <point x="120" y="32"/>
      <point x="119" y="32"/>
      <point x="98" y="30" type="curve" smooth="yes"/>
      <point x="43" y="25" type="line"/>
      <point x="43" y="0" type="line"/>
      <point x="257" y="0" type="line"/>
      <point x="257" y="25" type="line"/>
      <point x="202" y="30" type="line" smooth="yes"/>
      <point x="181" y="32"/>
      <point x="180" y="32"/>
      <point x="180" y="79" type="curve"/>
      <point x="180" y="372" type="line"/>
      <point x="236" y="442"/>
      <point x="291" y="463"/>
      <point x="340" y="463" type="curve" smooth="yes"/>
      <point x="401" y="463"/>
      <point x="435" y="429"/>
      <point x="435" y="326" type="curve" smooth="yes"/>
      <point x="435" y="79" type="line"/>
      <point x="435" y="32"/>
      <point x="434" y="32"/>
      <point x="413" y="30" type="curve" smooth="yes"/>
      <point x="358" y="25" type="line"/>
      <point x="358" y="0" type="line"/>
      <point x="572" y="0" type="line"/>
    </contour>
  </outline>
</glyph>
<glyph name="n" format="1">
  <advance width="613"/>
  <unicode hex="006E"/>
  <outline>
    <contour>
      <point x="582" y="25" type="line"/>
      <point x="527" y="30" type="line" smooth="yes"/>
      <point x="506" y="32"/>
      <point x="505" y="32"/>
      <point x="505" y="79" type="curve"/>
      <point x="505" y="327" type="line" smooth="yes"/>
      <point x="505" y="435"/>
      <point x="452" y="497"/>
      <point x="354" y="497" type="curve" smooth="yes"/>
      <point x="293" y="497"/>
      <point x="230" y="471"/>
      <point x="176" y="409" type="curve"/>
      <point x="176" y="487" type="line"/>
      <point x="43" y="487" type="line"/>
      <point x="43" y="462" type="line"/>
      <point x="98" y="457" type="line" smooth="yes"/>
      <point x="119" y="455"/>
      <point x="120" y="455"/>
      <point x="120" y="408" type="curve"/>
      <point x="120" y="79" type="line"/>
      <point x="120" y="32"/>
      <point x="119" y="32"/>
      <point x="98" y="30" type="curve" smooth="yes"/>
      <point x="43" y="25" type="line"/>
      <point x="43" y="0" type="line"/>
      <point x="257" y="0" type="line"/>
      <point x="257" y="25" type="line"/>
      <point x="202" y="30" type="line" smooth="yes"/>
      <point x="181" y="32"/>
      <point x="180" y="32"/>
      <point x="180" y="79" type="curve"/>
      <point x="180" y="372" type="line"/>
      <point x="237" y="443"/>
      <point x="294" y="463"/>
      <point x="345" y="463" type="curve" smooth="yes"/>
      <point x="409" y="463"/>
      <point x="445" y="429"/>
      <point x="445" y="326" type="curve" smooth="yes"/>
      <point x="445" y="79" type="line"/>
      <point x="445" y="32"/>
      <point x="444" y="32"/>
      <point x="423" y="30" type="curve" smooth="yes"/>
      <point x="368" y="25" type="line"/>
      <point x="368" y="0" type="line"/>
      <point x="582" y="0" type="line"/>
    </contour>
  </outline>
</glyph>
<glyph name="o" format="1">
  <advance width="554"/>
  <unicode hex="006F"/>
  <outline>
    <contour>
      <point x="485" y="254" type="line" smooth="yes"/>
      <point x="485" y="401"/>
      <point x="410" y="497"/>
      <point x="277" y="497" type="curve" smooth="yes"/>
      <point x="143" y="497"/>
      <point x="69" y="401"/>
      <point x="69" y="254" type="curve" smooth="yes"/>
      <point x="69" y="234" type="line" smooth="yes"/>
      <point x="69" y="86"/>
      <point x="144" y="-10"/>
      <point x="277" y="-10" type="curve" smooth="yes"/>
      <point x="409" y="-10"/>
      <point x="485" y="86"/>
      <point x="485" y="234" type="curve" smooth="yes"/>
    </contour>
    <contour>
      <point x="417" y="274" type="curve" smooth="yes"/>
      <point x="417" y="214" type="line" smooth="yes"/>
      <point x="417" y="76"/>
      <point x="367" y="20"/>
      <point x="277" y="20" type="curve" smooth="yes"/>
      <point x="187" y="20"/>
      <point x="137" y="76"/>
      <point x="137" y="214" type="curve" smooth="yes"/>
      <point x="137" y="274" type="line" smooth="yes"/>
      <point x="137" y="412"/>
      <point x="187" y="467"/>
      <point x="277" y="467" type="curve" smooth="yes"/>
      <point x="367" y="467"/>
      <point x="417" y="412"/>
    </contour>
  </outline>
</glyph>
<glyph name="p" format="1">
  <advance width="577"/>
  <unicode hex="0070"/>
  <outline>
    <contour>
      <point x="36" y="463" type="line"/>
      <point x="91" y="457" type="line" smooth="yes"/>
      <point x="112" y="455"/>
      <point x="113" y="455"/>
      <point x="113" y="408" type="curve"/>
      <point x="113" y="-134" type="line"/>
      <point x="113" y="-181"/>
      <point x="112" y="-181"/>
      <point x="91" y="-183" type="curve" smooth="yes"/>
      <point x="36" y="-188" type="line"/>
      <point x="36" y="-213" type="line"/>
      <point x="270" y="-213" type="line"/>
      <point x="270" y="-188" type="line"/>
      <point x="195" y="-183" type="line" smooth="yes"/>
      <point x="174" y="-182"/>
      <point x="173" y="-181"/>
      <point x="173" y="-134" type="curve"/>
      <point x="173" y="45" type="line"/>
      <point x="207" y="8"/>
      <point x="251" y="-10"/>
      <point x="302" y="-10" type="curve" smooth="yes"/>
      <point x="430" y="-10"/>
      <point x="505" y="85"/>
      <point x="505" y="234" type="curve" smooth="yes"/>
      <point x="505" y="254" type="line" smooth="yes"/>
      <point x="505" y="408"/>
      <point x="442" y="497"/>
      <point x="325" y="497" type="curve" smooth="yes"/>
      <point x="265" y="497"/>
      <point x="211" y="473"/>
      <point x="169" y="411" type="curve"/>
      <point x="169" y="487" type="line"/>
      <point x="36" y="487" type="line"/>
    </contour>
    <contour>
      <point x="321" y="467" type="curve" smooth="yes"/>
      <point x="395" y="467"/>
      <point x="437" y="411"/>
      <point x="437" y="284" type="curve" smooth="yes"/>
      <point x="437" y="204" type="line" smooth="yes"/>
      <point x="437" y="89"/>
      <point x="396" y="20"/>
      <point x="302" y="20" type="curve" smooth="yes"/>
      <point x="247" y="20"/>
      <point x="205" y="44"/>
      <point x="173" y="96" type="curve"/>
      <point x="173" y="367" type="line"/>
      <point x="221" y="447"/>
      <point x="274" y="467"/>
    </contour>
  </outline>
</glyph>
<glyph name="q" format="1">
  <advance width="571"/>
  <unicode hex="0071"/>
  <outline>
    <contour>
      <point x="541" y="-188" type="line"/>
      <point x="486" y="-183" type="line" smooth="yes"/>
      <point x="465" y="-181"/>
      <point x="464" y="-181"/>
      <point x="464" y="-134" type="curve"/>
      <point x="464" y="492" type="line"/>
      <point x="442" y="492" type="line"/>
      <point x="431" y="471"/>
      <point x="421" y="455"/>
      <point x="405" y="441" type="curve"/>
      <point x="371" y="479"/>
      <point x="326" y="497"/>
      <point x="275" y="497" type="curve" smooth="yes"/>
      <point x="147" y="497"/>
      <point x="72" y="402"/>
      <point x="72" y="253" type="curve" smooth="yes"/>
      <point x="72" y="233" type="line" smooth="yes"/>
      <point x="72" y="79"/>
      <point x="135" y="-10"/>
      <point x="252" y="-10" type="curve" smooth="yes"/>
      <point x="310" y="-10"/>
      <point x="362" y="12"/>
      <point x="404" y="70" type="curve"/>
      <point x="404" y="-134" type="line"/>
      <point x="404" y="-181"/>
      <point x="403" y="-182"/>
      <point x="382" y="-183" type="curve" smooth="yes"/>
      <point x="307" y="-188" type="line"/>
      <point x="307" y="-213" type="line"/>
      <point x="541" y="-213" type="line"/>
    </contour>
    <contour>
      <point x="140" y="203" type="curve" smooth="yes"/>
      <point x="140" y="283" type="line" smooth="yes"/>
      <point x="140" y="398"/>
      <point x="181" y="467"/>
      <point x="275" y="467" type="curve" smooth="yes"/>
      <point x="330" y="467"/>
      <point x="372" y="443"/>
      <point x="404" y="391" type="curve"/>
      <point x="404" y="120" type="line"/>
      <point x="356" y="40"/>
      <point x="303" y="20"/>
      <point x="256" y="20" type="curve" smooth="yes"/>
      <point x="182" y="20"/>
      <point x="140" y="76"/>
    </contour>
  </outline>
</glyph>
<glyph name="r" format="1">
  <advance width="425"/>
  <unicode hex="0072"/>
  <outline>
    <contour>
      <point x="43" y="462" type="line"/>
      <point x="98" y="457" type="line" smooth="yes"/>
      <point x="119" y="455"/>
      <point x="120" y="455"/>
      <point x="120" y="408" type="curve"/>
      <point x="120" y="79" type="line"/>
      <point x="120" y="32"/>
      <point x="119" y="32"/>
      <point x="98" y="30" type="curve" smooth="yes"/>
      <point x="43" y="25" type="line"/>
      <point x="43" y="0" type="line"/>
      <point x="277" y="0" type="line"/>
      <point x="277" y="25" type="line"/>
      <point x="202" y="30" type="line" smooth="yes"/>
      <point x="181" y="31"/>
      <point x="180" y="32"/>
      <point x="180" y="79" type="curve"/>
      <point x="180" y="368" type="line"/>
      <point x="228" y="434"/>
      <point x="259" y="453"/>
      <point x="296" y="453" type="curve" smooth="yes"/>
      <point x="330" y="453"/>
      <point x="354" y="436"/>
      <point x="375" y="392" type="curve"/>
      <point x="424" y="426" type="line"/>
      <point x="400" y="472"/>
      <point x="362" y="497"/>
      <point x="318" y="497" type="curve" smooth="yes"/>
      <point x="272" y="497"/>
      <point x="226" y="471"/>
      <point x="176" y="409" type="curve"/>
      <point x="176" y="487" type="line"/>
      <point x="43" y="487" type="line"/>
    </contour>
  </outline>
</glyph>
<glyph name="s" format="1">
  <advance width="470"/>
  <unicode hex="0073"/>
  <outline>
    <contour>
      <point x="244" y="211" type="line" smooth="yes"/>
      <point x="327" y="189"/>
      <point x="356" y="158"/>
      <point x="356" y="113" type="curve" smooth="yes"/>
      <point x="356" y="44"/>
      <point x="292" y="19"/>
      <point x="239" y="19" type="curve" smooth="yes"/>
      <point x="175" y="19"/>
      <point x="123" y="46"/>
      <point x="104" y="127" type="curve"/>
      <point x="55" y="111" type="line"/>
      <point x="76" y="35"/>
      <point x="144" y="-10"/>
      <point x="237" y="-10" type="curve" smooth="yes"/>
      <point x="341" y="-10"/>
      <point x="403" y="44"/>
      <point x="403" y="126" type="curve" smooth="yes"/>
      <point x="403" y="205"/>
      <point x="347" y="248"/>
      <point x="265" y="269" type="curve" smooth="yes"/>
      <point x="207" y="284" type="line" smooth="yes"/>
      <point x="136" y="302"/>
      <point x="114" y="333"/>
      <point x="114" y="374" type="curve" smooth="yes"/>
      <point x="114" y="435"/>
      <point x="157" y="467"/>
      <point x="225" y="467" type="curve" smooth="yes"/>
      <point x="310" y="467"/>
      <point x="348" y="420"/>
      <point x="334" y="334" type="curve"/>
      <point x="391" y="344" type="line"/>
      <point x="402" y="425"/>
      <point x="354" y="497"/>
      <point x="226" y="497" type="curve" smooth="yes"/>
      <point x="115" y="497"/>
      <point x="67" y="429"/>
      <point x="67" y="361" type="curve" smooth="yes"/>
      <point x="67" y="290"/>
      <point x="111" y="246"/>
      <point x="187" y="226" type="curve" smooth="yes"/>
    </contour>
  </outline>
</glyph>
<glyph name="t" format="1">
  <advance width="382"/>
  <unicode hex="0074"/>
  <outline>
    <contour>
      <point x="356" y="102" type="curve"/>
      <point x="309" y="114" type="line"/>
      <point x="298" y="50"/>
      <point x="280" y="20"/>
      <point x="237" y="20" type="curve" smooth="yes"/>
      <point x="194" y="20"/>
      <point x="169" y="46"/>
      <point x="169" y="129" type="curve" smooth="yes"/>
      <point x="169" y="457" type="line"/>
      <point x="334" y="457" type="line"/>
      <point x="334" y="487" type="line"/>
      <point x="169" y="487" type="line"/>
      <point x="169" y="641" type="line"/>
      <point x="109" y="629" type="line"/>
      <point x="109" y="487" type="line"/>
      <point x="32" y="487" type="line"/>
      <point x="32" y="462" type="line"/>
      <point x="87" y="457" type="line" smooth="yes"/>
      <point x="109" y="455"/>
      <point x="109" y="455"/>
      <point x="109" y="408" type="curve"/>
      <point x="109" y="129" type="line" smooth="yes"/>
      <point x="109" y="60"/>
      <point x="144" y="-10"/>
      <point x="234" y="-10" type="curve" smooth="yes"/>
      <point x="299" y="-10"/>
      <point x="335" y="26"/>
    </contour>
  </outline>
</glyph>
<glyph name="u" format="1">
  <advance width="595"/>
  <unicode hex="0075"/>
  <outline>
    <contour>
      <point x="558" y="25" type="line"/>
      <point x="503" y="30" type="line" smooth="yes"/>
      <point x="482" y="32"/>
      <point x="481" y="32"/>
      <point x="481" y="79" type="curve"/>
      <point x="481" y="487" type="line"/>
      <point x="324" y="487" type="line"/>
      <point x="324" y="462" type="line"/>
      <point x="399" y="457" type="line" smooth="yes"/>
      <point x="420" y="456"/>
      <point x="421" y="455"/>
      <point x="421" y="408" type="curve"/>
      <point x="421" y="115" type="line"/>
      <point x="365" y="45"/>
      <point x="310" y="24"/>
      <point x="261" y="24" type="curve" smooth="yes"/>
      <point x="200" y="24"/>
      <point x="166" y="58"/>
      <point x="166" y="161" type="curve" smooth="yes"/>
      <point x="166" y="487" type="line"/>
      <point x="29" y="487" type="line"/>
      <point x="29" y="462" type="line"/>
      <point x="84" y="457" type="line" smooth="yes"/>
      <point x="105" y="455"/>
      <point x="106" y="455"/>
      <point x="106" y="408" type="curve"/>
      <point x="106" y="160" type="line" smooth="yes"/>
      <point x="106" y="52"/>
      <point x="157" y="-10"/>
      <point x="252" y="-10" type="curve" smooth="yes"/>
      <point x="311" y="-10"/>
      <point x="372" y="16"/>
      <point x="425" y="78" type="curve"/>
      <point x="425" y="0" type="line"/>
      <point x="558" y="0" type="line"/>
    </contour>
  </outline>
</glyph>
<glyph name="v" format="1">
  <advance width="513"/>
  <unicode hex="0076"/>
  <outline>
    <contour>
      <point x="430" y="418" type="line"/>
      <point x="442" y="454"/>
      <point x="443" y="455"/>
      <point x="464" y="457" type="curve" smooth="yes"/>
      <point x="513" y="462" type="line"/>
      <point x="513" y="487" type="line"/>
      <point x="337" y="487" type="line"/>
      <point x="337" y="462" type="line"/>
      <point x="386" y="457" type="line" smooth="yes"/>
      <point x="407" y="455"/>
      <point x="408" y="454"/>
      <point x="396" y="418" type="curve"/>
      <point x="270" y="61" type="line"/>
      <point x="143" y="418" type="line" smooth="yes"/>
      <point x="130" y="454"/>
      <point x="131" y="455"/>
      <point x="152" y="457" type="curve" smooth="yes"/>
      <point x="201" y="462" type="line"/>
      <point x="201" y="487" type="line"/>
      <point x="0" y="487" type="line"/>
      <point x="0" y="462" type="line"/>
      <point x="49" y="457" type="line" smooth="yes"/>
      <point x="70" y="455"/>
      <point x="71" y="454"/>
      <point x="84" y="418" type="curve" smooth="yes"/>
      <point x="234" y="0" type="line"/>
      <point x="282" y="0" type="line"/>
    </contour>
  </outline>
</glyph>
<glyph name="w" format="1">
  <advance width="759"/>
  <unicode hex="0077"/>
  <outline>
    <contour>
      <point x="679" y="418" type="line" smooth="yes"/>
      <point x="689" y="454"/>
      <point x="690" y="455"/>
      <point x="710" y="457" type="curve" smooth="yes"/>
      <point x="759" y="462" type="line"/>
      <point x="759" y="487" type="line"/>
      <point x="583" y="487" type="line"/>
      <point x="583" y="462" type="line"/>
      <point x="632" y="457" type="line" smooth="yes"/>
      <point x="653" y="455"/>
      <point x="654" y="454"/>
      <point x="644" y="418" type="curve" smooth="yes"/>
      <point x="552" y="69" type="line"/>
      <point x="416" y="487" type="line"/>
      <point x="367" y="487" type="line"/>
      <point x="232" y="70" type="line"/>
      <point x="140" y="418" type="line" smooth="yes"/>
      <point x="130" y="454"/>
      <point x="131" y="455"/>
      <point x="152" y="457" type="curve" smooth="yes"/>
      <point x="201" y="462" type="line"/>
      <point x="201" y="487" type="line"/>
      <point x="0" y="487" type="line"/>
      <point x="0" y="462" type="line"/>
      <point x="49" y="457" type="line" smooth="yes"/>
      <point x="70" y="455"/>
      <point x="71" y="454"/>
      <point x="81" y="418" type="curve" smooth="yes"/>
      <point x="194" y="0" type="line"/>
      <point x="242" y="0" type="line"/>
      <point x="379" y="422" type="line"/>
      <point x="517" y="0" type="line"/>
      <point x="565" y="0" type="line"/>
    </contour>
  </outline>
</glyph>
<glyph name="x" format="1">
  <advance width="510"/>
  <unicode hex="0078"/>
  <outline>
    <contour>
      <point x="196" y="25" type="line"/>
      <point x="147" y="30" type="line" smooth="yes"/>
      <point x="128" y="32"/>
      <point x="124" y="33"/>
      <point x="149" y="69" type="curve" smooth="yes"/>
      <point x="246" y="210" type="line"/>
      <point x="246" y="214" type="line"/>
      <point x="339" y="69" type="line" smooth="yes"/>
      <point x="363" y="32"/>
      <point x="361" y="32"/>
      <point x="340" y="30" type="curve" smooth="yes"/>
      <point x="291" y="25" type="line"/>
      <point x="291" y="0" type="line"/>
      <point x="498" y="0" type="line"/>
      <point x="498" y="25" type="line"/>
      <point x="449" y="30" type="line" smooth="yes"/>
      <point x="428" y="32"/>
      <point x="427" y="33"/>
      <point x="404" y="69" type="curve" smooth="yes"/>
      <point x="283" y="257" type="line"/>
      <point x="395" y="418" type="line" smooth="yes"/>
      <point x="420" y="454"/>
      <point x="421" y="455"/>
      <point x="442" y="457" type="curve" smooth="yes"/>
      <point x="491" y="462" type="line"/>
      <point x="491" y="487" type="line"/>
      <point x="307" y="487" type="line"/>
      <point x="307" y="462" type="line"/>
      <point x="356" y="457" type="line" smooth="yes"/>
      <point x="375" y="455"/>
      <point x="379" y="454"/>
      <point x="354" y="418" type="curve" smooth="yes"/>
      <point x="264" y="287" type="line"/>
      <point x="180" y="418" type="line" smooth="yes"/>
      <point x="157" y="454"/>
      <point x="158" y="455"/>
      <point x="179" y="457" type="curve" smooth="yes"/>
      <point x="228" y="462" type="line"/>
      <point x="228" y="487" type="line"/>
      <point x="21" y="487" type="line"/>
      <point x="21" y="462" type="line"/>
      <point x="70" y="457" type="line" smooth="yes"/>
      <point x="91" y="455"/>
      <point x="92" y="454"/>
      <point x="115" y="418" type="curve" smooth="yes"/>
      <point x="228" y="242" type="line"/>
      <point x="108" y="69" type="line" smooth="yes"/>
      <point x="83" y="33"/>
      <point x="82" y="32"/>
      <point x="61" y="30" type="curve" smooth="yes"/>
      <point x="12" y="25" type="line"/>
      <point x="12" y="0" type="line"/>
      <point x="196" y="0" type="line"/>
    </contour>
  </outline>
</glyph>
<glyph name="y" format="1">
  <advance width="514"/>
  <unicode hex="0079"/>
  <outline>
    <contour>
      <point x="265" y="-50" type="curve" smooth="yes"/>
      <point x="431" y="418" type="line" smooth="yes"/>
      <point x="444" y="453"/>
      <point x="445" y="454"/>
      <point x="465" y="456" type="curve" smooth="yes"/>
      <point x="514" y="462" type="line"/>
      <point x="514" y="487" type="line"/>
      <point x="337" y="487" type="line"/>
      <point x="337" y="462" type="line"/>
      <point x="386" y="456" type="line" smooth="yes"/>
      <point x="407" y="453"/>
      <point x="408" y="453"/>
      <point x="396" y="418" type="curve" smooth="yes"/>
      <point x="270" y="62" type="line"/>
      <point x="143" y="418" type="line" smooth="yes"/>
      <point x="131" y="452"/>
      <point x="131" y="453"/>
      <point x="152" y="456" type="curve" smooth="yes"/>
      <point x="201" y="462" type="line"/>
      <point x="201" y="487" type="line"/>
      <point x="0" y="487" type="line"/>
      <point x="0" y="462" type="line"/>
      <point x="49" y="456" type="line" smooth="yes"/>
      <point x="70" y="453"/>
      <point x="72" y="452"/>
      <point x="84" y="418" type="curve" smooth="yes"/>
      <point x="234" y="0" type="line"/>
      <point x="248" y="0" type="line"/>
      <point x="233" y="-43" type="line" smooth="yes"/>
      <point x="198" y="-141"/>
      <point x="157" y="-163"/>
      <point x="77" y="-163" type="curve"/>
      <point x="77" y="-223" type="line"/>
      <point x="176" y="-223"/>
      <point x="222" y="-171"/>
    </contour>
  </outline>
</glyph>
<glyph name="z" format="1">
  <advance width="459"/>
  <unicode hex="007A"/>
  <outline>
    <contour>
      <point x="383" y="137" type="line"/>
      <point x="356" y="56" type="line" smooth="yes"/>
      <point x="348" y="33"/>
      <point x="349" y="30"/>
      <point x="302" y="30" type="curve"/>
      <point x="120" y="30" type="line"/>
      <point x="398" y="462" type="line"/>
      <point x="398" y="487" type="line"/>
      <point x="61" y="487" type="line"/>
      <point x="61" y="350" type="line"/>
      <point x="86" y="350" type="line"/>
      <point x="113" y="431" type="line" smooth="yes"/>
      <point x="121" y="454"/>
      <point x="120" y="457"/>
      <point x="167" y="457" type="curve"/>
      <point x="329" y="457" type="line"/>
      <point x="51" y="25" type="line"/>
      <point x="51" y="0" type="line"/>
      <point x="408" y="0" type="line"/>
      <point x="408" y="137" type="line"/>
    </contour>
  </outline>
</glyph>
<glyph name="braceleft" format="1">
  <advance width="407"/>
  <unicode hex="007B"/>
  <outline>
    <contour>
      <point x="380" y="-114" type="line"/>
      <point x="295" y="-114" type="line" smooth="yes"/>
      <point x="218" y="-114"/>
      <point x="195" y="-65"/>
      <point x="211" y="22" type="curve" smooth="yes"/>
      <point x="231" y="128" type="line" smooth="yes"/>
      <point x="248" y="221"/>
      <point x="216" y="278"/>
      <point x="156" y="298" type="curve"/>
      <point x="216" y="318"/>
      <point x="248" y="376"/>
      <point x="231" y="468" type="curve" smooth="yes"/>
      <point x="211" y="574" type="line" smooth="yes"/>
      <point x="195" y="661"/>
      <point x="218" y="710"/>
      <point x="295" y="710" type="curve" smooth="yes"/>
      <point x="380" y="710" type="line"/>
      <point x="380" y="740" type="line"/>
      <point x="295" y="740" type="line" smooth="yes"/>
      <point x="190" y="740"/>
      <point x="127" y="678"/>
      <point x="150" y="555" type="curve" smooth="yes"/>
      <point x="170" y="449" type="line" smooth="yes"/>
      <point x="185" y="369"/>
      <point x="165" y="313"/>
      <point x="103" y="313" type="curve" smooth="yes"/>
      <point x="30" y="313" type="line"/>
      <point x="30" y="283" type="line"/>
      <point x="103" y="283" type="line" smooth="yes"/>
      <point x="165" y="283"/>
      <point x="185" y="227"/>
      <point x="170" y="147" type="curve" smooth="yes"/>
      <point x="150" y="41" type="line" smooth="yes"/>
      <point x="127" y="-82"/>
      <point x="190" y="-144"/>
      <point x="295" y="-144" type="curve" smooth="yes"/>
      <point x="380" y="-144" type="line"/>
    </contour>
  </outline>
</glyph>
<glyph name="bar" format="1">
  <advance width="251"/>
  <unicode hex="007C"/>
  <outline>
    <contour>
      <point x="108" y="740" type="line"/>
      <point x="108" y="-213" type="line"/>
      <point x="143" y="-213" type="line"/>
      <point x="143" y="740" type="line"/>
    </contour>
  </outline>
</glyph>
<glyph name="braceright" format="1">
  <advance width="407"/>
  <unicode hex="007D"/>
  <outline>
    <contour>
      <point x="257" y="41" type="curve" smooth="yes"/>
      <point x="237" y="147" type="line" smooth="yes"/>
      <point x="222" y="227"/>
      <point x="242" y="283"/>
      <point x="304" y="283" type="curve" smooth="yes"/>
      <point x="377" y="283" type="line"/>
      <point x="377" y="313" type="line"/>
      <point x="304" y="313" type="line" smooth="yes"/>
      <point x="242" y="313"/>
      <point x="222" y="369"/>
      <point x="237" y="449" type="curve" smooth="yes"/>
      <point x="257" y="555" type="line" smooth="yes"/>
      <point x="280" y="678"/>
      <point x="217" y="740"/>
      <point x="112" y="740" type="curve" smooth="yes"/>
      <point x="27" y="740" type="line"/>
      <point x="27" y="710" type="line"/>
      <point x="112" y="710" type="line" smooth="yes"/>
      <point x="189" y="710"/>
      <point x="212" y="661"/>
      <point x="196" y="574" type="curve" smooth="yes"/>
      <point x="176" y="468" type="line" smooth="yes"/>
      <point x="159" y="375"/>
      <point x="191" y="318"/>
      <point x="251" y="298" type="curve"/>
      <point x="191" y="278"/>
      <point x="159" y="220"/>
      <point x="176" y="128" type="curve" smooth="yes"/>
      <point x="196" y="22" type="line" smooth="yes"/>
      <point x="212" y="-65"/>
      <point x="189" y="-114"/>
      <point x="112" y="-114" type="curve" smooth="yes"/>
      <point x="27" y="-114" type="line"/>
      <point x="27" y="-144" type="line"/>
      <point x="112" y="-144" type="line" smooth="yes"/>
      <point x="217" y="-144"/>
      <point x="280" y="-82"/>
    </contour>
  </outline>
</glyph>
<glyph name="asciitilde" format="1">
  <advance width="588"/>
  <unicode hex="007E"/>
  <outline>
    <contour>
      <point x="390" y="258" type="curve" smooth="yes"/>
      <point x="433" y="258"/>
      <point x="469" y="281"/>
      <point x="501" y="368" type="curve"/>
      <point x="471" y="382" type="line"/>
      <point x="448" y="311"/>
      <point x="423" y="292"/>
      <point x="390" y="292" type="curve" smooth="yes"/>
      <point x="313" y="292"/>
      <point x="294" y="408"/>
      <point x="198" y="408" type="curve" smooth="yes"/>
      <point x="155" y="408"/>
      <point x="119" y="385"/>
      <point x="87" y="298" type="curve"/>
      <point x="117" y="284" type="line"/>
      <point x="140" y="355"/>
      <point x="165" y="374"/>
      <point x="198" y="374" type="curve" smooth="yes"/>
      <point x="274" y="374"/>
      <point x="293" y="258"/>
    </contour>
  </outline>
</glyph>
<glyph name="exclamdown" format="1">
  <advance width="261"/>
  <unicode hex="00A1"/>
  <outline>
    <contour>
      <point x="131" y="497" type="curve" smooth="yes"/>
      <point x="103" y="497"/>
      <point x="83" y="477"/>
      <point x="83" y="449" type="curve" smooth="yes"/>
      <point x="83" y="422"/>
      <point x="103" y="402"/>
      <point x="131" y="402" type="curve" smooth="yes"/>
      <point x="158" y="402"/>
      <point x="178" y="422"/>
      <point x="178" y="449" type="curve" smooth="yes"/>
      <point x="178" y="477"/>
      <point x="158" y="497"/>
    </contour>
    <contour>
      <point x="116" y="315" type="line"/>
      <point x="116" y="74"/>
      <point x="100" y="22"/>
      <point x="100" y="-193" type="curve"/>
      <point x="160" y="-193" type="line"/>
      <point x="160" y="22"/>
      <point x="144" y="74"/>
      <point x="144" y="315" type="curve"/>
    </contour>
  </outline>
</glyph>
<glyph name="cent" format="1">
  <advance width="502"/>
  <unicode hex="00A2"/>
  <outline>
    <contour>
      <point x="445" y="111" type="curve"/>
      <point x="399" y="124" type="line"/>
      <point x="383" y="50"/>
      <point x="346" y="22"/>
      <point x="287" y="20" type="curve"/>
      <point x="287" y="466" type="line"/>
      <point x="361" y="459"/>
      <point x="394" y="404"/>
      <point x="381" y="309" type="curve"/>
      <point x="438" y="318" type="line"/>
      <point x="453" y="415"/>
      <point x="395" y="489"/>
      <point x="287" y="496" type="curve"/>
      <point x="287" y="612" type="line"/>
      <point x="252" y="612" type="line"/>
      <point x="252" y="496" type="line"/>
      <point x="134" y="488"/>
      <point x="71" y="394"/>
      <point x="71" y="254" type="curve" smooth="yes"/>
      <point x="71" y="234" type="line" smooth="yes"/>
      <point x="71" y="94"/>
      <point x="131" y="1"/>
      <point x="252" y="-9" type="curve"/>
      <point x="252" y="-125" type="line"/>
      <point x="287" y="-125" type="line"/>
      <point x="287" y="-10" type="line"/>
      <point x="357" y="-6"/>
      <point x="422" y="27"/>
    </contour>
    <contour>
      <point x="139" y="214" type="curve" smooth="yes"/>
      <point x="139" y="274" type="line" smooth="yes"/>
      <point x="139" y="402"/>
      <point x="180" y="459"/>
      <point x="252" y="466" type="curve"/>
      <point x="252" y="22" type="line"/>
      <point x="172" y="31"/>
      <point x="139" y="89"/>
    </contour>
  </outline>
</glyph>
<glyph name="sterling" format="1">
  <advance width="522.3033859142934"/>
  <unicode hex="00A3"/>
  <outline>
    <contour>
      <point x="427" y="160" type="line"/>
      <point x="410" y="79" type="line" smooth="yes"/>
      <point x="405" y="55"/>
      <point x="403" y="53"/>
      <point x="356" y="53" type="curve"/>
      <point x="114" y="53" type="line"/>
      <point x="178" y="125"/>
      <point x="213" y="180"/>
      <point x="213" y="247" type="curve" smooth="yes"/>
      <point x="213" y="260"/>
      <point x="212" y="273"/>
      <point x="210" y="285" type="curve"/>
      <point x="383" y="285" type="line"/>
      <point x="383" y="315" type="line"/>
      <point x="203" y="315" type="line"/>
      <point x="185" y="377"/>
      <point x="149" y="429"/>
      <point x="149" y="516" type="curve" smooth="yes"/>
      <point x="149" y="607"/>
      <point x="191" y="660"/>
      <point x="266" y="660" type="curve" smooth="yes"/>
      <point x="366" y="660"/>
      <point x="401" y="591"/>
      <point x="388" y="467" type="curve"/>
      <point x="453" y="483" type="line"/>
      <point x="472" y="590"/>
      <point x="409" y="690"/>
      <point x="265" y="690" type="curve" smooth="yes"/>
      <point x="128" y="690"/>
      <point x="74" y="596"/>
      <point x="74" y="511" type="curve" smooth="yes"/>
      <point x="74" y="427"/>
      <point x="122" y="376"/>
      <point x="150" y="315" type="curve"/>
      <point x="59" y="315" type="line"/>
      <point x="59" y="285" type="line"/>
      <point x="161" y="285" type="line"/>
      <point x="166" y="269"/>
      <point x="169" y="252"/>
      <point x="169" y="233" type="curve" smooth="yes"/>
      <point x="169" y="179"/>
      <point x="150" y="138"/>
      <point x="67" y="46" type="curve"/>
      <point x="67" y="0" type="line"/>
      <point x="452" y="0" type="line"/>
      <point x="452" y="160" type="line"/>
    </contour>
  </outline>
</glyph>
<glyph name="currency" format="1">
  <advance width="592"/>
  <unicode hex="00A4"/>
  <outline>
    <contour>
      <point x="542" y="67" type="line"/>
      <point x="442" y="171" type="line"/>
      <point x="471" y="205"/>
      <point x="488" y="250"/>
      <point x="488" y="300" type="curve" smooth="yes"/>
      <point x="488" y="350"/>
      <point x="471" y="395"/>
      <point x="442" y="429" type="curve"/>
      <point x="542" y="533" type="line"/>
      <point x="520" y="557" type="line"/>
      <point x="418" y="453" type="line"/>
      <point x="385" y="481"/>
      <point x="343" y="497"/>
      <point x="296" y="497" type="curve" smooth="yes"/>
      <point x="249" y="497"/>
      <point x="206" y="481"/>
      <point x="173" y="453" type="curve"/>
      <point x="72" y="557" type="line"/>
      <point x="50" y="533" type="line"/>
      <point x="150" y="429" type="line"/>
      <point x="121" y="395"/>
      <point x="104" y="350"/>
      <point x="104" y="300" type="curve" smooth="yes"/>
      <point x="104" y="250"/>
      <point x="121" y="205"/>
      <point x="150" y="171" type="curve"/>
      <point x="50" y="67" type="line"/>
      <point x="72" y="43" type="line"/>
      <point x="174" y="147" type="line"/>
      <point x="206" y="120"/>
      <point x="249" y="103"/>
      <point x="296" y="103" type="curve" smooth="yes"/>
      <point x="343" y="103"/>
      <point x="385" y="120"/>
      <point x="418" y="147" type="curve"/>
      <point x="520" y="43" type="line"/>
    </contour>
    <contour>
      <point x="296" y="133" type="curve" smooth="yes"/>
      <point x="206" y="133"/>
      <point x="136" y="206"/>
      <point x="136" y="300" type="curve" smooth="yes"/>
      <point x="136" y="394"/>
      <point x="206" y="467"/>
      <point x="296" y="467" type="curve" smooth="yes"/>
      <point x="386" y="467"/>
      <point x="456" y="394"/>
      <point x="456" y="300" type="curve" smooth="yes"/>
      <point x="456" y="206"/>
      <point x="386" y="133"/>
    </contour>
  </outline>
</glyph>
<glyph name="yen" format="1">
  <advance width="594"/>
  <unicode hex="00A5"/>
  <outline>
    <contour>
      <point x="407" y="25" type="line"/>
      <point x="352" y="30" type="line" smooth="yes"/>
      <point x="331" y="32"/>
      <point x="330" y="32"/>
      <point x="330" y="79" type="curve"/>
      <point x="330" y="214" type="line"/>
      <point x="523" y="214" type="line"/>
      <point x="523" y="244" type="line"/>
      <point x="330" y="244" type="line"/>
      <point x="330" y="290" type="line"/>
      <point x="362" y="354" type="line"/>
      <point x="523" y="354" type="line"/>
      <point x="523" y="384" type="line"/>
      <point x="378" y="384" type="line"/>
      <point x="492" y="611" type="line" smooth="yes"/>
      <point x="510" y="647"/>
      <point x="511" y="648"/>
      <point x="533" y="650" type="curve" smooth="yes"/>
      <point x="582" y="655" type="line"/>
      <point x="582" y="680" type="line"/>
      <point x="404" y="680" type="line"/>
      <point x="404" y="655" type="line"/>
      <point x="453" y="650" type="line" smooth="yes"/>
      <point x="473" y="648"/>
      <point x="474" y="647"/>
      <point x="456" y="611" type="curve" smooth="yes"/>
      <point x="315" y="328" type="line"/>
      <point x="174" y="611" type="line" smooth="yes"/>
      <point x="156" y="647"/>
      <point x="157" y="648"/>
      <point x="177" y="650" type="curve" smooth="yes"/>
      <point x="226" y="655" type="line"/>
      <point x="226" y="680" type="line"/>
      <point x="12" y="680" type="line"/>
      <point x="12" y="655" type="line"/>
      <point x="61" y="650" type="line" smooth="yes"/>
      <point x="82" y="648"/>
      <point x="84" y="647"/>
      <point x="102" y="611" type="curve" smooth="yes"/>
      <point x="217" y="384" type="line"/>
      <point x="72" y="384" type="line"/>
      <point x="72" y="354" type="line"/>
      <point x="232" y="354" type="line"/>
      <point x="265" y="290" type="line"/>
      <point x="265" y="244" type="line"/>
      <point x="72" y="244" type="line"/>
      <point x="72" y="214" type="line"/>
      <point x="265" y="214" type="line"/>
      <point x="265" y="79" type="line"/>
      <point x="265" y="32"/>
      <point x="264" y="32"/>
      <point x="243" y="30" type="curve" smooth="yes"/>
      <point x="188" y="25" type="line"/>
      <point x="188" y="0" type="line"/>
      <point x="407" y="0" type="line"/>
    </contour>
  </outline>
</glyph>
<glyph name="section" format="1">
  <advance width="533"/>
  <unicode hex="00A7"/>
  <outline>
    <contour>
      <point x="455" y="-56" type="curve" smooth="yes"/>
      <point x="455" y="10"/>
      <point x="426" y="59"/>
      <point x="369" y="90" type="curve"/>
      <point x="443" y="116"/>
      <point x="483" y="172"/>
      <point x="483" y="239" type="curve" smooth="yes"/>
      <point x="483" y="317"/>
      <point x="424" y="372"/>
      <point x="314" y="402" type="curve" smooth="yes"/>
      <point x="248" y="420" type="line" smooth="yes"/>
      <point x="159" y="444"/>
      <point x="133" y="486"/>
      <point x="133" y="547" type="curve" smooth="yes"/>
      <point x="133" y="621"/>
      <point x="179" y="661"/>
      <point x="260" y="661" type="curve" smooth="yes"/>
      <point x="359" y="661"/>
      <point x="393" y="594"/>
      <point x="380" y="477" type="curve"/>
      <point x="443" y="493" type="line"/>
      <point x="461" y="595"/>
      <point x="406" y="690"/>
      <point x="260" y="690" type="curve" smooth="yes"/>
      <point x="130" y="690"/>
      <point x="77" y="614"/>
      <point x="77" y="532" type="curve" smooth="yes"/>
      <point x="77" y="466"/>
      <point x="110" y="413"/>
      <point x="169" y="382" type="curve"/>
      <point x="90" y="358"/>
      <point x="50" y="299"/>
      <point x="50" y="235" type="curve" smooth="yes"/>
      <point x="50" y="160"/>
      <point x="109" y="103"/>
      <point x="209" y="76" type="curve" smooth="yes"/>
      <point x="275" y="58" type="line" smooth="yes"/>
      <point x="367" y="33"/>
      <point x="399" y="-10"/>
      <point x="399" y="-74" type="curve" smooth="yes"/>
      <point x="399" y="-151"/>
      <point x="342" y="-193"/>
      <point x="260" y="-193" type="curve" smooth="yes"/>
      <point x="187" y="-193"/>
      <point x="120" y="-159"/>
      <point x="110" y="-32" type="curve"/>
      <point x="55" y="-50" type="line"/>
      <point x="78" y="-187"/>
      <point x="165" y="-223"/>
      <point x="260" y="-223" type="curve" smooth="yes"/>
      <point x="390" y="-223"/>
      <point x="455" y="-150"/>
    </contour>
    <contour>
      <point x="309" y="113" type="curve" smooth="yes"/>
      <point x="243" y="131" type="line" smooth="yes"/>
      <point x="139" y="159"/>
      <point x="106" y="195"/>
      <point x="106" y="254" type="curve" smooth="yes"/>
      <point x="106" y="317"/>
      <point x="144" y="355"/>
      <point x="214" y="365" type="curve"/>
      <point x="280" y="347" type="line" smooth="yes"/>
      <point x="388" y="318"/>
      <point x="427" y="281"/>
      <point x="427" y="219" type="curve" smooth="yes"/>
      <point x="427" y="160"/>
      <point x="391" y="122"/>
      <point x="329" y="107" type="curve"/>
      <point x="322" y="109"/>
      <point x="316" y="111"/>
    </contour>
  </outline>
</glyph>
<glyph name="dieresis" format="1">
  <advance width="500"/>
  <unicode hex="00A8"/>
  <outline>
    <contour>
      <point x="150" y="619" type="curve" smooth="yes"/>
      <point x="176" y="619"/>
      <point x="194" y="637"/>
      <point x="194" y="663" type="curve" smooth="yes"/>
      <point x="194" y="688"/>
      <point x="176" y="706"/>
      <point x="150" y="706" type="curve" smooth="yes"/>
      <point x="125" y="706"/>
      <point x="107" y="688"/>
      <point x="107" y="663" type="curve" smooth="yes"/>
      <point x="107" y="637"/>
      <point x="125" y="619"/>
    </contour>
    <contour>
      <point x="349" y="619" type="curve" smooth="yes"/>
      <point x="375" y="619"/>
      <point x="393" y="637"/>
      <point x="393" y="663" type="curve" smooth="yes"/>
      <point x="393" y="688"/>
      <point x="375" y="706"/>
      <point x="349" y="706" type="curve" smooth="yes"/>
      <point x="324" y="706"/>
      <point x="306" y="688"/>
      <point x="306" y="663" type="curve" smooth="yes"/>
      <point x="306" y="637"/>
      <point x="324" y="619"/>
    </contour>
  </outline>
</glyph>
<glyph name="copyright" format="1">
  <advance width="858"/>
  <unicode hex="00A9"/>
  <outline>
    <contour>
      <point x="429" y="-37" type="curve" smooth="yes"/>
      <point x="638" y="-37"/>
      <point x="801" y="128"/>
      <point x="801" y="340" type="curve" smooth="yes"/>
      <point x="801" y="553"/>
      <point x="638" y="717"/>
      <point x="429" y="717" type="curve" smooth="yes"/>
      <point x="219" y="717"/>
      <point x="57" y="553"/>
      <point x="57" y="340" type="curve" smooth="yes"/>
      <point x="57" y="128"/>
      <point x="219" y="-37"/>
    </contour>
    <contour>
      <point x="429" y="-7" type="curve" smooth="yes"/>
      <point x="237" y="-7"/>
      <point x="89" y="144"/>
      <point x="89" y="340" type="curve" smooth="yes"/>
      <point x="89" y="536"/>
      <point x="237" y="687"/>
      <point x="429" y="687" type="curve" smooth="yes"/>
      <point x="621" y="687"/>
      <point x="769" y="536"/>
      <point x="769" y="340" type="curve" smooth="yes"/>
      <point x="769" y="144"/>
      <point x="621" y="-7"/>
    </contour>
    <contour>
      <point x="434" y="544" type="curve" smooth="yes"/>
      <point x="517" y="544"/>
      <point x="556" y="489"/>
      <point x="542" y="389" type="curve"/>
      <point x="599" y="398" type="line"/>
      <point x="615" y="497"/>
      <point x="551" y="572"/>
      <point x="434" y="572" type="curve" smooth="yes"/>
      <point x="309" y="572"/>
      <point x="242" y="485"/>
      <point x="242" y="351" type="curve" smooth="yes"/>
      <point x="242" y="330" type="line" smooth="yes"/>
      <point x="242" y="195"/>
      <point x="307" y="108"/>
      <point x="438" y="108" type="curve" smooth="yes"/>
      <point x="513" y="108"/>
      <point x="581" y="141"/>
      <point x="606" y="234" type="curve"/>
      <point x="561" y="248" type="line"/>
      <point x="545" y="164"/>
      <point x="506" y="136"/>
      <point x="443" y="136" type="curve" smooth="yes"/>
      <point x="349" y="136"/>
      <point x="310" y="186"/>
      <point x="310" y="310" type="curve" smooth="yes"/>
      <point x="310" y="371" type="line" smooth="yes"/>
      <point x="310" y="495"/>
      <point x="356" y="544"/>
    </contour>
  </outline>
</glyph>
<glyph name="ordfeminine" format="1">
  <advance width="387"/>
  <unicode hex="00AA"/>
  <outline>
    <contour>
      <point x="311" y="339" type="curve" smooth="yes"/>
      <point x="335" y="339"/>
      <point x="352" y="347"/>
      <point x="365" y="359" type="curve"/>
      <point x="353" y="378" type="line"/>
      <point x="342" y="369"/>
      <point x="332" y="366"/>
      <point x="324" y="366" type="curve" smooth="yes"/>
      <point x="309" y="366"/>
      <point x="295" y="369"/>
      <point x="295" y="416" type="curve" smooth="yes"/>
      <point x="295" y="568" type="line" smooth="yes"/>
      <point x="295" y="630"/>
      <point x="270" y="685"/>
      <point x="178" y="685" type="curve" smooth="yes"/>
      <point x="101" y="685"/>
      <point x="62" y="638"/>
      <point x="68" y="574" type="curve"/>
      <point x="112" y="567" type="line"/>
      <point x="103" y="646"/>
      <point x="134" y="661"/>
      <point x="177" y="661" type="curve" smooth="yes"/>
      <point x="221" y="661"/>
      <point x="249" y="642"/>
      <point x="249" y="568" type="curve" smooth="yes"/>
      <point x="249" y="513" type="line"/>
      <point x="170" y="513" type="line" smooth="yes"/>
      <point x="84" y="513"/>
      <point x="52" y="481"/>
      <point x="52" y="426" type="curve" smooth="yes"/>
      <point x="52" y="377"/>
      <point x="80" y="335"/>
      <point x="143" y="335" type="curve" smooth="yes"/>
      <point x="179" y="335"/>
      <point x="218" y="350"/>
      <point x="251" y="386" type="curve"/>
      <point x="257" y="356"/>
      <point x="279" y="339"/>
    </contour>
    <contour>
      <point x="154" y="362" type="curve" smooth="yes"/>
      <point x="118" y="362"/>
      <point x="100" y="386"/>
      <point x="100" y="430" type="curve" smooth="yes"/>
      <point x="100" y="472"/>
      <point x="122" y="489"/>
      <point x="175" y="489" type="curve" smooth="yes"/>
      <point x="249" y="489" type="line"/>
      <point x="249" y="417" type="line"/>
      <point x="212" y="372"/>
      <point x="180" y="362"/>
    </contour>
  </outline>
</glyph>
<glyph name="guillemotleft" format="1">
  <advance width="642"/>
  <unicode hex="00AB"/>
  <outline>
    <contour>
      <point x="583" y="26" type="line"/>
      <point x="383" y="244" type="line"/>
      <point x="583" y="462" type="line"/>
      <point x="568" y="478" type="line"/>
      <point x="306" y="256" type="line"/>
      <point x="306" y="232" type="line"/>
      <point x="568" y="10" type="line"/>
    </contour>
    <contour>
      <point x="333" y="26" type="line"/>
      <point x="133" y="244" type="line"/>
      <point x="333" y="462" type="line"/>
      <point x="318" y="478" type="line"/>
      <point x="56" y="256" type="line"/>
      <point x="56" y="232" type="line"/>
      <point x="318" y="10" type="line"/>
    </contour>
  </outline>
</glyph>
<glyph name="logicalnot" format="1">
  <advance width="588"/>
  <unicode hex="00AC"/>
  <outline>
    <contour>
      <point x="87" y="429" type="line"/>
      <point x="467" y="429" type="line"/>
      <point x="467" y="238" type="line"/>
      <point x="501" y="238" type="line"/>
      <point x="501" y="461" type="line"/>
      <point x="87" y="461" type="line"/>
    </contour>
  </outline>
</glyph>
<glyph name="registered" format="1">
  <advance width="570"/>
  <unicode hex="00AE"/>
  <note>
    nouvelle rduction 75%
  </note>
  <outline>
    <contour>
      <point x="285" y="241" type="curve" smooth="yes"/>
      <point x="416" y="241"/>
      <point x="519" y="346"/>
      <point x="519" y="479" type="curve" smooth="yes"/>
      <point x="519" y="613"/>
      <point x="416" y="717"/>
      <point x="285" y="717" type="curve" smooth="yes"/>
      <point x="153" y="717"/>
      <point x="51" y="613"/>
      <point x="51" y="479" type="curve" smooth="yes"/>
      <point x="51" y="346"/>
      <point x="153" y="241"/>
    </contour>
    <contour>
      <point x="285" y="270" type="curve" smooth="yes"/>
      <point x="172" y="270"/>
      <point x="83" y="361"/>
      <point x="83" y="479" type="curve" smooth="yes"/>
      <point x="83" y="598"/>
      <point x="172" y="688"/>
      <point x="285" y="688" type="curve" smooth="yes"/>
      <point x="399" y="688"/>
      <point x="487" y="598"/>
      <point x="487" y="479" type="curve" smooth="yes"/>
      <point x="487" y="361"/>
      <point x="399" y="270"/>
    </contour>
    <contour>
      <point x="182" y="588" type="line"/>
      <point x="203" y="586" type="line" smooth="yes"/>
      <point x="211" y="585"/>
      <point x="212" y="585"/>
      <point x="212" y="568" type="curve"/>
      <point x="212" y="394" type="line"/>
      <point x="212" y="376"/>
      <point x="211" y="375"/>
      <point x="203" y="375" type="curve" smooth="yes"/>
      <point x="182" y="374" type="line"/>
      <point x="182" y="353" type="line"/>
      <point x="282" y="353" type="line"/>
      <point x="282" y="374" type="line"/>
      <point x="261" y="375" type="line" smooth="yes"/>
      <point x="254" y="375"/>
      <point x="253" y="376"/>
      <point x="253" y="394" type="curve"/>
      <point x="253" y="458" type="line"/>
      <point x="281" y="458" type="line"/>
      <point x="340" y="353" type="line"/>
      <point x="403" y="353" type="line"/>
      <point x="403" y="374" type="line"/>
      <point x="385" y="375" type="line" smooth="yes"/>
      <point x="377" y="375"/>
      <point x="378" y="376"/>
      <point x="367" y="394" type="curve" smooth="yes"/>
      <point x="324" y="464" type="line"/>
      <point x="352" y="474"/>
      <point x="368" y="497"/>
      <point x="368" y="527" type="curve" smooth="yes"/>
      <point x="368" y="543" type="line" smooth="yes"/>
      <point x="368" y="582"/>
      <point x="339" y="608"/>
      <point x="288" y="608" type="curve" smooth="yes"/>
      <point x="182" y="608" type="line"/>
    </contour>
    <contour>
      <point x="288" y="586" type="line" smooth="yes"/>
      <point x="311" y="586"/>
      <point x="325" y="570"/>
      <point x="325" y="543" type="curve" smooth="yes"/>
      <point x="325" y="527" type="line" smooth="yes"/>
      <point x="325" y="498"/>
      <point x="311" y="481"/>
      <point x="288" y="481" type="curve" smooth="yes"/>
      <point x="253" y="481" type="line"/>
      <point x="253" y="586" type="line"/>
    </contour>
  </outline>
</glyph>
<glyph name="macron" format="1">
  <advance width="500"/>
  <unicode hex="00AF"/>
  <outline>
    <contour>
      <point x="394" y="662" type="line"/>
      <point x="107" y="662" type="line"/>
      <point x="107" y="619" type="line"/>
      <point x="394" y="619" type="line"/>
    </contour>
  </outline>
</glyph>
<glyph name="degree" format="1">
  <advance width="402"/>
  <unicode hex="00B0"/>
  <outline>
    <contour>
      <point x="201" y="366" type="curve" smooth="yes"/>
      <point x="291" y="366"/>
      <point x="358" y="435"/>
      <point x="358" y="528" type="curve" smooth="yes"/>
      <point x="358" y="622"/>
      <point x="291" y="690"/>
      <point x="201" y="690" type="curve" smooth="yes"/>
      <point x="110" y="690"/>
      <point x="44" y="622"/>
      <point x="44" y="528" type="curve" smooth="yes"/>
      <point x="44" y="435"/>
      <point x="110" y="366"/>
    </contour>
    <contour>
      <point x="201" y="398" type="curve" smooth="yes"/>
      <point x="130" y="398"/>
      <point x="80" y="452"/>
      <point x="80" y="528" type="curve" smooth="yes"/>
      <point x="80" y="604"/>
      <point x="130" y="658"/>
      <point x="201" y="658" type="curve" smooth="yes"/>
      <point x="272" y="658"/>
      <point x="322" y="604"/>
      <point x="322" y="528" type="curve" smooth="yes"/>
      <point x="322" y="452"/>
      <point x="272" y="398"/>
    </contour>
  </outline>
</glyph>
<glyph name="plusminus" format="1">
  <advance width="588"/>
  <unicode hex="00B1"/>
  <outline>
    <contour>
      <point x="501" y="318" type="line"/>
      <point x="501" y="350" type="line"/>
      <point x="311" y="350" type="line"/>
      <point x="311" y="544" type="line"/>
      <point x="277" y="544" type="line"/>
      <point x="277" y="350" type="line"/>
      <point x="87" y="350" type="line"/>
      <point x="87" y="318" type="line"/>
      <point x="277" y="318" type="line"/>
      <point x="277" y="124" type="line"/>
      <point x="311" y="124" type="line"/>
      <point x="311" y="318" type="line"/>
    </contour>
    <contour>
      <point x="87" y="0" type="line"/>
      <point x="501" y="0" type="line"/>
      <point x="501" y="32" type="line"/>
      <point x="87" y="32" type="line"/>
    </contour>
  </outline>
</glyph>
<glyph name="acute" format="1">
  <advance width="500"/>
  <unicode hex="00B4"/>
  <outline>
    <contour>
      <point x="249" y="579" type="line"/>
      <point x="300" y="629"/>
      <point x="341" y="681"/>
      <point x="377" y="740" type="curve"/>
      <point x="301" y="740" type="line"/>
      <point x="284" y="678"/>
      <point x="266" y="643"/>
      <point x="230" y="598" type="curve"/>
    </contour>
  </outline>
</glyph>
<glyph name="mu" format="1">
  <advance width="606"/>
  <unicode hex="00B5"/>
  <outline>
    <contour>
      <point x="330" y="462" type="line"/>
      <point x="405" y="457" type="line" smooth="yes"/>
      <point x="426" y="456"/>
      <point x="427" y="455"/>
      <point x="427" y="408" type="curve"/>
      <point x="427" y="118" type="line"/>
      <point x="371" y="48"/>
      <point x="316" y="27"/>
      <point x="267" y="27" type="curve" smooth="yes"/>
      <point x="206" y="27"/>
      <point x="172" y="60"/>
      <point x="172" y="161" type="curve" smooth="yes"/>
      <point x="172" y="487" type="line"/>
      <point x="35" y="487" type="line"/>
      <point x="35" y="462" type="line"/>
      <point x="90" y="457" type="line" smooth="yes"/>
      <point x="111" y="455"/>
      <point x="112" y="455"/>
      <point x="112" y="408" type="curve"/>
      <point x="112" y="-213" type="line"/>
      <point x="180" y="-193" type="line"/>
      <point x="161" y="-127"/>
      <point x="153" y="-79"/>
      <point x="152" y="31" type="curve"/>
      <point x="177" y="4"/>
      <point x="212" y="-10"/>
      <point x="258" y="-10" type="curve" smooth="yes"/>
      <point x="316" y="-10"/>
      <point x="376" y="15"/>
      <point x="428" y="74" type="curve"/>
      <point x="433" y="24"/>
      <point x="463" y="-5"/>
      <point x="511" y="-5" type="curve" smooth="yes"/>
      <point x="545" y="-5"/>
      <point x="570" y="7"/>
      <point x="589" y="24" type="curve"/>
      <point x="571" y="48" type="line"/>
      <point x="556" y="35"/>
      <point x="541" y="30"/>
      <point x="530" y="30" type="curve" smooth="yes"/>
      <point x="508" y="30"/>
      <point x="487" y="39"/>
      <point x="487" y="107" type="curve" smooth="yes"/>
      <point x="487" y="487" type="line"/>
      <point x="330" y="487" type="line"/>
    </contour>
  </outline>
</glyph>
<glyph name="paragraph" format="1">
  <advance width="555"/>
  <unicode hex="00B6"/>
  <outline>
    <contour>
      <point x="41" y="502" type="curve" smooth="yes"/>
      <point x="41" y="469" type="line" smooth="yes"/>
      <point x="41" y="361"/>
      <point x="111" y="290"/>
      <point x="234" y="290" type="curve" smooth="yes"/>
      <point x="293" y="290" type="line"/>
      <point x="293" y="650" type="line"/>
      <point x="364" y="650" type="line"/>
      <point x="364" y="-64" type="line"/>
      <point x="364" y="-111"/>
      <point x="363" y="-112"/>
      <point x="342" y="-113" type="curve" smooth="yes"/>
      <point x="267" y="-118" type="line"/>
      <point x="267" y="-143" type="line"/>
      <point x="506" y="-143" type="line"/>
      <point x="506" y="-118" type="line"/>
      <point x="451" y="-113" type="line" smooth="yes"/>
      <point x="430" y="-111"/>
      <point x="429" y="-111"/>
      <point x="429" y="-64" type="curve"/>
      <point x="429" y="601" type="line"/>
      <point x="429" y="648"/>
      <point x="430" y="648"/>
      <point x="451" y="650" type="curve" smooth="yes"/>
      <point x="506" y="655" type="line"/>
      <point x="506" y="680" type="line"/>
      <point x="234" y="680" type="line" smooth="yes"/>
      <point x="111" y="680"/>
      <point x="41" y="610"/>
    </contour>
  </outline>
</glyph>
<glyph name="periodcentered" format="1">
  <advance width="500"/>
  <unicode hex="00B7"/>
  <outline>
    <contour>
      <point x="250" y="339" type="curve" smooth="yes"/>
      <point x="277" y="339"/>
      <point x="296" y="358"/>
      <point x="296" y="385" type="curve" smooth="yes"/>
      <point x="296" y="411"/>
      <point x="277" y="430"/>
      <point x="250" y="430" type="curve" smooth="yes"/>
      <point x="224" y="430"/>
      <point x="205" y="411"/>
      <point x="205" y="385" type="curve" smooth="yes"/>
      <point x="205" y="358"/>
      <point x="224" y="339"/>
    </contour>
  </outline>
</glyph>
<glyph name="cedilla" format="1">
  <advance width="500"/>
  <unicode hex="00B8"/>
  <outline>
    <contour>
      <point x="355" y="-141" type="curve" smooth="yes"/>
      <point x="355" y="-90"/>
      <point x="311" y="-60"/>
      <point x="244" y="-60" type="curve" smooth="yes"/>
      <point x="240" y="-60" type="line"/>
      <point x="265" y="0" type="line"/>
      <point x="233" y="0" type="line"/>
      <point x="207" y="-63" type="line"/>
      <point x="216" y="-88" type="line"/>
      <point x="221" y="-87"/>
      <point x="233" y="-86"/>
      <point x="241" y="-86" type="curve" smooth="yes"/>
      <point x="288" y="-86"/>
      <point x="302" y="-109"/>
      <point x="302" y="-141" type="curve" smooth="yes"/>
      <point x="302" y="-174"/>
      <point x="286" y="-198"/>
      <point x="248" y="-198" type="curve" smooth="yes"/>
      <point x="215" y="-198"/>
      <point x="194" y="-180"/>
      <point x="189" y="-132" type="curve"/>
      <point x="145" y="-145" type="line"/>
      <point x="156" y="-203"/>
      <point x="201" y="-223"/>
      <point x="250" y="-223" type="curve" smooth="yes"/>
      <point x="313" y="-223"/>
      <point x="355" y="-192"/>
    </contour>
  </outline>
</glyph>
<glyph name="ordmasculine" format="1">
  <advance width="398"/>
  <unicode hex="00BA"/>
  <outline>
    <contour>
      <point x="343" y="517" type="line" smooth="yes"/>
      <point x="343" y="619"/>
      <point x="291" y="685"/>
      <point x="199" y="685" type="curve" smooth="yes"/>
      <point x="107" y="685"/>
      <point x="55" y="619"/>
      <point x="55" y="517" type="curve" smooth="yes"/>
      <point x="55" y="504" type="line" smooth="yes"/>
      <point x="55" y="401"/>
      <point x="107" y="335"/>
      <point x="199" y="335" type="curve" smooth="yes"/>
      <point x="290" y="335"/>
      <point x="343" y="401"/>
      <point x="343" y="504" type="curve" smooth="yes"/>
    </contour>
    <contour>
      <point x="290" y="531" type="curve" smooth="yes"/>
      <point x="290" y="490" type="line" smooth="yes"/>
      <point x="290" y="395"/>
      <point x="261" y="359"/>
      <point x="199" y="359" type="curve" smooth="yes"/>
      <point x="137" y="359"/>
      <point x="108" y="395"/>
      <point x="108" y="490" type="curve" smooth="yes"/>
      <point x="108" y="531" type="line" smooth="yes"/>
      <point x="108" y="626"/>
      <point x="137" y="661"/>
      <point x="199" y="661" type="curve" smooth="yes"/>
      <point x="261" y="661"/>
      <point x="290" y="626"/>
    </contour>
  </outline>
</glyph>
<glyph name="guillemotright" format="1">
  <advance width="642"/>
  <unicode hex="00BB"/>
  <outline>
    <contour>
      <point x="59" y="463" type="line"/>
      <point x="259" y="245" type="line"/>
      <point x="59" y="27" type="line"/>
      <point x="74" y="11" type="line"/>
      <point x="336" y="233" type="line"/>
      <point x="336" y="257" type="line"/>
      <point x="74" y="479" type="line"/>
    </contour>
    <contour>
      <point x="309" y="463" type="line"/>
      <point x="509" y="245" type="line"/>
      <point x="309" y="27" type="line"/>
      <point x="324" y="11" type="line"/>
      <point x="586" y="233" type="line"/>
      <point x="586" y="257" type="line"/>
      <point x="324" y="479" type="line"/>
    </contour>
  </outline>
</glyph>
<glyph name="questiondown" format="1">
  <advance width="471"/>
  <unicode hex="00BF"/>
  <outline>
    <contour>
      <point x="243" y="497" type="curve" smooth="yes"/>
      <point x="215" y="497"/>
      <point x="195" y="477"/>
      <point x="195" y="449" type="curve" smooth="yes"/>
      <point x="195" y="422"/>
      <point x="215" y="402"/>
      <point x="243" y="402" type="curve" smooth="yes"/>
      <point x="270" y="402"/>
      <point x="290" y="422"/>
      <point x="290" y="449" type="curve" smooth="yes"/>
      <point x="290" y="477"/>
      <point x="270" y="497"/>
    </contour>
    <contour>
      <point x="220" y="315" type="line"/>
      <point x="223" y="288" type="line" smooth="yes"/>
      <point x="240" y="133"/>
      <point x="49" y="164"/>
      <point x="49" y="-27" type="curve" smooth="yes"/>
      <point x="49" y="-118"/>
      <point x="103" y="-203"/>
      <point x="239" y="-203" type="curve" smooth="yes"/>
      <point x="380" y="-203"/>
      <point x="442" y="-103"/>
      <point x="423" y="4" type="curve"/>
      <point x="363" y="20" type="line"/>
      <point x="376" y="-104"/>
      <point x="339" y="-173"/>
      <point x="240" y="-173" type="curve" smooth="yes"/>
      <point x="163" y="-173"/>
      <point x="119" y="-123"/>
      <point x="119" y="-16" type="curve" smooth="yes"/>
      <point x="119" y="154"/>
      <point x="263" y="135"/>
      <point x="263" y="289" type="curve" smooth="yes"/>
      <point x="263" y="315" type="line"/>
    </contour>
  </outline>
</glyph>
<glyph name="Aring" format="1">
  <advance width="622"/>
  <unicode hex="00C5"/>
  <outline>
    <contour>
      <point x="189" y="25" type="line"/>
      <point x="134" y="30" type="line" smooth="yes"/>
      <point x="112" y="32"/>
      <point x="111" y="33"/>
      <point x="126" y="79" type="curve" smooth="yes"/>
      <point x="168" y="210" type="line"/>
      <point x="421" y="210" type="line"/>
      <point x="464" y="79" type="line" smooth="yes"/>
      <point x="479" y="34"/>
      <point x="478" y="32"/>
      <point x="456" y="30" type="curve" smooth="yes"/>
      <point x="401" y="25" type="line"/>
      <point x="401" y="0" type="line"/>
      <point x="622" y="0" type="line"/>
      <point x="622" y="25" type="line"/>
      <point x="567" y="30" type="line" smooth="yes"/>
      <point x="547" y="32"/>
      <point x="546" y="32"/>
      <point x="531" y="79" type="curve" smooth="yes"/>
      <point x="341" y="658" type="line"/>
      <point x="396" y="671"/>
      <point x="428" y="716"/>
      <point x="428" y="760" type="curve" smooth="yes"/>
      <point x="428" y="771" type="line" smooth="yes"/>
      <point x="428" y="822"/>
      <point x="384" y="875"/>
      <point x="310" y="875" type="curve" smooth="yes"/>
      <point x="235" y="875"/>
      <point x="192" y="822"/>
      <point x="192" y="771" type="curve" smooth="yes"/>
      <point x="192" y="760" type="line" smooth="yes"/>
      <point x="192" y="715"/>
      <point x="224" y="670"/>
      <point x="280" y="658" type="curve"/>
      <point x="92" y="79" type="line" smooth="yes"/>
      <point x="77" y="32"/>
      <point x="76" y="32"/>
      <point x="55" y="30" type="curve" smooth="yes"/>
      <point x="0" y="25" type="line"/>
      <point x="0" y="0" type="line"/>
      <point x="189" y="0" type="line"/>
    </contour>
    <contour>
      <point x="377" y="778" type="curve" smooth="yes"/>
      <point x="377" y="753" type="line" smooth="yes"/>
      <point x="377" y="708"/>
      <point x="352" y="680"/>
      <point x="310" y="680" type="curve" smooth="yes"/>
      <point x="268" y="680"/>
      <point x="244" y="708"/>
      <point x="244" y="753" type="curve" smooth="yes"/>
      <point x="244" y="778" type="line" smooth="yes"/>
      <point x="244" y="823"/>
      <point x="268" y="850"/>
      <point x="310" y="850" type="curve" smooth="yes"/>
      <point x="352" y="850"/>
      <point x="377" y="823"/>
    </contour>
    <contour>
      <point x="178" y="240" type="line"/>
      <point x="295" y="600" type="line"/>
      <point x="412" y="240" type="line"/>
    </contour>
  </outline>
</glyph>
<glyph name="AE" format="1">
  <advance width="875"/>
  <unicode hex="00C6"/>
  <outline>
    <contour>
      <point x="827" y="157" type="line"/>
      <point x="803" y="157" type="line"/>
      <point x="776" y="56" type="line" smooth="yes"/>
      <point x="770" y="33"/>
      <point x="769" y="30"/>
      <point x="722" y="30" type="curve"/>
      <point x="504" y="30" type="line"/>
      <point x="504" y="329" type="line"/>
      <point x="652" y="329" type="line"/>
      <point x="699" y="329"/>
      <point x="700" y="327"/>
      <point x="706" y="303" type="curve" smooth="yes"/>
      <point x="723" y="232" type="line"/>
      <point x="747" y="232" type="line"/>
      <point x="747" y="456" type="line"/>
      <point x="723" y="456" type="line"/>
      <point x="706" y="385" type="line" smooth="yes"/>
      <point x="700" y="361"/>
      <point x="699" y="359"/>
      <point x="652" y="359" type="curve"/>
      <point x="504" y="359" type="line"/>
      <point x="504" y="650" type="line"/>
      <point x="712" y="650" type="line"/>
      <point x="759" y="650"/>
      <point x="760" y="647"/>
      <point x="766" y="624" type="curve" smooth="yes"/>
      <point x="793" y="523" type="line"/>
      <point x="817" y="523" type="line"/>
      <point x="817" y="680" type="line"/>
      <point x="333" y="680" type="line"/>
      <point x="333" y="655" type="line"/>
      <point x="388" y="650" type="line" smooth="yes"/>
      <point x="409" y="648"/>
      <point x="409" y="647"/>
      <point x="384" y="601" type="curve" smooth="yes"/>
      <point x="102" y="79" type="line" smooth="yes"/>
      <point x="77" y="33"/>
      <point x="76" y="32"/>
      <point x="55" y="30" type="curve" smooth="yes"/>
      <point x="0" y="25" type="line"/>
      <point x="0" y="0" type="line"/>
      <point x="193" y="0" type="line"/>
      <point x="193" y="25" type="line"/>
      <point x="138" y="30" type="line" smooth="yes"/>
      <point x="116" y="32"/>
      <point x="116" y="34"/>
      <point x="140" y="79" type="curve" smooth="yes"/>
      <point x="211" y="210" type="line"/>
      <point x="439" y="210" type="line"/>
      <point x="439" y="79" type="line"/>
      <point x="439" y="32"/>
      <point x="438" y="32"/>
      <point x="417" y="30" type="curve" smooth="yes"/>
      <point x="362" y="25" type="line"/>
      <point x="362" y="0" type="line"/>
      <point x="827" y="0" type="line"/>
    </contour>
    <contour>
      <point x="227" y="240" type="line"/>
      <point x="439" y="632" type="line"/>
      <point x="439" y="240" type="line"/>
    </contour>
  </outline>
</glyph>
<glyph name="Ccedilla" format="1">
  <advance width="579"/>
  <unicode hex="00C7"/>
  <outline>
    <contour>
      <point x="431" y="-141" type="curve" smooth="yes"/>
      <point x="431" y="-90"/>
      <point x="387" y="-60"/>
      <point x="320" y="-60" type="curve" smooth="yes"/>
      <point x="316" y="-60" type="line"/>
      <point x="337" y="-10" type="line"/>
      <point x="424" y="-6"/>
      <point x="498" y="33"/>
      <point x="526" y="131" type="curve"/>
      <point x="470" y="144" type="line"/>
      <point x="459" y="50"/>
      <point x="392" y="20"/>
      <point x="326" y="20" type="curve" smooth="yes"/>
      <point x="212" y="20"/>
      <point x="153" y="87"/>
      <point x="153" y="249" type="curve" smooth="yes"/>
      <point x="153" y="432" type="line" smooth="yes"/>
      <point x="153" y="594"/>
      <point x="211" y="660"/>
      <point x="322" y="660" type="curve" smooth="yes"/>
      <point x="420" y="660"/>
      <point x="468" y="591"/>
      <point x="454" y="467" type="curve"/>
      <point x="519" y="483" type="line"/>
      <point x="538" y="591"/>
      <point x="468" y="690"/>
      <point x="320" y="690" type="curve" smooth="yes"/>
      <point x="166" y="690"/>
      <point x="80" y="568"/>
      <point x="80" y="382" type="curve" smooth="yes"/>
      <point x="80" y="299" type="line" smooth="yes"/>
      <point x="80" y="117"/>
      <point x="156" y="-1"/>
      <point x="305" y="-9" type="curve"/>
      <point x="283" y="-63" type="line"/>
      <point x="292" y="-88" type="line"/>
      <point x="297" y="-87"/>
      <point x="309" y="-86"/>
      <point x="317" y="-86" type="curve" smooth="yes"/>
      <point x="364" y="-86"/>
      <point x="378" y="-109"/>
      <point x="378" y="-141" type="curve" smooth="yes"/>
      <point x="378" y="-174"/>
      <point x="362" y="-198"/>
      <point x="324" y="-198" type="curve" smooth="yes"/>
      <point x="291" y="-198"/>
      <point x="270" y="-180"/>
      <point x="265" y="-132" type="curve"/>
      <point x="221" y="-145" type="line"/>
      <point x="232" y="-203"/>
      <point x="277" y="-223"/>
      <point x="326" y="-223" type="curve" smooth="yes"/>
      <point x="389" y="-223"/>
      <point x="431" y="-192"/>
    </contour>
  </outline>
</glyph>
<glyph name="Eth" format="1">
  <advance width="655"/>
  <unicode hex="00D0"/>
  <outline>
    <contour>
      <point x="55" y="655" type="line"/>
      <point x="110" y="650" type="line" smooth="yes"/>
      <point x="131" y="648"/>
      <point x="132" y="648"/>
      <point x="132" y="601" type="curve"/>
      <point x="132" y="369" type="line"/>
      <point x="55" y="369" type="line"/>
      <point x="55" y="339" type="line"/>
      <point x="132" y="339" type="line"/>
      <point x="132" y="79" type="line"/>
      <point x="132" y="32"/>
      <point x="131" y="32"/>
      <point x="110" y="30" type="curve" smooth="yes"/>
      <point x="55" y="25" type="line"/>
      <point x="55" y="0" type="line"/>
      <point x="332" y="0" type="line" smooth="yes"/>
      <point x="487" y="0"/>
      <point x="575" y="118"/>
      <point x="575" y="299" type="curve" smooth="yes"/>
      <point x="575" y="382" type="line" smooth="yes"/>
      <point x="575" y="562"/>
      <point x="487" y="680"/>
      <point x="332" y="680" type="curve" smooth="yes"/>
      <point x="55" y="680" type="line"/>
    </contour>
    <contour>
      <point x="359" y="339" type="line"/>
      <point x="359" y="369" type="line"/>
      <point x="197" y="369" type="line"/>
      <point x="197" y="650" type="line"/>
      <point x="332" y="650" type="line" smooth="yes"/>
      <point x="443" y="650"/>
      <point x="502" y="588"/>
      <point x="502" y="432" type="curve" smooth="yes"/>
      <point x="502" y="249" type="line" smooth="yes"/>
      <point x="502" y="93"/>
      <point x="443" y="30"/>
      <point x="332" y="30" type="curve" smooth="yes"/>
      <point x="197" y="30" type="line"/>
      <point x="197" y="339" type="line"/>
    </contour>
  </outline>
</glyph>
<glyph name="multiply" format="1">
  <advance width="588"/>
  <unicode hex="00D7"/>
  <outline>
    <contour>
      <point x="481" y="171" type="line"/>
      <point x="318" y="334" type="line"/>
      <point x="481" y="497" type="line"/>
      <point x="457" y="521" type="line"/>
      <point x="294" y="358" type="line"/>
      <point x="131" y="521" type="line"/>
      <point x="107" y="497" type="line"/>
      <point x="270" y="334" type="line"/>
      <point x="107" y="171" type="line"/>
      <point x="131" y="147" type="line"/>
      <point x="294" y="310" type="line"/>
      <point x="457" y="147" type="line"/>
    </contour>
  </outline>
</glyph>
<glyph name="Oslash" format="1">
  <advance width="662"/>
  <unicode hex="00D8"/>
  <outline>
    <contour>
      <point x="582" y="299" type="curve" smooth="yes"/>
      <point x="582" y="382" type="line" smooth="yes"/>
      <point x="582" y="469"/>
      <point x="562" y="542"/>
      <point x="524" y="595" type="curve"/>
      <point x="582" y="680" type="line"/>
      <point x="542" y="680" type="line"/>
      <point x="502" y="622" type="line"/>
      <point x="460" y="666"/>
      <point x="403" y="690"/>
      <point x="331" y="690" type="curve" smooth="yes"/>
      <point x="170" y="690"/>
      <point x="80" y="568"/>
      <point x="80" y="382" type="curve" smooth="yes"/>
      <point x="80" y="299" type="line" smooth="yes"/>
      <point x="80" y="211"/>
      <point x="100" y="138"/>
      <point x="137" y="85" type="curve"/>
      <point x="80" y="0" type="line"/>
      <point x="120" y="0" type="line"/>
      <point x="159" y="58" type="line"/>
      <point x="201" y="14"/>
      <point x="259" y="-10"/>
      <point x="331" y="-10" type="curve" smooth="yes"/>
      <point x="491" y="-10"/>
      <point x="582" y="112"/>
    </contour>
    <contour>
      <point x="153" y="249" type="curve" smooth="yes"/>
      <point x="153" y="432" type="line" smooth="yes"/>
      <point x="153" y="595"/>
      <point x="217" y="660"/>
      <point x="331" y="660" type="curve" smooth="yes"/>
      <point x="398" y="660"/>
      <point x="448" y="637"/>
      <point x="478" y="585" type="curve"/>
      <point x="169" y="131" type="line"/>
      <point x="158" y="163"/>
      <point x="153" y="202"/>
    </contour>
    <contour>
      <point x="509" y="432" type="curve" smooth="yes"/>
      <point x="509" y="249" type="line" smooth="yes"/>
      <point x="509" y="87"/>
      <point x="445" y="20"/>
      <point x="331" y="20" type="curve" smooth="yes"/>
      <point x="264" y="20"/>
      <point x="214" y="43"/>
      <point x="185" y="95" type="curve"/>
      <point x="493" y="549" type="line"/>
      <point x="504" y="518"/>
      <point x="509" y="479"/>
    </contour>
  </outline>
</glyph>
<glyph name="Thorn" format="1">
  <advance width="558"/>
  <unicode hex="00DE"/>
  <outline>
    <contour>
      <point x="52" y="655" type="line"/>
      <point x="107" y="650" type="line" smooth="yes"/>
      <point x="128" y="648"/>
      <point x="129" y="648"/>
      <point x="129" y="601" type="curve"/>
      <point x="129" y="79" type="line"/>
      <point x="129" y="32"/>
      <point x="128" y="32"/>
      <point x="107" y="30" type="curve" smooth="yes"/>
      <point x="52" y="25" type="line"/>
      <point x="52" y="0" type="line"/>
      <point x="291" y="0" type="line"/>
      <point x="291" y="25" type="line"/>
      <point x="216" y="30" type="line" smooth="yes"/>
      <point x="195" y="31"/>
      <point x="194" y="32"/>
      <point x="194" y="79" type="curve"/>
      <point x="194" y="146" type="line"/>
      <point x="324" y="146" type="line" smooth="yes"/>
      <point x="447" y="146"/>
      <point x="517" y="217"/>
      <point x="517" y="325" type="curve" smooth="yes"/>
      <point x="517" y="358" type="line" smooth="yes"/>
      <point x="517" y="466"/>
      <point x="447" y="536"/>
      <point x="324" y="536" type="curve" smooth="yes"/>
      <point x="194" y="536" type="line"/>
      <point x="194" y="601" type="line"/>
      <point x="194" y="648"/>
      <point x="195" y="649"/>
      <point x="216" y="650" type="curve" smooth="yes"/>
      <point x="291" y="655" type="line"/>
      <point x="291" y="680" type="line"/>
      <point x="52" y="680" type="line"/>
    </contour>
    <contour>
      <point x="324" y="506" type="line" smooth="yes"/>
      <point x="406" y="506"/>
      <point x="449" y="464"/>
      <point x="449" y="368" type="curve" smooth="yes"/>
      <point x="449" y="315" type="line" smooth="yes"/>
      <point x="449" y="218"/>
      <point x="406" y="176"/>
      <point x="324" y="176" type="curve" smooth="yes"/>
      <point x="194" y="176" type="line"/>
      <point x="194" y="506" type="line"/>
    </contour>
  </outline>
</glyph>
<glyph name="germandbls" format="1">
  <advance width="615"/>
  <unicode hex="00DF"/>
  <outline>
    <contour>
      <point x="181" y="581" type="line" smooth="yes"/>
      <point x="181" y="693"/>
      <point x="223" y="720"/>
      <point x="294" y="720" type="curve" smooth="yes"/>
      <point x="382" y="720"/>
      <point x="402" y="671"/>
      <point x="402" y="615" type="curve" smooth="yes"/>
      <point x="402" y="501"/>
      <point x="323" y="457"/>
      <point x="323" y="370" type="curve" smooth="yes"/>
      <point x="323" y="310"/>
      <point x="361" y="281"/>
      <point x="411" y="243" type="curve" smooth="yes"/>
      <point x="453" y="211" type="line" smooth="yes"/>
      <point x="506" y="171"/>
      <point x="523" y="141"/>
      <point x="523" y="108" type="curve" smooth="yes"/>
      <point x="523" y="48"/>
      <point x="477" y="19"/>
      <point x="426" y="19" type="curve" smooth="yes"/>
      <point x="370" y="19"/>
      <point x="327" y="41"/>
      <point x="310" y="127" type="curve"/>
      <point x="261" y="111" type="line"/>
      <point x="280" y="30"/>
      <point x="339" y="-10"/>
      <point x="427" y="-10" type="curve" smooth="yes"/>
      <point x="521" y="-10"/>
      <point x="570" y="47"/>
      <point x="570" y="121" type="curve" smooth="yes"/>
      <point x="570" y="186"/>
      <point x="534" y="231"/>
      <point x="484" y="268" type="curve" smooth="yes"/>
      <point x="441" y="300" type="line" smooth="yes"/>
      <point x="392" y="337"/>
      <point x="370" y="353"/>
      <point x="370" y="396" type="curve" smooth="yes"/>
      <point x="370" y="485"/>
      <point x="459" y="530"/>
      <point x="459" y="621" type="curve" smooth="yes"/>
      <point x="459" y="682"/>
      <point x="415" y="750"/>
      <point x="294" y="750" type="curve" smooth="yes"/>
      <point x="157" y="750"/>
      <point x="121" y="665"/>
      <point x="121" y="571" type="curve" smooth="yes"/>
      <point x="121" y="487" type="line"/>
      <point x="44" y="487" type="line"/>
      <point x="44" y="462" type="line"/>
      <point x="99" y="457" type="line" smooth="yes"/>
      <point x="120" y="455"/>
      <point x="121" y="455"/>
      <point x="121" y="408" type="curve"/>
      <point x="121" y="79" type="line"/>
      <point x="121" y="32"/>
      <point x="120" y="32"/>
      <point x="99" y="30" type="curve" smooth="yes"/>
      <point x="44" y="25" type="line"/>
      <point x="44" y="0" type="line"/>
      <point x="181" y="0" type="line"/>
    </contour>
  </outline>
</glyph>
<glyph name="ae" format="1">
  <advance width="820"/>
  <unicode hex="00E6"/>
  <outline>
    <contour>
      <point x="750" y="111" type="curve"/>
      <point x="704" y="124" type="line"/>
      <point x="687" y="47"/>
      <point x="645" y="20"/>
      <point x="580" y="20" type="curve" smooth="yes"/>
      <point x="477" y="20"/>
      <point x="436" y="76"/>
      <point x="436" y="214" type="curve" smooth="yes"/>
      <point x="436" y="245" type="line"/>
      <point x="749" y="245" type="line"/>
      <point x="753" y="267"/>
      <point x="755" y="287"/>
      <point x="755" y="306" type="curve" smooth="yes"/>
      <point x="755" y="435"/>
      <point x="667" y="497"/>
      <point x="566" y="497" type="curve" smooth="yes"/>
      <point x="493" y="497"/>
      <point x="440" y="463"/>
      <point x="409" y="406" type="curve"/>
      <point x="390" y="459"/>
      <point x="346" y="497"/>
      <point x="255" y="497" type="curve" smooth="yes"/>
      <point x="140" y="497"/>
      <point x="83" y="429"/>
      <point x="91" y="336" type="curve"/>
      <point x="149" y="326" type="line"/>
      <point x="136" y="440"/>
      <point x="184" y="467"/>
      <point x="253" y="467" type="curve" smooth="yes"/>
      <point x="324" y="467"/>
      <point x="368" y="434"/>
      <point x="368" y="328" type="curve" smooth="yes"/>
      <point x="368" y="247" type="line"/>
      <point x="241" y="247" type="line" smooth="yes"/>
      <point x="116" y="247"/>
      <point x="69" y="201"/>
      <point x="69" y="122" type="curve" smooth="yes"/>
      <point x="69" y="51"/>
      <point x="110" y="-10"/>
      <point x="204" y="-10" type="curve" smooth="yes"/>
      <point x="269" y="-10"/>
      <point x="337" y="21"/>
      <point x="394" y="98" type="curve"/>
      <point x="425" y="30"/>
      <point x="485" y="-10"/>
      <point x="575" y="-10" type="curve" smooth="yes"/>
      <point x="652" y="-10"/>
      <point x="726" y="22"/>
    </contour>
    <contour>
      <point x="566" y="467" type="curve" smooth="yes"/>
      <point x="641" y="467"/>
      <point x="692" y="423"/>
      <point x="692" y="314" type="curve" smooth="yes"/>
      <point x="692" y="303"/>
      <point x="691" y="291"/>
      <point x="690" y="279" type="curve" smooth="yes"/>
      <point x="690" y="275" type="line"/>
      <point x="436" y="275" type="line"/>
      <point x="436" y="412"/>
      <point x="478" y="467"/>
    </contour>
    <contour>
      <point x="221" y="25" type="curve" smooth="yes"/>
      <point x="161" y="25"/>
      <point x="132" y="63"/>
      <point x="132" y="127" type="curve" smooth="yes"/>
      <point x="132" y="189"/>
      <point x="167" y="217"/>
      <point x="249" y="217" type="curve" smooth="yes"/>
      <point x="368" y="217" type="line"/>
      <point x="370" y="185"/>
      <point x="374" y="155"/>
      <point x="382" y="129" type="curve"/>
      <point x="321" y="43"/>
      <point x="265" y="25"/>
    </contour>
  </outline>
</glyph>
<glyph name="ccedilla" format="1">
  <advance width="502"/>
  <unicode hex="00E7"/>
  <outline>
    <contour>
      <point x="386" y="-141" type="curve" smooth="yes"/>
      <point x="386" y="-90"/>
      <point x="342" y="-60"/>
      <point x="275" y="-60" type="curve" smooth="yes"/>
      <point x="271" y="-60" type="line"/>
      <point x="292" y="-9" type="line"/>
      <point x="360" y="-4"/>
      <point x="423" y="29"/>
      <point x="445" y="111" type="curve"/>
      <point x="399" y="124" type="line"/>
      <point x="382" y="47"/>
      <point x="343" y="20"/>
      <point x="279" y="20" type="curve" smooth="yes"/>
      <point x="179" y="20"/>
      <point x="139" y="76"/>
      <point x="139" y="214" type="curve" smooth="yes"/>
      <point x="139" y="274" type="line" smooth="yes"/>
      <point x="139" y="412"/>
      <point x="187" y="467"/>
      <point x="269" y="467" type="curve" smooth="yes"/>
      <point x="355" y="467"/>
      <point x="395" y="411"/>
      <point x="381" y="309" type="curve"/>
      <point x="438" y="318" type="line"/>
      <point x="454" y="420"/>
      <point x="389" y="497"/>
      <point x="269" y="497" type="curve" smooth="yes"/>
      <point x="140" y="497"/>
      <point x="71" y="401"/>
      <point x="71" y="254" type="curve" smooth="yes"/>
      <point x="71" y="234" type="line" smooth="yes"/>
      <point x="71" y="91"/>
      <point x="133" y="-3"/>
      <point x="260" y="-10" type="curve"/>
      <point x="238" y="-63" type="line"/>
      <point x="247" y="-88" type="line"/>
      <point x="252" y="-87"/>
      <point x="264" y="-86"/>
      <point x="272" y="-86" type="curve" smooth="yes"/>
      <point x="319" y="-86"/>
      <point x="333" y="-109"/>
      <point x="333" y="-141" type="curve" smooth="yes"/>
      <point x="333" y="-174"/>
      <point x="317" y="-198"/>
      <point x="279" y="-198" type="curve" smooth="yes"/>
      <point x="246" y="-198"/>
      <point x="225" y="-180"/>
      <point x="220" y="-132" type="curve"/>
      <point x="176" y="-145" type="line"/>
      <point x="187" y="-203"/>
      <point x="232" y="-223"/>
      <point x="281" y="-223" type="curve" smooth="yes"/>
      <point x="344" y="-223"/>
      <point x="386" y="-192"/>
    </contour>
  </outline>
</glyph>
<glyph name="eth" format="1">
  <advance width="558"/>
  <unicode hex="00F0"/>
  <outline>
    <contour>
      <point x="485" y="264" type="curve" smooth="yes"/>
      <point x="485" y="284" type="line" smooth="yes"/>
      <point x="485" y="437"/>
      <point x="427" y="558"/>
      <point x="334" y="645" type="curve"/>
      <point x="443" y="725" type="line"/>
      <point x="427" y="750" type="line"/>
      <point x="311" y="665" type="line"/>
      <point x="271" y="699"/>
      <point x="224" y="727"/>
      <point x="174" y="750" type="curve"/>
      <point x="164" y="726" type="line"/>
      <point x="204" y="706"/>
      <point x="245" y="680"/>
      <point x="283" y="644" type="curve"/>
      <point x="167" y="559" type="line"/>
      <point x="183" y="534" type="line"/>
      <point x="304" y="623" type="line"/>
      <point x="355" y="568"/>
      <point x="396" y="494"/>
      <point x="411" y="392" type="curve"/>
      <point x="369" y="431"/>
      <point x="321" y="447"/>
      <point x="271" y="447" type="curve" smooth="yes"/>
      <point x="143" y="447"/>
      <point x="69" y="361"/>
      <point x="69" y="229" type="curve" smooth="yes"/>
      <point x="69" y="209" type="line" smooth="yes"/>
      <point x="69" y="76"/>
      <point x="144" y="-10"/>
      <point x="275" y="-10" type="curve" smooth="yes"/>
      <point x="414" y="-10"/>
      <point x="485" y="98"/>
    </contour>
    <contour>
      <point x="137" y="189" type="curve" smooth="yes"/>
      <point x="137" y="249" type="line" smooth="yes"/>
      <point x="137" y="370"/>
      <point x="187" y="417"/>
      <point x="271" y="417" type="curve" smooth="yes"/>
      <point x="319" y="417"/>
      <point x="368" y="403"/>
      <point x="416" y="345" type="curve"/>
      <point x="417" y="332"/>
      <point x="417" y="318"/>
      <point x="417" y="304" type="curve" smooth="yes"/>
      <point x="417" y="244" type="line" smooth="yes"/>
      <point x="417" y="85"/>
      <point x="372" y="20"/>
      <point x="275" y="20" type="curve" smooth="yes"/>
      <point x="187" y="20"/>
      <point x="137" y="69"/>
    </contour>
  </outline>
</glyph>
<glyph name="divide" format="1">
  <advance width="588"/>
  <unicode hex="00F7"/>
  <outline>
    <contour>
      <point x="294" y="493" type="curve" smooth="yes"/>
      <point x="322" y="493"/>
      <point x="342" y="513"/>
      <point x="342" y="541" type="curve" smooth="yes"/>
      <point x="342" y="568"/>
      <point x="322" y="588"/>
      <point x="294" y="588" type="curve" smooth="yes"/>
      <point x="267" y="588"/>
      <point x="247" y="568"/>
      <point x="247" y="541" type="curve" smooth="yes"/>
      <point x="247" y="513"/>
      <point x="267" y="493"/>
    </contour>
    <contour>
      <point x="87" y="318" type="line"/>
      <point x="501" y="318" type="line"/>
      <point x="501" y="350" type="line"/>
      <point x="87" y="350" type="line"/>
    </contour>
    <contour>
      <point x="294" y="80" type="curve" smooth="yes"/>
      <point x="322" y="80"/>
      <point x="342" y="100"/>
      <point x="342" y="128" type="curve" smooth="yes"/>
      <point x="342" y="155"/>
      <point x="322" y="175"/>
      <point x="294" y="175" type="curve" smooth="yes"/>
      <point x="267" y="175"/>
      <point x="247" y="155"/>
      <point x="247" y="128" type="curve" smooth="yes"/>
      <point x="247" y="100"/>
      <point x="267" y="80"/>
    </contour>
  </outline>
</glyph>
<glyph name="oslash" format="1">
  <advance width="554"/>
  <unicode hex="00F8"/>
  <outline>
    <contour>
      <point x="485" y="234" type="curve" smooth="yes"/>
      <point x="485" y="254" type="line" smooth="yes"/>
      <point x="485" y="324"/>
      <point x="468" y="382"/>
      <point x="436" y="424" type="curve"/>
      <point x="485" y="487" type="line"/>
      <point x="445" y="487" type="line"/>
      <point x="415" y="448" type="line"/>
      <point x="380" y="479"/>
      <point x="334" y="497"/>
      <point x="277" y="497" type="curve" smooth="yes"/>
      <point x="143" y="497"/>
      <point x="69" y="401"/>
      <point x="69" y="254" type="curve" smooth="yes"/>
      <point x="69" y="234" type="line" smooth="yes"/>
      <point x="69" y="164"/>
      <point x="86" y="105"/>
      <point x="118" y="63" type="curve"/>
      <point x="69" y="0" type="line"/>
      <point x="109" y="0" type="line"/>
      <point x="139" y="39" type="line"/>
      <point x="174" y="8"/>
      <point x="220" y="-10"/>
      <point x="277" y="-10" type="curve" smooth="yes"/>
      <point x="409" y="-10"/>
      <point x="485" y="86"/>
    </contour>
    <contour>
      <point x="137" y="214" type="curve" smooth="yes"/>
      <point x="137" y="274" type="line" smooth="yes"/>
      <point x="137" y="412"/>
      <point x="187" y="467"/>
      <point x="277" y="467" type="curve" smooth="yes"/>
      <point x="326" y="467"/>
      <point x="364" y="450"/>
      <point x="387" y="412" type="curve"/>
      <point x="152" y="107" type="line"/>
      <point x="142" y="135"/>
      <point x="137" y="170"/>
    </contour>
    <contour>
      <point x="417" y="274" type="curve" smooth="yes"/>
      <point x="417" y="214" type="line" smooth="yes"/>
      <point x="417" y="76"/>
      <point x="367" y="20"/>
      <point x="277" y="20" type="curve" smooth="yes"/>
      <point x="228" y="20"/>
      <point x="190" y="37"/>
      <point x="167" y="75" type="curve"/>
      <point x="403" y="380" type="line"/>
      <point x="412" y="352"/>
      <point x="417" y="317"/>
    </contour>
  </outline>
</glyph>
<glyph name="thorn" format="1">
  <advance width="575"/>
  <unicode hex="00FE"/>
  <outline>
    <contour>
      <point x="34" y="716" type="line"/>
      <point x="89" y="710" type="line" smooth="yes"/>
      <point x="110" y="708"/>
      <point x="111" y="708"/>
      <point x="111" y="661" type="curve"/>
      <point x="111" y="-134" type="line"/>
      <point x="111" y="-181"/>
      <point x="110" y="-181"/>
      <point x="89" y="-183" type="curve" smooth="yes"/>
      <point x="34" y="-188" type="line"/>
      <point x="34" y="-213" type="line"/>
      <point x="268" y="-213" type="line"/>
      <point x="268" y="-188" type="line"/>
      <point x="193" y="-183" type="line" smooth="yes"/>
      <point x="172" y="-182"/>
      <point x="171" y="-181"/>
      <point x="171" y="-134" type="curve"/>
      <point x="171" y="45" type="line"/>
      <point x="205" y="8"/>
      <point x="249" y="-10"/>
      <point x="300" y="-10" type="curve" smooth="yes"/>
      <point x="428" y="-10"/>
      <point x="503" y="85"/>
      <point x="503" y="234" type="curve" smooth="yes"/>
      <point x="503" y="254" type="line" smooth="yes"/>
      <point x="503" y="408"/>
      <point x="440" y="497"/>
      <point x="323" y="497" type="curve" smooth="yes"/>
      <point x="267" y="497"/>
      <point x="215" y="474"/>
      <point x="171" y="415" type="curve"/>
      <point x="171" y="740" type="line"/>
      <point x="34" y="740" type="line"/>
    </contour>
    <contour>
      <point x="319" y="467" type="curve" smooth="yes"/>
      <point x="393" y="467"/>
      <point x="435" y="411"/>
      <point x="435" y="284" type="curve" smooth="yes"/>
      <point x="435" y="204" type="line" smooth="yes"/>
      <point x="435" y="89"/>
      <point x="394" y="20"/>
      <point x="300" y="20" type="curve" smooth="yes"/>
      <point x="245" y="20"/>
      <point x="203" y="44"/>
      <point x="171" y="96" type="curve"/>
      <point x="171" y="367" type="line"/>
      <point x="219" y="447"/>
      <point x="272" y="467"/>
    </contour>
  </outline>
</glyph>
<glyph name="Aogonek" format="1">
  <advance width="622"/>
  <unicode hex="0104"/>
  <outline>
    <contour>
      <point x="622" y="-125" type="curve"/>
      <point x="578" y="-112" type="line"/>
      <point x="565" y="-174"/>
      <point x="537" y="-196"/>
      <point x="503" y="-196" type="curve" smooth="yes"/>
      <point x="463" y="-196"/>
      <point x="445" y="-170"/>
      <point x="445" y="-127" type="curve" smooth="yes"/>
      <point x="445" y="-52"/>
      <point x="485" y="0"/>
      <point x="559" y="0" type="curve"/>
      <point x="622" y="0" type="line"/>
      <point x="622" y="25" type="line"/>
      <point x="567" y="30" type="line" smooth="yes"/>
      <point x="547" y="32"/>
      <point x="546" y="32"/>
      <point x="531" y="79" type="curve" smooth="yes"/>
      <point x="334" y="680" type="line"/>
      <point x="287" y="680" type="line"/>
      <point x="92" y="79" type="line" smooth="yes"/>
      <point x="77" y="32"/>
      <point x="76" y="32"/>
      <point x="55" y="30" type="curve" smooth="yes"/>
      <point x="0" y="25" type="line"/>
      <point x="0" y="0" type="line"/>
      <point x="189" y="0" type="line"/>
      <point x="189" y="25" type="line"/>
      <point x="134" y="30" type="line" smooth="yes"/>
      <point x="112" y="32"/>
      <point x="111" y="33"/>
      <point x="126" y="79" type="curve" smooth="yes"/>
      <point x="168" y="210" type="line"/>
      <point x="422" y="210" type="line"/>
      <point x="486" y="12" type="line"/>
      <point x="433" y="-10"/>
      <point x="393" y="-59"/>
      <point x="393" y="-127" type="curve" smooth="yes"/>
      <point x="393" y="-188"/>
      <point x="437" y="-223"/>
      <point x="499" y="-223" type="curve" smooth="yes"/>
      <point x="550" y="-223"/>
      <point x="602" y="-197"/>
    </contour>
    <contour>
      <point x="178" y="240" type="line"/>
      <point x="295" y="600" type="line"/>
      <point x="412" y="240" type="line"/>
    </contour>
  </outline>
</glyph>
<glyph name="aogonek" format="1">
  <advance width="542"/>
  <unicode hex="0105"/>
  <outline>
    <contour>
      <point x="530" y="-125" type="curve"/>
      <point x="486" y="-112" type="line"/>
      <point x="473" y="-174"/>
      <point x="445" y="-196"/>
      <point x="411" y="-196" type="curve" smooth="yes"/>
      <point x="371" y="-196"/>
      <point x="353" y="-170"/>
      <point x="353" y="-127" type="curve" smooth="yes"/>
      <point x="353" y="-36"/>
      <point x="466" y="-29"/>
      <point x="530" y="24" type="curve"/>
      <point x="512" y="48" type="line"/>
      <point x="497" y="35"/>
      <point x="482" y="30"/>
      <point x="471" y="30" type="curve" smooth="yes"/>
      <point x="449" y="30"/>
      <point x="428" y="39"/>
      <point x="428" y="107" type="curve" smooth="yes"/>
      <point x="428" y="328" type="line" smooth="yes"/>
      <point x="428" y="417"/>
      <point x="393" y="497"/>
      <point x="255" y="497" type="curve" smooth="yes"/>
      <point x="140" y="497"/>
      <point x="83" y="429"/>
      <point x="91" y="336" type="curve"/>
      <point x="149" y="326" type="line"/>
      <point x="136" y="440"/>
      <point x="184" y="467"/>
      <point x="253" y="467" type="curve" smooth="yes"/>
      <point x="324" y="467"/>
      <point x="368" y="434"/>
      <point x="368" y="328" type="curve" smooth="yes"/>
      <point x="368" y="247" type="line"/>
      <point x="241" y="247" type="line" smooth="yes"/>
      <point x="116" y="247"/>
      <point x="69" y="201"/>
      <point x="69" y="122" type="curve" smooth="yes"/>
      <point x="69" y="51"/>
      <point x="110" y="-10"/>
      <point x="204" y="-10" type="curve" smooth="yes"/>
      <point x="260" y="-10"/>
      <point x="320" y="13"/>
      <point x="369" y="69" type="curve"/>
      <point x="375" y="31"/>
      <point x="395" y="6"/>
      <point x="427" y="-2" type="curve"/>
      <point x="365" y="-28"/>
      <point x="301" y="-65"/>
      <point x="301" y="-131" type="curve" smooth="yes"/>
      <point x="301" y="-188"/>
      <point x="345" y="-223"/>
      <point x="407" y="-223" type="curve" smooth="yes"/>
      <point x="458" y="-223"/>
      <point x="510" y="-197"/>
    </contour>
    <contour>
      <point x="221" y="25" type="curve" smooth="yes"/>
      <point x="161" y="25"/>
      <point x="132" y="63"/>
      <point x="132" y="127" type="curve" smooth="yes"/>
      <point x="132" y="189"/>
      <point x="167" y="217"/>
      <point x="249" y="217" type="curve" smooth="yes"/>
      <point x="368" y="217" type="line"/>
      <point x="368" y="112" type="line"/>
      <point x="311" y="39"/>
      <point x="260" y="25"/>
    </contour>
  </outline>
</glyph>
<glyph name="dcroat" format="1">
  <advance width="578"/>
  <unicode hex="0111"/>
  <outline>
    <contour>
      <point x="541" y="24" type="line"/>
      <point x="486" y="30" type="line" smooth="yes"/>
      <point x="465" y="32"/>
      <point x="464" y="32"/>
      <point x="464" y="79" type="curve"/>
      <point x="464" y="587" type="line"/>
      <point x="541" y="587" type="line"/>
      <point x="541" y="617" type="line"/>
      <point x="464" y="617" type="line"/>
      <point x="464" y="740" type="line"/>
      <point x="327" y="740" type="line"/>
      <point x="327" y="715" type="line"/>
      <point x="382" y="710" type="line" smooth="yes"/>
      <point x="403" y="708"/>
      <point x="404" y="708"/>
      <point x="404" y="661" type="curve"/>
      <point x="404" y="617" type="line"/>
      <point x="246" y="617" type="line"/>
      <point x="246" y="587" type="line"/>
      <point x="404" y="587" type="line"/>
      <point x="404" y="442" type="line"/>
      <point x="370" y="479"/>
      <point x="326" y="497"/>
      <point x="275" y="497" type="curve" smooth="yes"/>
      <point x="147" y="497"/>
      <point x="72" y="402"/>
      <point x="72" y="253" type="curve" smooth="yes"/>
      <point x="72" y="233" type="line" smooth="yes"/>
      <point x="72" y="79"/>
      <point x="135" y="-10"/>
      <point x="252" y="-10" type="curve" smooth="yes"/>
      <point x="312" y="-10"/>
      <point x="366" y="14"/>
      <point x="408" y="76" type="curve"/>
      <point x="408" y="0" type="line"/>
      <point x="541" y="0" type="line"/>
    </contour>
    <contour>
      <point x="140" y="203" type="curve" smooth="yes"/>
      <point x="140" y="283" type="line" smooth="yes"/>
      <point x="140" y="398"/>
      <point x="181" y="467"/>
      <point x="275" y="467" type="curve" smooth="yes"/>
      <point x="330" y="467"/>
      <point x="372" y="443"/>
      <point x="404" y="391" type="curve"/>
      <point x="404" y="120" type="line"/>
      <point x="356" y="40"/>
      <point x="303" y="20"/>
      <point x="256" y="20" type="curve" smooth="yes"/>
      <point x="182" y="20"/>
      <point x="140" y="76"/>
    </contour>
  </outline>
</glyph>
<glyph name="Eogonek" format="1">
  <advance width="565"/>
  <unicode hex="0118"/>
  <outline>
    <contour>
      <point x="520" y="-125" type="curve"/>
      <point x="476" y="-112" type="line"/>
      <point x="463" y="-174"/>
      <point x="435" y="-196"/>
      <point x="401" y="-196" type="curve" smooth="yes"/>
      <point x="361" y="-196"/>
      <point x="343" y="-170"/>
      <point x="343" y="-127" type="curve" smooth="yes"/>
      <point x="343" y="-52"/>
      <point x="383" y="0"/>
      <point x="457" y="0" type="curve"/>
      <point x="520" y="0" type="line"/>
      <point x="520" y="157" type="line"/>
      <point x="496" y="157" type="line"/>
      <point x="469" y="56" type="line" smooth="yes"/>
      <point x="463" y="33"/>
      <point x="462" y="30"/>
      <point x="415" y="30" type="curve"/>
      <point x="194" y="30" type="line"/>
      <point x="194" y="329" type="line"/>
      <point x="342" y="329" type="line"/>
      <point x="389" y="329"/>
      <point x="390" y="327"/>
      <point x="396" y="303" type="curve" smooth="yes"/>
      <point x="413" y="232" type="line"/>
      <point x="437" y="232" type="line"/>
      <point x="437" y="456" type="line"/>
      <point x="413" y="456" type="line"/>
      <point x="396" y="385" type="line" smooth="yes"/>
      <point x="390" y="361"/>
      <point x="389" y="359"/>
      <point x="342" y="359" type="curve"/>
      <point x="194" y="359" type="line"/>
      <point x="194" y="650" type="line"/>
      <point x="401" y="650" type="line"/>
      <point x="448" y="650"/>
      <point x="449" y="647"/>
      <point x="455" y="624" type="curve" smooth="yes"/>
      <point x="482" y="523" type="line"/>
      <point x="506" y="523" type="line"/>
      <point x="506" y="680" type="line"/>
      <point x="52" y="680" type="line"/>
      <point x="52" y="655" type="line"/>
      <point x="107" y="650" type="line" smooth="yes"/>
      <point x="128" y="648"/>
      <point x="129" y="648"/>
      <point x="129" y="601" type="curve"/>
      <point x="129" y="79" type="line"/>
      <point x="129" y="32"/>
      <point x="128" y="32"/>
      <point x="107" y="30" type="curve" smooth="yes"/>
      <point x="52" y="25" type="line"/>
      <point x="52" y="0" type="line"/>
      <point x="375" y="0" type="line"/>
      <point x="327" y="-22"/>
      <point x="291" y="-67"/>
      <point x="291" y="-127" type="curve" smooth="yes"/>
      <point x="291" y="-188"/>
      <point x="335" y="-223"/>
      <point x="397" y="-223" type="curve" smooth="yes"/>
      <point x="448" y="-223"/>
      <point x="500" y="-197"/>
    </contour>
  </outline>
</glyph>
<glyph name="eogonek" format="1">
  <advance width="523"/>
  <unicode hex="0119"/>
  <outline>
    <contour>
      <point x="453" y="-125" type="curve"/>
      <point x="409" y="-112" type="line"/>
      <point x="396" y="-174"/>
      <point x="369" y="-196"/>
      <point x="334" y="-196" type="curve" smooth="yes"/>
      <point x="293" y="-196"/>
      <point x="276" y="-166"/>
      <point x="276" y="-127" type="curve" smooth="yes"/>
      <point x="276" y="-48"/>
      <point x="349" y="-19"/>
      <point x="406" y="32" type="curve" smooth="yes"/>
      <point x="431" y="55"/>
      <point x="445" y="80"/>
      <point x="453" y="111" type="curve"/>
      <point x="407" y="124" type="line"/>
      <point x="390" y="47"/>
      <point x="348" y="20"/>
      <point x="283" y="20" type="curve" smooth="yes"/>
      <point x="180" y="20"/>
      <point x="139" y="76"/>
      <point x="139" y="214" type="curve" smooth="yes"/>
      <point x="139" y="245" type="line"/>
      <point x="452" y="245" type="line"/>
      <point x="456" y="267"/>
      <point x="458" y="287"/>
      <point x="458" y="306" type="curve" smooth="yes"/>
      <point x="458" y="435"/>
      <point x="370" y="497"/>
      <point x="269" y="497" type="curve" smooth="yes"/>
      <point x="139" y="497"/>
      <point x="71" y="401"/>
      <point x="71" y="254" type="curve" smooth="yes"/>
      <point x="71" y="234" type="line" smooth="yes"/>
      <point x="71" y="86"/>
      <point x="139" y="-10"/>
      <point x="278" y="-10" type="curve" smooth="yes"/>
      <point x="291" y="-10"/>
      <point x="303" y="-9"/>
      <point x="316" y="-7" type="curve"/>
      <point x="268" y="-40"/>
      <point x="224" y="-74"/>
      <point x="224" y="-133" type="curve" smooth="yes"/>
      <point x="224" y="-186"/>
      <point x="267" y="-223"/>
      <point x="330" y="-223" type="curve" smooth="yes"/>
      <point x="383" y="-223"/>
      <point x="433" y="-197"/>
    </contour>
    <contour>
      <point x="269" y="467" type="curve" smooth="yes"/>
      <point x="344" y="467"/>
      <point x="395" y="423"/>
      <point x="395" y="314" type="curve" smooth="yes"/>
      <point x="395" y="303"/>
      <point x="394" y="291"/>
      <point x="393" y="279" type="curve" smooth="yes"/>
      <point x="393" y="275" type="line"/>
      <point x="139" y="275" type="line"/>
      <point x="139" y="412"/>
      <point x="181" y="467"/>
    </contour>
  </outline>
</glyph>
